{"glyphs":{"0":{"ha":749,"x_min":-1,"x_max":702,"o":"m 702 357 q 666 221 702 279 q 549 66 635 172 q 393 -5 491 -4 q 92 123 199 -6 q 0 407 2 231 q 44 587 -1 496 q 193 773 88 673 q 382 913 261 837 l 397 893 q 375 869 387 880 q 583 704 502 806 q 702 357 702 555 m 614 314 q 576 509 614 422 q 471 654 544 583 q 471 435 471 581 q 471 376 470 400 q 471 339 471 349 q 469 318 471 329 q 452 279 463 292 q 288 136 421 238 q 378 97 311 117 q 455 87 410 87 q 493 104 476 87 q 559 182 521 131 q 607 246 578 205 q 614 314 614 259 m 375 371 q 373 554 376 389 q 371 732 371 726 q 296 802 363 743 q 194 703 260 781 q 133 610 152 654 q 106 476 106 549 q 124 349 106 408 q 187 222 144 285 q 260 152 210 189 q 330 215 286 171 q 372 271 365 251 q 374 306 373 274 q 375 371 374 323 z "},"1":{"ha":322,"x_min":34,"x_max":275,"o":"m 269 1 l 241 1 q 157 1 227 0 q 106 1 139 1 l 83 2 q 74 9 79 2 q 84 20 74 13 l 103 34 q 112 49 112 40 l 112 142 q 113 270 112 156 q 113 514 114 413 q 112 730 111 669 q 91 749 113 749 l 47 749 q 34 752 34 749 q 43 762 34 755 l 167 848 q 196 857 186 861 q 212 850 205 854 q 218 837 217 847 l 221 791 q 224 717 224 755 l 224 530 q 226 349 224 381 q 229 243 227 314 q 240 97 231 205 q 243 48 241 81 q 250 25 245 28 l 265 16 q 275 5 275 9 q 269 1 274 1 z "},"2":{"ha":444,"x_min":0,"x_max":432,"o":"m 423 165 q 355 37 399 126 q 277 -7 338 -7 q 148 23 204 -7 q 62 45 107 45 q 0 33 37 46 q 168 365 119 243 q 231 621 231 519 q 135 748 231 748 q 54 680 92 748 q 41 672 48 669 l 33 675 q 33 692 26 678 q 100 821 56 737 q 132 891 114 851 l 161 883 q 157 864 159 878 q 309 817 233 870 q 403 631 403 750 q 311 397 403 522 q 113 144 212 271 q 208 170 164 170 q 284 156 243 170 q 350 136 341 136 q 385 152 370 136 q 401 173 392 160 q 418 184 411 186 q 423 165 432 178 z "},"3":{"ha":511,"x_min":0,"x_max":477,"o":"m 477 273 q 376 82 477 186 q 289 3 323 28 q 248 -12 270 -12 q 196 18 214 -12 q 85 131 127 131 q 52 111 66 131 q 37 71 37 90 q 39 61 37 65 q 58 70 47 70 q 88 33 88 70 q 50 -7 88 -7 q 0 58 0 -7 q 35 169 0 125 q 144 227 83 227 q 239 181 203 227 q 290 113 264 150 q 310 94 302 94 q 321 99 315 94 q 360 212 360 130 q 286 350 360 288 q 176 418 261 370 q 148 401 164 412 q 134 399 138 395 q 128 406 132 401 q 131 416 123 412 q 168 448 144 428 q 257 546 210 484 q 318 674 318 627 q 302 726 318 713 q 171 684 260 684 q 56 713 106 684 q 0 802 0 746 q 50 868 0 868 q 85 832 85 868 q 49 797 85 797 q 46 787 46 791 q 79 763 46 764 q 230 842 154 761 q 274 899 241 854 l 302 884 q 288 860 298 873 q 415 802 364 845 q 465 706 465 759 q 292 487 465 598 q 477 273 477 395 z "},"4":{"ha":659,"x_min":-9,"x_max":625,"o":"m 625 200 q 564 125 625 125 q 517 172 517 125 q 561 216 517 216 q 587 209 574 216 q 498 271 564 252 l 498 215 q 499 98 498 135 q 517 56 500 56 l 554 57 q 565 48 562 58 q 565 35 568 40 q 526 19 559 26 q 446 -3 520 18 q 351 -33 389 -18 q 302 -52 332 -41 q 294 -33 295 -54 q 313 0 293 -25 q 345 53 337 29 q 358 190 356 85 q 357 284 358 208 q 149 212 206 279 q 132 202 140 201 q 109 218 122 203 q 44 306 86 251 q 21 286 38 300 q 0 291 9 276 q 2 317 -9 307 q 180 531 33 345 q 378 780 366 764 q 471 887 445 860 q 488 908 477 895 q 507 909 494 914 q 519 890 520 904 q 509 760 515 847 q 500 430 500 522 q 499 372 500 417 q 625 200 625 305 m 359 663 q 235 514 333 639 q 119 372 136 389 q 328 420 218 420 q 357 418 341 420 l 357 428 q 359 663 359 662 z "},"5":{"ha":542,"x_min":0,"x_max":509,"o":"m 508 778 q 467 682 509 717 q 365 648 427 648 q 190 749 269 648 q 151 574 170 632 q 314 507 237 564 q 417 309 417 429 q 361 165 417 233 q 246 75 315 111 q 134 28 190 52 q 51 -30 61 -1 q 47 -50 45 -43 q 62 -43 52 -43 q 81 -66 81 -43 q 52 -90 81 -90 q 0 -37 0 -90 q 59 58 0 5 q 168 157 114 108 q 227 292 227 222 q 35 490 227 437 q 104 713 88 612 q 101 723 105 719 q 92 726 98 727 l 51 715 q 40 726 40 712 q 49 737 40 731 q 145 809 100 773 q 244 891 188 842 l 266 872 q 245 840 264 868 q 286 854 271 857 q 332 811 309 850 q 403 749 370 749 q 445 773 443 749 q 408 810 408 773 q 449 848 408 848 q 508 778 507 848 z "},"6":{"ha":540,"x_min":0,"x_max":506,"o":"m 506 264 q 488 165 506 204 q 380 37 461 105 q 283 -19 315 -19 q 98 73 178 -19 q 0 393 0 186 q 295 902 0 689 l 323 888 q 139 425 139 728 q 203 197 139 307 q 342 66 265 91 q 386 109 372 85 q 397 183 397 128 q 343 306 397 248 q 247 361 292 361 q 181 336 215 361 q 161 341 166 324 q 166 355 159 347 q 263 545 222 423 q 277 557 267 557 q 292 542 292 557 q 284 509 292 532 q 319 519 298 519 q 388 488 347 519 q 506 264 506 397 z "},"7":{"ha":578,"x_min":0,"x_max":550,"o":"m 550 749 q 416 471 468 638 q 365 215 374 336 q 365 118 360 158 q 370 91 367 99 q 387 75 374 77 l 417 67 q 428 58 425 66 q 428 45 431 50 q 389 29 422 37 q 214 -23 290 7 q 165 -41 195 -31 q 157 -23 158 -43 q 177 7 156 -18 q 200 65 198 32 q 199 174 199 47 q 258 428 199 312 q 418 653 302 517 l 410 656 q 316 605 382 625 q 205 587 257 587 q 64 631 123 587 q 0 756 0 680 q 18 824 0 794 q 77 859 40 859 q 121 813 121 859 q 83 774 121 774 q 73 774 79 774 q 68 762 68 768 q 125 726 68 726 q 314 781 220 726 q 372 820 343 800 q 426 846 412 846 q 469 821 435 846 q 458 859 467 826 l 486 874 q 550 749 507 829 z "},"8":{"ha":512,"x_min":0,"x_max":485,"o":"m 485 251 q 466 158 485 195 q 357 37 439 106 q 260 -19 292 -19 q 86 53 172 -19 q 0 203 0 125 q 75 345 0 267 l 151 422 q 62 488 85 466 q 11 587 11 536 q 144 798 11 677 q 272 902 188 832 l 295 885 q 281 866 293 880 q 385 805 334 856 q 438 701 438 752 q 396 602 438 652 q 281 493 370 571 q 485 251 485 358 m 327 625 q 280 727 327 670 q 206 793 241 776 q 155 745 164 757 q 129 682 129 715 q 157 601 129 639 q 241 522 181 570 l 259 509 q 327 625 327 574 m 376 163 q 316 286 376 224 q 174 402 278 327 q 118 292 118 357 q 181 161 118 233 q 319 66 244 90 q 364 109 334 75 q 376 163 376 122 z "},"9":{"ha":548,"x_min":0,"x_max":507,"o":"m 507 434 q 205 -61 507 156 q 192 -66 197 -67 q 176 -53 185 -60 q 178 -47 173 -51 q 361 416 361 113 q 298 644 361 534 q 159 775 235 750 q 108 647 108 739 q 159 513 108 577 q 254 453 208 453 q 319 478 286 453 q 340 473 334 490 q 334 459 340 468 q 237 283 262 356 q 224 271 233 271 q 209 286 209 271 q 216 305 209 281 q 182 294 202 294 q 105 328 144 294 q 0 547 0 416 q 106 785 0 688 q 237 898 151 823 l 262 878 q 244 857 258 871 q 418 752 346 846 q 507 434 507 636 z "}," ":{"ha":339,"x_min":0,"x_max":0,"o":""},"!":{"ha":323,"x_min":33,"x_max":298,"o":"m 288 150 l 282 140 q 265 140 277 134 l 134 214 q 101 235 106 229 q 85 275 85 250 q 84 309 85 283 q 83 349 83 336 q 83 415 83 354 q 83 490 83 470 l 83 651 q 80 800 82 701 q 61 819 79 820 l 43 817 q 34 824 35 816 q 39 837 33 835 q 79 847 60 843 q 156 865 106 853 q 241 884 192 873 q 252 879 248 886 q 250 867 257 872 q 230 852 240 860 q 220 826 220 843 q 220 790 220 810 q 222 758 221 764 q 223 606 222 706 q 224 431 224 528 q 226 359 224 422 q 226 290 227 307 q 227 227 225 268 q 229 205 228 208 q 245 189 232 197 l 281 164 q 288 150 292 157 m 290 61 q 277 56 285 53 l 258 61 q 241 56 247 65 q 226 29 236 46 q 209 2 220 18 q 183 -6 200 -7 q 143 14 174 -6 l 66 63 q 58 79 56 69 q 69 87 62 92 l 81 80 q 99 90 90 75 q 117 120 106 100 q 131 146 118 123 q 159 154 141 163 q 212 123 177 142 q 272 87 225 115 l 286 79 q 290 61 298 72 z "},"\"":{"ha":330,"x_min":24,"x_max":270,"o":"m 269 726 q 264 701 270 715 q 243 673 260 689 l 192 623 q 178 619 180 612 q 178 640 172 631 l 191 655 q 193 675 197 664 l 163 753 q 174 796 153 778 l 235 851 q 249 848 242 858 q 243 833 252 843 l 235 822 q 261 750 246 791 q 269 726 264 742 m 140 726 q 136 701 141 715 q 115 673 131 689 l 63 623 q 49 619 52 612 q 50 640 43 631 l 62 655 q 64 675 68 664 l 34 753 q 45 796 24 778 l 106 851 q 120 848 113 858 q 115 833 123 843 l 106 822 q 132 750 117 791 q 140 726 136 742 z "},"#":{"ha":600,"x_min":28,"x_max":583,"o":"m 583 496 q 560 489 581 489 q 514 495 546 489 q 465 503 474 502 q 446 412 457 465 q 435 367 442 395 q 460 363 447 366 q 485 353 468 363 q 543 268 504 324 q 544 264 545 265 q 522 256 543 256 q 469 263 506 256 q 412 272 425 271 q 383 155 393 186 q 372 140 382 150 q 340 125 360 134 q 372 125 351 124 q 378 98 372 122 q 393 68 385 86 q 408 62 396 60 l 426 64 q 438 59 435 65 q 427 50 439 54 l 356 20 q 326 9 330 9 q 307 16 313 9 q 299 33 307 17 q 275 89 296 39 l 248 79 q 236 81 236 75 q 245 96 235 90 l 253 102 q 265 116 259 106 q 273 134 267 119 q 285 177 277 148 q 312 277 299 225 q 216 275 264 277 q 186 155 206 231 q 175 140 185 150 q 143 125 163 134 q 175 125 155 124 q 182 98 176 122 q 197 68 189 86 q 211 62 199 60 l 229 64 q 241 59 239 65 q 231 50 243 54 l 159 20 q 129 9 133 9 q 111 16 116 9 q 102 33 110 17 q 79 89 100 39 l 54 81 q 41 82 41 77 q 50 98 40 92 l 56 102 q 68 116 62 106 q 76 134 71 119 q 88 177 80 148 q 113 268 101 221 q 64 266 85 266 q 49 273 53 266 q 37 313 45 281 q 28 349 28 345 q 60 357 30 355 q 138 364 98 361 q 146 400 142 384 q 169 502 157 450 q 103 498 127 498 q 88 506 92 498 q 75 545 84 513 q 67 582 66 576 q 98 590 68 587 q 190 597 143 595 q 196 630 193 614 q 219 748 203 671 q 224 768 222 764 q 240 781 229 775 q 286 802 242 782 q 345 829 311 814 q 355 826 351 831 q 353 816 358 820 q 335 801 336 802 q 323 779 328 793 q 300 656 315 730 q 289 602 295 634 q 378 604 334 604 l 387 604 q 393 630 390 616 q 416 748 400 671 q 421 768 419 764 q 437 781 425 775 q 483 802 439 782 q 541 829 507 814 q 551 826 547 831 q 549 816 555 820 q 532 801 533 802 q 520 779 524 793 q 496 656 511 730 q 485 598 491 633 l 499 596 q 524 585 507 595 q 581 500 543 557 q 583 496 583 498 m 367 509 l 352 509 q 270 508 317 509 q 249 412 261 468 q 239 370 246 396 q 336 371 288 371 q 342 400 340 387 q 367 509 355 456 z "},"$":{"ha":760,"x_min":9,"x_max":700,"o":"m 700 290 q 542 -3 700 123 q 441 -88 507 -28 l 441 -251 l 413 -298 l 413 -125 q 393 -156 404 -138 q 286 3 339 -77 q 140 114 199 116 q 103 92 125 113 q 72 47 82 70 q 73 16 61 24 q 104 28 87 28 q 140 13 125 28 q 155 -24 155 -2 q 140 -60 155 -45 q 104 -75 125 -75 q 42 -47 73 -76 q 9 7 11 -18 q 28 59 9 21 q 113 174 62 126 q 237 232 175 232 q 370 167 317 232 q 413 114 387 147 l 413 340 q 398 332 406 337 q 229 292 335 292 q 52 387 113 291 q 68 404 56 393 q 37 512 37 462 q 197 794 37 640 q 330 910 223 819 q 341 915 335 915 q 355 899 355 915 q 352 890 355 894 q 332 861 346 883 q 352 871 342 871 q 388 844 363 871 q 413 820 399 832 l 413 913 q 380 960 380 924 q 394 994 380 979 q 427 1008 408 1008 q 461 994 447 1008 q 475 960 475 979 q 441 913 475 923 l 441 798 q 591 736 524 736 q 633 768 633 736 q 630 781 633 774 q 594 795 609 781 q 580 829 580 809 q 594 862 580 848 q 630 876 609 876 q 694 789 696 876 q 633 682 692 723 q 469 630 560 632 q 441 631 454 630 l 441 458 q 545 495 492 495 q 664 433 623 495 q 700 290 700 378 m 413 433 l 413 633 q 276 683 342 642 q 222 722 246 702 q 213 620 213 676 q 278 431 213 510 q 322 391 294 412 q 269 360 306 369 q 390 409 338 357 q 412 431 397 416 l 413 433 m 530 193 q 492 319 528 278 q 441 345 470 345 l 441 78 q 481 34 467 45 q 530 193 532 81 z "},"%":{"ha":979,"x_min":50,"x_max":922,"o":"m 916 855 q 908 832 922 854 q 886 822 903 825 q 840 796 865 818 q 719 654 796 758 q 600 491 659 572 l 396 212 q 311 92 359 161 q 294 52 297 70 q 304 33 292 33 l 321 32 q 330 22 330 31 q 320 3 330 9 q 233 1 315 -1 q 134 3 194 1 q 83 5 114 3 q 90 28 76 6 q 113 39 95 36 q 159 64 134 42 q 322 269 189 90 q 513 533 420 399 q 677 766 565 602 q 696 812 696 795 q 686 825 696 824 l 671 826 q 661 836 661 827 q 671 857 661 851 q 728 859 693 858 q 827 859 755 861 q 916 855 867 858 m 436 574 q 416 499 436 531 q 352 414 399 472 q 266 375 320 375 q 100 445 159 374 q 50 602 51 505 q 74 699 50 650 q 156 803 98 748 q 260 880 193 838 l 269 869 q 256 855 262 861 q 370 764 326 821 q 436 574 436 682 m 387 550 q 366 657 387 610 q 309 737 349 698 q 309 617 309 697 q 309 584 309 597 q 309 564 309 569 q 308 552 309 558 q 298 530 304 538 q 208 452 281 509 q 264 429 226 437 q 300 425 281 425 q 321 435 311 425 q 357 477 336 450 q 384 513 368 490 q 387 550 387 519 m 256 581 q 255 682 256 591 q 254 780 254 777 q 212 819 250 786 q 156 764 193 806 q 123 713 133 737 q 108 640 108 680 q 118 570 108 602 q 153 500 129 534 q 193 461 165 481 q 231 496 207 471 q 254 526 250 515 q 256 545 255 528 q 256 581 256 555 m 909 195 q 890 121 909 153 q 825 36 873 94 q 739 -3 793 -3 q 573 67 633 -4 q 523 223 524 126 q 547 321 522 273 q 629 425 572 370 q 733 501 667 460 l 741 490 q 729 477 736 484 q 844 387 799 443 q 909 195 909 304 m 861 172 q 840 279 861 231 q 782 359 822 320 q 782 239 782 319 q 782 205 781 220 q 783 186 783 191 q 781 174 783 180 q 772 153 778 159 q 681 74 755 130 q 738 51 699 60 q 773 47 753 47 q 794 56 785 47 q 831 99 810 71 q 857 135 841 112 q 861 172 861 142 m 729 203 q 728 304 730 213 q 727 402 727 399 q 686 440 723 408 q 629 386 666 429 q 596 335 606 359 q 581 261 581 301 q 591 191 581 224 q 626 121 602 156 q 666 83 639 103 q 704 117 680 93 q 728 149 724 137 q 729 168 728 150 q 729 203 729 177 z "},"&":{"ha":725,"x_min":24,"x_max":703,"o":"m 701 65 q 694 48 703 55 l 625 -4 q 589 -25 597 -25 q 566 -17 574 -25 q 536 32 555 -5 q 500 90 530 41 q 431 35 463 56 q 312 -16 356 -16 q 116 48 207 -16 q 24 184 24 113 q 94 318 24 272 l 195 385 q 58 529 58 453 q 109 645 58 585 q 195 718 147 688 q 351 811 248 749 l 379 796 q 363 779 377 791 q 458 726 421 771 q 493 637 493 685 q 469 543 493 581 q 355 448 438 494 q 557 288 527 365 q 576 373 572 330 q 460 446 494 380 q 530 520 500 474 q 558 478 544 499 q 621 448 586 448 q 656 464 649 448 q 636 487 636 464 q 661 512 636 512 q 688 471 688 512 q 611 374 688 387 q 612 345 612 359 q 590 222 612 281 q 664 77 625 160 q 680 66 672 60 l 691 74 q 701 65 698 79 m 406 587 q 355 665 406 625 q 271 713 315 697 q 211 673 220 681 q 176 614 176 645 q 328 463 176 536 q 406 587 406 513 m 473 135 q 224 368 438 254 q 174 330 199 349 q 139 264 139 298 q 216 146 139 210 q 384 60 292 82 q 427 88 407 71 q 473 135 456 113 z "},"'":{"ha":197,"x_min":21,"x_max":178,"o":"m 176 726 q 170 700 178 715 q 142 673 164 689 l 73 622 q 54 618 58 610 q 55 639 46 631 l 71 654 q 75 675 81 663 l 34 753 q 48 796 21 778 l 130 852 q 149 849 140 859 q 143 833 154 844 l 131 823 q 166 750 146 791 q 176 726 170 742 z "},"(":{"ha":397,"x_min":51,"x_max":357,"o":"m 357 -53 l 250 -135 q 51 390 51 127 q 114 686 51 553 q 278 943 152 767 l 311 905 q 174 453 174 724 q 248 122 174 286 q 357 -53 298 14 z "},")":{"ha":359,"x_min":29,"x_max":328,"o":"m 328 416 q 276 157 328 296 q 101 -135 215 -5 l 57 -117 q 212 357 212 89 q 127 711 212 538 q 29 863 77 810 l 137 943 q 328 416 328 690 z "},"*":{"ha":424,"x_min":24,"x_max":376,"o":"m 376 796 q 340 736 376 763 q 273 709 308 710 q 283 649 273 677 q 321 608 297 608 q 317 616 317 612 q 336 634 317 634 q 357 613 357 634 q 340 585 357 595 q 302 574 322 574 q 239 599 271 574 q 198 655 207 625 q 119 585 119 627 q 119 581 119 583 q 130 587 123 587 q 149 568 149 587 q 128 546 149 546 q 91 569 106 546 q 78 612 78 589 q 144 721 78 696 q 79 751 98 751 q 53 741 61 751 q 68 723 68 742 q 47 705 68 705 q 24 737 24 705 q 55 796 24 772 q 119 819 83 819 q 171 804 146 819 q 187 852 187 829 q 170 888 187 880 q 171 884 171 886 q 153 870 171 870 q 133 892 133 870 q 172 919 133 919 q 233 883 207 919 q 257 810 257 849 q 256 797 257 803 q 311 783 279 783 q 346 798 338 783 q 342 797 344 797 q 328 815 328 797 q 350 834 328 834 q 376 796 376 834 z "},"+":{"ha":530,"x_min":20,"x_max":479,"o":"m 479 347 q 457 339 479 335 q 295 354 381 355 l 296 343 q 317 189 302 252 q 317 175 319 178 q 303 174 313 171 q 225 199 271 182 q 214 227 217 205 q 203 352 210 253 q 103 343 154 349 q 73 349 82 341 q 28 411 58 372 q 20 428 20 423 q 41 437 20 435 q 199 450 109 446 q 208 623 200 549 q 210 640 209 639 q 225 642 212 646 q 292 620 254 632 q 299 591 301 616 q 294 489 295 540 q 294 450 294 471 q 401 441 362 446 q 429 431 412 441 q 458 389 439 420 q 479 347 479 354 z "},",":{"ha":231,"x_min":21,"x_max":178,"o":"m 176 68 q 170 42 178 57 q 142 15 164 31 l 73 -36 q 54 -40 58 -47 q 55 -19 46 -27 l 71 -3 q 75 17 81 5 l 34 95 q 48 138 21 120 l 130 194 q 149 191 140 201 q 143 176 154 186 l 131 165 q 166 92 146 134 q 176 68 170 84 z "},"-":{"ha":425,"x_min":41,"x_max":367,"o":"m 365 342 q 367 336 367 340 q 351 331 367 325 q 254 349 315 344 q 98 335 187 353 q 80 342 85 332 q 47 412 60 382 q 42 429 41 427 q 56 436 43 433 q 203 455 123 453 q 287 448 252 456 q 304 437 296 446 q 365 342 330 396 z "},"‐":{"ha":425,"x_min":41,"x_max":367,"o":"m 365 342 q 367 336 367 340 q 351 331 367 325 q 254 349 315 344 q 98 335 187 353 q 80 342 85 332 q 47 412 60 382 q 42 429 41 427 q 56 436 43 433 q 203 455 123 453 q 287 448 252 456 q 304 437 296 446 q 365 342 330 396 z "},".":{"ha":227,"x_min":7,"x_max":198,"o":"m 196 151 q 191 135 198 141 l 130 89 q 98 71 105 71 q 78 79 84 70 q 64 104 73 87 q 51 131 60 113 q 39 134 47 137 l 24 128 q 14 133 18 126 q 16 151 7 144 l 28 158 q 75 191 44 170 q 117 220 92 203 q 140 213 132 229 q 151 189 144 205 q 164 161 156 178 q 178 151 171 146 l 188 158 q 196 151 194 162 z "},"/":{"ha":920,"x_min":48,"x_max":823,"o":"m 817 904 q 813 881 823 903 q 793 870 810 873 q 751 844 772 867 q 646 679 715 806 q 547 492 596 585 q 396 210 540 479 q 330 86 368 157 q 320 46 320 63 q 332 27 320 28 l 349 26 q 360 12 361 26 q 353 -5 359 -1 q 297 -7 332 -5 q 205 -7 267 -7 q 107 -4 192 -7 q 56 -1 87 -3 q 58 23 48 1 q 79 34 62 31 q 120 60 99 37 q 245 267 145 85 q 382 532 312 385 q 534 818 437 628 q 545 858 545 841 q 532 877 545 876 l 517 878 q 505 892 505 878 q 511 909 506 904 q 568 911 533 909 q 666 911 602 911 q 764 908 680 911 q 817 904 785 907 z "},":":{"ha":257,"x_min":21,"x_max":212,"o":"m 210 401 q 204 386 212 392 l 143 340 q 111 321 119 321 q 92 330 98 321 q 78 355 86 338 q 64 382 73 363 q 52 385 61 388 l 37 379 q 27 384 31 377 q 30 401 21 395 l 41 409 q 89 442 58 420 q 131 471 106 454 q 153 464 145 480 q 164 439 157 456 q 178 412 170 429 q 192 402 184 397 l 201 409 q 210 401 208 413 m 210 137 q 204 121 212 127 l 143 75 q 111 57 119 57 q 92 65 98 56 q 78 90 86 74 q 64 117 73 99 q 52 120 61 123 l 37 115 q 27 119 31 113 q 30 137 21 130 l 41 144 q 89 178 58 156 q 131 207 106 189 q 153 199 145 216 q 164 175 157 191 q 178 147 170 165 q 192 138 184 133 l 201 144 q 210 137 208 149 z "},";":{"ha":243,"x_min":21,"x_max":212,"o":"m 210 401 q 204 386 212 392 l 143 340 q 111 321 119 321 q 92 330 98 321 q 78 355 86 338 q 64 382 73 363 q 52 385 61 388 l 37 379 q 27 384 31 377 q 30 401 21 395 l 41 409 q 89 442 58 420 q 131 471 106 454 q 153 464 145 480 q 164 439 157 456 q 178 412 170 429 q 192 402 184 397 l 201 409 q 210 401 208 413 m 202 75 q 196 49 204 64 q 168 22 190 38 l 99 -29 q 79 -33 83 -41 q 81 -12 72 -20 l 97 3 q 100 24 106 12 l 60 102 q 74 145 47 127 l 156 201 q 175 198 166 208 q 168 182 180 193 l 156 172 q 192 99 172 140 q 202 75 196 91 z "},"<":{"ha":2466,"x_min":-306,"x_max":2382,"o":"m 2382 307 q 2332 120 2358 233 q 2287 -69 2309 25 q 2237 -439 2247 -233 q 1720 -570 2090 -512 q 1454 -594 1563 -594 q 1392 -577 1419 -594 q 1360 -524 1360 -557 q 1391 -453 1360 -496 q 1554 -224 1446 -380 q 1525 -224 1541 -224 q 1496 -224 1516 -224 q 1468 -224 1477 -224 q 1409 -165 1409 -224 q 1440 -83 1409 -146 q 1482 0 1461 -42 q 1437 -2 1461 -2 q 1284 16 1350 -2 l 1342 -39 q 1365 -85 1367 -62 q 1337 -136 1363 -111 q 1280 -162 1308 -163 q 1242 -143 1259 -160 l 1099 -1 q 1013 -21 1053 -21 q 917 28 955 -21 q 905 28 911 28 q 873 32 889 28 q 730 149 851 39 q 515 291 515 156 q 580 384 515 358 q 577 416 576 400 q 610 494 578 463 l -292 1402 q -305 1430 -306 1417 q -286 1446 -304 1447 q -263 1434 -275 1445 l 298 918 q 294 943 294 932 q 334 988 294 988 q 383 980 348 988 q 661 928 503 954 q 741 903 692 923 q 820 871 810 875 q 1097 808 945 829 q 1251 735 1141 802 q 1457 613 1419 633 q 1648 482 1554 562 q 1718 553 1670 525 q 1816 582 1767 582 q 2106 471 1886 582 q 2382 307 2316 366 m 1814 507 q 1793 534 1814 534 q 1678 454 1758 534 q 1697 433 1685 446 q 1736 456 1721 456 q 1749 428 1749 456 q 1710 222 1749 355 q 1619 6 1674 101 q 1544 -77 1570 -77 q 1537 -73 1537 -77 q 1581 25 1537 -73 l 1573 27 q 1520 9 1552 16 q 1466 -123 1497 -60 q 1458 -149 1458 -139 q 1479 -164 1458 -164 q 1592 -110 1529 -164 q 1756 178 1683 -32 q 1814 507 1814 347 m 1907 384 q 1824 549 1907 546 q 1879 427 1879 520 q 1712 -226 1879 87 q 1618 -223 1681 -224 q 1468 -437 1529 -359 q 1431 -505 1431 -486 q 1453 -520 1431 -520 q 1534 -486 1483 -520 q 1802 -91 1687 -382 q 1907 384 1907 176 m 1667 315 l 1600 335 l 1667 328 l 1598 351 l 1665 345 l 1594 363 l 1659 359 l 1588 380 l 1655 376 l 1579 395 l 1649 392 l 1571 410 l 1640 410 l 1565 422 l 1629 424 l 1559 434 l 1624 438 l 1550 444 l 1615 453 l 1542 454 l 1605 466 l 1535 465 l 1590 479 l 1527 475 l 1581 491 l 1519 484 l 1568 503 l 1510 494 l 1555 515 l 1499 504 l 1542 524 l 1489 514 l 1529 532 l 1475 524 l 1517 543 l 1464 534 l 1503 551 l 1454 545 l 1489 562 l 1444 554 l 1477 570 l 1433 563 l 1464 578 l 1423 572 l 1451 587 l 1413 579 l 1438 595 l 1403 587 l 1430 605 l 1391 595 l 1417 612 l 1378 604 l 1403 620 l 1364 615 l 1383 632 l 1341 621 l 1364 638 l 1324 631 l 1345 646 l 1303 638 l 1326 654 l 1281 648 l 1310 661 l 1266 657 l 1295 668 l 1255 667 l 1277 677 l 1239 678 l 1260 684 l 1222 693 l 1245 694 l 1226 705 q 1153 754 1173 743 q 1084 783 1116 777 q 811 850 886 827 q 656 907 758 875 q 488 941 586 918 q 424 897 459 897 q 368 911 391 897 q 322 940 345 925 l 321 935 q 338 903 329 915 l 332 876 l 351 892 l 349 863 l 364 883 l 364 850 l 379 873 l 382 841 l 394 863 l 396 832 l 410 858 l 412 825 l 425 854 l 426 818 l 440 850 l 442 813 l 453 847 l 454 810 l 469 846 l 469 806 l 484 844 l 481 803 l 498 840 l 494 800 l 513 839 l 508 795 l 531 838 l 523 791 l 546 834 l 537 788 l 566 832 l 551 785 l 580 832 l 566 785 l 589 821 l 576 769 l 603 808 l 588 759 l 618 801 l 601 751 l 630 793 l 616 742 l 644 789 l 631 732 l 657 783 l 644 725 l 677 782 l 664 725 l 696 779 l 682 719 l 716 776 l 700 719 l 737 772 l 720 713 l 755 767 l 734 705 l 774 767 l 749 702 l 789 767 l 760 692 l 795 755 l 774 682 l 804 743 l 783 673 l 814 734 l 793 668 l 829 725 l 804 661 l 838 719 l 816 656 l 850 715 l 825 652 l 863 705 l 835 645 l 880 699 l 852 637 l 896 693 l 869 633 l 911 686 l 884 628 l 926 684 l 901 622 l 941 681 l 916 614 l 955 676 l 935 607 l 970 673 l 951 605 l 987 673 l 964 596 l 996 655 l 974 581 l 1006 637 l 987 564 l 1022 623 l 998 551 l 1034 612 l 1008 543 l 1050 602 l 1026 546 l 1065 592 l 1051 559 l 1088 581 l 1041 542 l 1109 572 l 1021 520 l 1112 551 l 1008 502 l 1113 534 l 998 487 l 1098 513 l 992 473 l 1087 499 l 989 460 l 1079 486 l 987 448 l 1073 475 l 984 433 l 1067 458 l 982 420 l 1063 446 l 981 403 l 1060 431 l 982 385 l 1057 418 l 983 370 l 1057 407 l 1006 372 l 1058 392 l 1023 371 q 1124 384 1059 377 q 1152 376 1152 385 q 1118 365 1152 370 q 1076 357 1097 361 l 1079 348 l 1050 354 l 1060 341 l 1034 351 l 1040 332 l 1019 349 l 1021 328 l 1008 347 l 1007 324 l 995 346 l 994 321 l 983 345 l 981 321 l 971 345 l 968 319 l 962 345 l 956 318 l 950 346 l 940 320 l 937 347 l 920 324 l 926 349 l 903 330 l 914 349 l 887 334 l 896 349 l 869 339 l 872 351 q 671 373 727 373 q 538 283 538 373 q 685 177 538 195 q 899 167 792 172 l 922 163 l 934 172 l 948 163 l 951 170 l 962 159 l 964 172 l 975 159 l 980 174 l 989 157 l 995 177 l 1003 157 l 1010 178 l 1017 153 l 1024 179 l 1028 152 l 1040 182 l 1040 151 l 1055 184 l 1053 148 l 1069 182 l 1067 143 l 1087 183 l 1080 139 l 1103 183 l 1095 135 l 1119 182 l 1107 130 l 1134 182 l 1120 124 l 1152 178 l 1133 120 l 1165 172 l 1145 112 l 1179 172 l 1158 104 l 1192 166 l 1171 96 l 1206 159 l 1184 91 l 1220 152 l 1199 83 l 1233 146 l 1211 75 l 1244 140 l 1227 68 l 1258 136 l 1238 63 l 1272 130 l 1252 57 l 1284 125 l 1266 50 l 1296 121 l 1280 46 l 1308 117 l 1295 41 l 1320 113 l 1308 37 l 1332 110 l 1323 33 l 1346 106 l 1337 30 l 1359 104 l 1354 28 l 1371 100 l 1369 26 l 1381 99 l 1385 26 l 1394 97 l 1401 26 l 1409 96 l 1417 25 l 1420 95 l 1431 26 l 1432 94 l 1446 28 l 1444 96 l 1463 28 l 1456 97 l 1477 31 l 1468 99 l 1490 35 l 1479 100 l 1506 38 l 1489 106 l 1520 45 l 1499 111 l 1533 52 l 1508 118 l 1546 60 l 1517 123 l 1559 70 l 1525 131 l 1571 83 l 1533 139 l 1584 92 l 1540 148 l 1595 105 l 1548 157 l 1605 117 l 1554 165 l 1613 132 l 1560 174 l 1621 145 l 1568 184 l 1628 156 l 1573 197 l 1633 170 l 1577 207 l 1638 182 l 1581 219 l 1645 196 l 1585 231 l 1651 210 l 1588 241 l 1653 223 l 1592 252 l 1657 235 l 1595 262 l 1660 248 l 1598 274 l 1664 260 l 1600 285 l 1664 274 l 1602 296 l 1666 288 l 1602 310 l 1666 300 l 1602 321 l 1667 315 m 968 554 l 907 581 l 952 578 q 910 594 942 581 q 863 610 892 600 q 823 628 849 615 q 701 550 759 596 l 862 402 l 798 481 l 873 414 l 812 490 l 889 422 l 825 498 l 904 432 l 833 507 l 918 444 l 844 517 l 928 459 l 850 526 l 937 478 l 857 537 l 947 496 l 864 549 l 957 517 l 868 562 l 966 534 l 885 572 l 968 554 m 454 939 l 414 954 q 342 969 389 958 q 372 926 343 941 q 427 913 398 912 l 429 914 l 396 928 l 442 918 l 399 934 l 449 926 l 401 941 l 454 933 l 404 949 l 454 939 m 802 641 q 743 676 767 650 q 554 766 617 697 q 448 787 500 773 l 448 781 l 684 566 q 802 641 740 608 m 705 397 l 627 477 q 609 444 615 465 q 604 410 604 428 q 606 392 604 400 q 705 397 649 401 m 1084 15 l 1040 62 l 1058 26 l 1019 51 l 1042 22 l 998 43 l 1022 18 l 981 34 l 1001 19 l 956 28 l 949 26 q 981 8 965 17 q 1017 -1 997 -1 q 1084 15 1041 -1 m 1032 68 l 993 106 l 981 78 l 970 130 l 968 75 l 951 138 l 956 71 l 927 146 l 943 68 l 899 147 l 927 65 l 871 149 l 907 66 l 846 147 l 884 68 l 814 150 l 869 64 l 789 150 l 760 151 q 876 48 808 103 q 924 42 895 42 q 1032 68 977 42 m 886 252 q 867 199 886 220 q 876 251 871 215 q 874 307 876 258 q 886 252 886 282 m 871 260 q 851 197 871 222 q 861 259 855 216 q 859 325 861 266 q 871 260 871 296 m 760 283 q 739 224 760 240 q 677 210 721 210 q 562 288 562 210 q 647 349 562 349 q 760 283 760 349 m 733 290 l 644 311 l 726 303 l 639 325 l 723 316 q 644 333 652 333 q 583 287 583 333 q 690 227 583 227 q 709 231 699 229 l 644 245 l 722 239 l 652 260 l 728 250 l 653 273 l 732 262 l 650 286 l 732 276 l 649 298 l 733 290 z "},"=":{"ha":536,"x_min":27,"x_max":480,"o":"m 444 410 q 446 404 446 408 q 426 399 446 393 q 300 416 380 412 q 100 403 214 421 q 76 410 83 400 q 34 480 50 450 q 27 496 27 494 q 45 504 27 500 q 235 523 132 521 q 342 516 298 524 q 365 505 355 514 q 444 410 398 464 m 477 241 q 480 235 480 238 q 460 229 480 223 q 334 247 414 242 q 134 233 248 252 q 110 240 117 231 q 68 311 84 281 q 61 327 61 324 q 79 334 61 331 q 269 353 165 351 q 376 347 332 355 q 399 335 389 345 q 477 241 432 294 z "},">":{"ha":2772,"x_min":0,"x_max":2688,"o":"m 2688 1430 q 2675 1402 2688 1417 l 1773 494 q 1805 416 1804 463 q 1803 384 1806 400 q 1867 291 1867 358 q 1652 149 1867 156 q 1578 81 1615 115 q 1508 32 1529 38 q 1477 28 1493 28 q 1466 28 1472 28 q 1369 -21 1428 -21 q 1283 -1 1329 -21 l 1141 -143 q 1101 -162 1123 -160 q 1046 -137 1074 -163 q 1017 -85 1019 -111 q 1040 -39 1016 -62 l 1099 16 q 945 -2 1033 -2 q 901 0 922 -2 q 943 -83 922 -42 q 973 -165 973 -146 q 915 -224 973 -224 q 886 -224 905 -224 q 857 -224 867 -224 q 829 -224 841 -224 q 991 -453 882 -298 q 1022 -524 1022 -496 q 991 -577 1022 -557 q 928 -594 964 -594 q 663 -570 820 -594 q 145 -439 292 -512 q 95 -69 136 -233 q 0 307 68 58 q 276 471 66 366 q 566 582 496 582 q 664 553 615 582 q 734 482 713 525 q 925 613 828 562 q 1131 735 964 633 q 1286 808 1241 802 q 1563 871 1437 829 q 1722 928 1615 895 q 1999 980 1879 954 q 2048 988 2035 988 q 2088 943 2088 988 q 2084 918 2088 932 l 2646 1434 q 2669 1446 2657 1445 q 2688 1430 2686 1447 m 2040 969 q 1969 954 2015 965 q 1928 939 1969 954 l 1978 949 l 1929 933 l 1982 941 l 1933 926 l 1983 934 l 1940 918 l 1986 928 l 1953 914 l 1956 913 q 2009 926 1984 912 q 2040 969 2039 941 m 1934 787 q 1828 766 1883 773 q 1639 676 1765 697 q 1579 641 1615 650 q 1699 566 1642 608 l 1934 781 l 1934 787 m 1779 410 q 1773 444 1779 428 q 1756 477 1767 465 l 1678 397 q 1776 392 1733 401 q 1779 410 1778 400 m 1681 550 q 1560 628 1623 596 q 1519 610 1550 621 q 1472 594 1499 604 q 1430 578 1459 589 l 1475 581 l 1414 554 l 1497 572 l 1416 534 l 1514 562 l 1426 517 l 1518 549 l 1435 496 l 1525 537 l 1446 478 l 1532 526 l 1454 459 l 1539 517 l 1464 444 l 1550 507 l 1478 432 l 1558 498 l 1493 422 l 1571 490 l 1510 414 l 1584 481 l 1520 402 l 1681 550 m 2061 935 l 2060 940 q 2014 911 2037 925 q 1959 897 1991 897 q 1894 941 1923 897 q 1726 907 1796 918 q 1649 882 1697 903 q 1571 850 1588 855 q 1298 783 1497 827 q 1156 705 1254 774 l 1137 694 l 1160 693 l 1122 684 l 1143 678 l 1105 677 l 1127 667 l 1087 668 l 1116 657 l 1073 661 l 1101 648 l 1056 654 l 1080 638 l 1038 646 l 1059 631 l 1018 638 l 1041 621 l 999 632 l 1019 615 l 979 620 l 1004 604 l 965 612 l 991 595 l 953 605 l 979 587 l 944 595 l 970 579 l 931 587 l 960 572 l 918 578 l 949 563 l 905 570 l 939 554 l 894 562 l 928 545 l 879 551 l 918 534 l 865 543 l 907 524 l 852 532 l 894 514 l 840 524 l 884 504 l 827 515 l 872 494 l 814 503 l 863 484 l 802 491 l 855 475 l 792 479 l 847 465 l 777 466 l 840 454 l 767 453 l 832 444 l 758 438 l 823 434 l 753 424 l 818 422 l 743 410 l 812 410 l 734 392 l 803 395 l 728 376 l 795 380 l 723 359 l 789 363 l 718 345 l 785 351 l 715 328 l 782 335 l 715 315 l 781 321 l 716 300 l 781 310 l 716 288 l 781 296 l 718 274 l 782 285 l 719 260 l 784 274 l 722 248 l 787 262 l 725 235 l 791 252 l 729 223 l 794 241 l 732 210 l 797 231 l 737 196 l 802 219 l 743 182 l 806 207 l 749 170 l 810 197 l 755 156 l 814 184 l 762 145 l 822 174 l 770 132 l 828 165 l 778 117 l 835 157 l 787 105 l 842 148 l 799 92 l 850 139 l 812 83 l 857 131 l 823 70 l 865 123 l 836 60 l 875 118 l 848 52 l 883 111 l 863 45 l 894 106 l 877 38 l 903 100 l 892 35 l 915 99 l 905 31 l 926 97 l 920 28 l 939 96 l 937 28 l 950 94 l 951 26 l 962 95 l 966 25 l 974 96 l 981 26 l 988 97 l 996 26 l 1001 99 l 1013 26 l 1011 100 l 1029 28 l 1023 104 l 1045 30 l 1036 106 l 1059 33 l 1050 110 l 1074 37 l 1063 113 l 1088 41 l 1074 117 l 1102 46 l 1086 121 l 1116 50 l 1099 125 l 1131 57 l 1110 130 l 1144 63 l 1124 136 l 1156 68 l 1138 140 l 1171 75 l 1149 146 l 1183 83 l 1162 152 l 1198 91 l 1177 159 l 1211 96 l 1191 166 l 1224 104 l 1203 172 l 1237 112 l 1217 172 l 1250 120 l 1231 178 l 1263 124 l 1249 182 l 1275 130 l 1263 182 l 1288 135 l 1279 183 l 1301 139 l 1295 183 l 1316 143 l 1313 182 l 1330 148 l 1328 184 l 1342 151 l 1342 182 l 1354 152 l 1358 179 l 1365 153 l 1372 178 l 1379 157 l 1388 177 l 1394 157 l 1402 174 l 1407 159 l 1418 172 l 1421 159 l 1432 170 l 1434 163 l 1449 172 l 1460 163 l 1484 167 q 1697 177 1590 172 q 1843 283 1843 195 q 1711 373 1843 373 q 1510 351 1655 373 l 1513 339 l 1487 349 l 1495 334 l 1468 349 l 1480 330 l 1456 349 l 1462 324 l 1445 347 l 1442 320 l 1432 346 l 1426 318 l 1421 345 l 1414 319 l 1411 345 l 1401 321 l 1400 345 l 1388 321 l 1388 346 l 1375 324 l 1375 347 l 1361 328 l 1362 349 l 1343 332 l 1348 351 l 1322 341 l 1333 354 l 1303 348 l 1306 357 q 1263 365 1285 361 q 1230 376 1230 370 q 1257 384 1230 385 q 1359 371 1284 380 l 1324 392 l 1377 372 l 1326 407 l 1399 370 l 1326 418 l 1400 385 l 1322 431 l 1401 403 l 1319 446 l 1400 420 l 1315 458 l 1398 433 l 1310 475 l 1396 448 l 1303 486 l 1394 460 l 1295 499 l 1390 473 l 1284 513 l 1385 487 l 1270 534 l 1375 502 l 1270 551 l 1362 520 l 1273 572 l 1341 542 l 1295 581 l 1331 559 l 1317 592 l 1356 546 l 1333 602 l 1374 543 l 1348 612 l 1385 551 l 1360 623 l 1396 564 l 1377 637 l 1409 581 l 1387 655 l 1419 596 l 1395 673 l 1432 605 l 1412 673 l 1448 607 l 1428 676 l 1466 614 l 1442 681 l 1482 622 l 1456 684 l 1497 628 l 1471 686 l 1513 633 l 1487 693 l 1530 637 l 1503 699 l 1547 645 l 1519 705 l 1558 652 l 1532 715 l 1567 656 l 1544 719 l 1579 661 l 1553 725 l 1590 668 l 1569 734 l 1600 673 l 1579 743 l 1609 682 l 1588 755 l 1622 692 l 1594 767 l 1633 702 l 1609 767 l 1648 705 l 1627 767 l 1662 713 l 1645 772 l 1683 719 l 1666 776 l 1701 719 l 1686 779 l 1718 725 l 1705 782 l 1738 725 l 1725 783 l 1752 732 l 1739 789 l 1766 742 l 1752 793 l 1782 751 l 1765 801 l 1794 759 l 1780 808 l 1807 769 l 1792 821 l 1816 785 l 1803 832 l 1831 785 l 1817 832 l 1845 788 l 1836 834 l 1860 791 l 1851 838 l 1874 795 l 1869 839 l 1889 800 l 1885 840 l 1901 803 l 1898 844 l 1913 806 l 1914 846 l 1928 810 l 1929 847 l 1940 813 l 1942 850 l 1957 818 l 1958 854 l 1971 825 l 1972 858 l 1986 832 l 1988 863 l 2001 841 l 2003 873 l 2018 850 l 2018 883 l 2034 863 l 2031 892 l 2050 876 l 2044 903 q 2061 935 2053 915 m 1622 151 l 1594 150 l 1513 64 l 1568 150 l 1497 68 l 1537 147 l 1476 66 l 1511 149 l 1455 65 l 1484 147 l 1439 68 l 1455 146 l 1426 71 l 1431 138 l 1415 75 l 1412 130 l 1402 78 l 1390 106 l 1350 68 q 1459 42 1406 42 q 1506 48 1487 42 q 1563 95 1518 52 q 1622 151 1617 147 m 1433 26 l 1427 28 l 1381 19 l 1401 34 l 1360 18 l 1384 43 l 1341 22 l 1364 51 l 1324 26 l 1343 62 l 1299 15 q 1365 -1 1341 -1 q 1401 8 1385 -1 q 1433 26 1417 17 m 924 -149 q 916 -123 924 -139 q 862 9 885 -60 q 810 27 831 16 l 802 25 q 846 -73 846 -73 q 839 -77 846 -77 q 764 6 812 -77 q 673 222 709 101 q 633 428 633 355 q 646 456 633 456 q 685 433 661 456 q 704 454 687 435 q 589 534 625 534 q 568 507 568 534 q 627 178 568 347 q 790 -110 699 -32 q 903 -164 853 -164 q 924 -149 924 -164 m 951 -505 q 914 -437 951 -486 q 764 -223 853 -359 q 671 -226 733 -224 q 503 427 503 87 q 559 549 503 520 q 475 384 475 546 q 581 -91 475 176 q 848 -486 696 -382 q 930 -520 899 -520 q 951 -505 951 -520 m 1820 288 q 1705 210 1820 210 q 1644 224 1662 210 q 1623 283 1623 240 q 1735 349 1623 349 q 1820 288 1820 349 m 1531 197 q 1512 260 1512 222 q 1523 325 1512 296 q 1522 259 1522 266 q 1531 197 1523 239 m 1516 199 q 1497 252 1497 220 q 1508 307 1497 282 q 1507 251 1506 256 q 1516 199 1508 233 m 1800 287 q 1739 333 1800 333 q 1659 316 1730 333 l 1744 325 l 1655 303 l 1738 311 l 1649 290 l 1733 298 l 1651 276 l 1732 286 l 1650 262 l 1729 273 l 1654 250 l 1730 260 l 1660 239 l 1738 245 l 1673 231 q 1692 227 1682 229 q 1800 287 1800 227 z "},"?":{"ha":439,"x_min":-7,"x_max":391,"o":"m 391 641 q 277 387 391 498 q 216 330 237 347 q 195 288 195 312 q 199 256 195 271 q 193 231 205 239 q 111 174 136 190 q 98 182 105 171 q 87 227 87 200 q 124 325 87 264 q 193 439 185 422 q 231 594 231 516 q 123 714 231 714 q 75 699 102 714 q 22 646 41 680 q 8 638 16 635 l 0 642 q 0 659 -7 644 q 66 808 35 732 l 100 891 l 129 883 q 124 864 127 878 q 147 865 135 865 q 302 822 237 865 q 391 641 391 763 m 286 130 q 280 115 288 121 l 219 68 q 188 50 195 50 q 169 58 174 50 q 154 83 163 67 q 140 111 150 92 q 128 113 138 117 l 114 108 q 104 113 108 106 q 106 130 98 123 l 117 138 q 165 171 134 149 q 208 200 182 182 q 229 193 221 209 q 241 168 233 184 q 254 140 245 158 q 269 131 261 126 l 278 138 q 286 130 283 142 z "},"@":{"ha":876,"x_min":14,"x_max":834,"o":"m 834 335 q 826 267 834 294 q 755 191 819 241 q 720 176 738 176 q 527 164 630 170 q 500 165 517 163 q 480 179 495 168 q 462 197 471 187 q 431 182 451 192 q 404 170 414 175 q 381 160 387 161 q 357 160 374 159 q 325 167 331 161 q 312 184 318 174 q 283 239 301 203 q 253 302 271 262 q 243 326 245 318 q 243 345 240 338 q 289 382 249 359 q 350 410 313 397 q 399 425 377 420 q 433 431 408 427 q 460 427 442 431 q 455 418 461 421 q 419 399 430 406 q 387 378 406 391 q 388 351 387 360 q 397 317 389 342 q 412 281 401 303 q 441 225 426 254 q 471 237 461 232 q 479 323 473 262 q 480 415 481 359 q 477 500 479 444 q 474 541 477 505 q 459 548 473 552 q 425 538 439 543 l 381 524 q 361 515 368 519 q 351 497 354 510 q 348 471 351 493 q 332 467 346 454 q 309 492 328 471 q 289 517 302 500 q 264 555 288 517 q 263 568 258 564 q 283 579 267 572 q 403 625 297 586 q 431 635 417 631 q 452 629 440 637 q 528 577 478 612 q 594 527 557 555 q 620 497 612 513 q 627 466 626 484 q 629 407 629 442 q 628 336 629 347 q 625 254 627 309 q 652 253 635 253 q 683 252 640 253 q 731 295 731 250 q 687 479 731 397 q 544 631 645 556 q 360 754 452 692 q 241 661 319 734 q 170 574 192 614 q 138 448 138 516 q 159 328 138 383 q 233 209 183 267 q 342 131 269 165 q 470 87 407 99 q 545 81 505 81 q 602 122 572 81 q 621 138 614 138 q 633 125 624 138 q 659 88 645 110 q 667 74 667 77 q 644 52 667 68 q 480 -5 567 -5 q 121 115 247 -6 q 15 382 17 216 q 66 551 14 467 q 241 727 118 633 q 460 859 319 787 l 479 840 q 452 817 467 827 q 695 662 600 758 q 834 335 834 522 z "},"A":{"ha":1057,"x_min":-4,"x_max":1029,"o":"m 1023 -105 q 1022 -129 1029 -127 q 970 -132 1014 -130 q 871 -133 885 -134 q 780 -132 836 -134 q 736 -126 762 -132 q 731 -113 732 -123 q 737 -98 730 -101 l 771 -82 q 780 -65 780 -79 q 772 -29 780 -53 q 727 95 758 9 q 686 211 713 134 q 653 154 675 190 q 604 91 635 132 q 549 35 585 66 q 532 32 537 25 q 465 129 512 60 q 332 224 408 215 q 216 17 290 139 q 280 -5 248 9 q 317 -20 298 -12 q 348 -24 327 -24 q 371 -1 357 -24 q 382 3 377 9 q 392 -7 386 0 q 391 -20 395 -12 q 314 -122 345 -94 q 245 -150 282 -150 q 163 -134 218 -150 q 60 -91 121 -115 q 23 -104 38 -85 q 9 -109 15 -114 q 0 -90 -4 -98 q 58 1 31 -23 q 138 28 88 28 q 173 26 153 28 q 279 221 231 122 q 222 194 245 214 q 180 129 200 175 q 168 110 172 110 q 159 116 164 110 q 91 197 134 147 q 105 199 98 199 q 132 190 118 199 q 153 178 151 178 q 289 302 193 276 q 319 305 301 304 q 402 507 361 401 q 343 528 372 511 q 293 581 314 545 q 271 651 271 616 q 294 696 271 685 q 334 676 323 709 q 319 627 347 640 q 334 606 320 610 q 355 608 345 603 q 416 723 395 627 q 431 794 418 754 q 460 792 435 797 q 444 819 448 808 l 461 832 q 553 770 491 804 q 614 739 583 754 q 675 677 654 713 q 705 614 694 648 l 774 398 q 866 132 823 245 q 896 52 881 92 q 942 -37 921 -10 q 991 -79 958 -59 q 1023 -105 1020 -96 m 667 269 q 517 661 589 491 q 477 549 515 594 l 410 394 q 369 302 387 341 q 409 294 392 299 q 540 178 471 273 q 568 214 551 189 q 593 262 578 229 q 608 270 597 270 q 667 269 648 271 z "},"B":{"ha":640,"x_min":0,"x_max":606,"o":"m 602 241 q 427 -76 606 28 q 329 -132 378 -104 q 239 -214 279 -165 q 208 -136 223 -175 q 130 -12 180 -67 q 61 59 96 23 q 22 130 31 94 q 19 159 19 145 q 58 245 19 216 q 89 162 55 201 q 157 117 106 142 q 235 71 214 90 q 330 -65 299 16 q 429 113 420 26 q 429 130 429 121 q 395 304 429 218 q 351 337 381 339 q 317 328 336 336 q 289 316 292 317 q 250 386 277 337 q 352 491 301 439 q 406 626 411 562 q 377 660 405 637 q 336 682 350 682 q 332 681 333 682 q 286 646 321 675 q 239 600 252 616 q 238 425 238 570 q 237 318 238 395 q 236 233 236 242 q 281 123 236 158 q 291 110 291 115 q 274 100 291 104 q 237 107 256 96 l 127 169 q 91 232 89 191 q 90 287 90 223 q 90 373 90 325 q 88 490 89 421 q 85 624 87 549 q 70 636 84 639 l 14 625 q 0 636 0 623 q 10 648 0 642 q 120 721 40 666 q 216 792 157 747 q 233 809 222 798 q 246 814 239 814 q 252 800 254 812 q 241 682 249 766 q 342 772 282 726 q 378 781 360 785 q 453 753 406 774 q 516 722 473 745 q 543 633 543 705 q 472 486 541 558 q 367 401 446 459 q 499 437 438 431 q 567 375 534 441 q 602 241 601 309 z "},"C":{"ha":555,"x_min":0,"x_max":539,"o":"m 532 462 q 405 370 512 437 q 381 361 390 361 q 359 393 369 361 q 312 533 351 418 q 272 644 295 579 q 243 718 262 673 q 226 721 238 732 q 214 704 219 714 q 200 647 206 688 q 191 546 194 606 q 187 390 190 538 q 186 300 187 360 q 187 146 185 218 q 191 11 187 100 q 201 -22 193 -6 q 233 -61 209 -39 q 267 -89 250 -76 q 288 -85 281 -99 q 302 -48 291 -80 q 329 29 312 -20 q 362 153 333 43 q 369 169 366 169 q 372 167 371 169 q 391 140 377 161 q 426 78 403 122 q 467 3 456 20 q 473 -19 477 -12 q 429 -84 459 -39 q 393 -130 408 -115 q 342 -146 377 -144 q 278 -149 315 -147 q 235 -150 251 -151 q 193 -146 212 -149 q 149 -116 180 -144 q 92 -64 128 -99 q 43 -5 77 -45 q 13 34 35 7 q 4 66 8 39 q 0 132 0 94 q 2 195 0 151 q 3 260 4 237 q 4 360 5 288 q 7 507 3 410 q 11 574 6 517 q 15 597 14 593 q 26 610 16 601 q 117 701 56 641 q 201 776 145 726 q 231 793 220 792 q 260 790 251 793 q 339 747 287 775 q 415 703 366 734 q 431 680 427 694 q 467 576 439 654 q 493 499 475 553 q 505 480 499 480 q 525 493 511 480 q 532 462 539 471 z "},"D":{"ha":932,"x_min":-1,"x_max":892,"o":"m 892 316 q 782 43 892 171 q 561 -115 676 -81 q 530 -111 547 -119 q 367 -27 449 -69 q 176 26 248 27 q 128 14 153 26 q 67 -58 77 -11 q 80 -83 62 -80 q 177 -48 121 -67 q 193 -50 191 -45 q 195 -62 193 -50 q 204 -124 199 -87 q 205 -140 206 -139 q 193 -147 205 -146 q 16 -134 66 -161 q 0 -106 1 -126 q 7 -60 -1 -90 q 48 28 21 -11 q 212 141 111 118 q 268 147 239 147 q 423 108 336 146 q 610 22 484 77 q 652 22 633 13 q 741 97 691 41 q 784 157 762 121 q 809 226 813 205 q 677 454 783 348 q 626 500 671 460 q 606 520 606 519 q 652 549 606 532 q 549 562 602 541 q 458 612 540 566 q 354 650 420 633 q 243 667 287 667 q 134 589 134 667 q 145 560 134 563 q 213 553 172 557 q 216 540 221 553 q 185 455 205 507 q 178 447 181 446 q 167 454 172 450 q 81 577 83 496 q 180 747 79 694 q 373 786 254 786 q 712 667 557 786 q 892 316 892 530 m 401 606 q 393 578 393 593 q 387 273 391 453 q 359 233 386 254 q 318 203 345 223 q 273 168 282 171 q 254 180 252 160 q 274 334 261 227 q 291 504 291 473 q 269 546 291 534 l 254 554 q 242 566 242 560 q 250 577 242 574 q 279 585 257 579 q 320 595 290 587 q 358 607 332 600 q 393 620 372 612 q 402 620 398 621 q 404 612 406 618 q 401 606 404 610 z "},"E":{"ha":657,"x_min":-6,"x_max":624,"o":"m 623 708 q 575 607 624 647 q 428 566 527 568 q 218 650 286 564 l 215 601 q 213 475 214 557 q 211 346 211 407 q 324 394 245 371 q 406 410 371 408 q 427 402 416 410 q 509 328 462 370 q 513 321 513 323 q 499 312 513 311 q 401 304 461 315 q 254 251 335 292 q 235 253 241 245 q 212 279 225 261 q 211 235 212 260 q 211 205 210 216 q 214 62 210 159 q 334 84 256 82 q 592 11 481 87 q 614 -13 614 -5 q 610 -25 614 -18 q 574 -72 601 -40 q 530 -125 561 -89 q 600 -117 572 -113 q 610 -129 614 -119 q 587 -173 595 -159 q 558 -176 582 -180 q 429 -138 473 -162 q 425 -115 412 -129 q 500 -50 454 -91 q 511 -39 510 -41 q 500 -29 511 -35 q 434 -17 478 -16 q 235 -75 341 -18 q 134 -149 190 -100 q 102 -148 119 -161 q 7 -70 75 -125 q 0 -53 -6 -60 q 16 -52 7 -43 l 22 -56 q 43 -46 30 -63 q 80 -5 55 -32 q 144 33 113 26 q 98 57 117 39 q 91 96 90 66 q 90 204 90 139 q 90 385 92 329 q 87 536 88 435 q 87 565 87 558 q 85 591 86 571 q 73 603 85 606 l 25 593 q 14 604 14 591 q 23 615 14 609 q 115 686 47 632 q 194 755 174 734 q 250 824 217 780 l 274 810 q 259 770 269 786 q 300 784 285 787 q 362 734 314 781 q 500 671 429 670 q 559 703 557 673 q 523 741 523 703 q 564 778 523 778 q 623 708 622 778 z "},"F":{"ha":665,"x_min":-1,"x_max":645,"o":"m 640 749 q 466 590 640 749 q 457 587 463 587 q 444 597 444 587 q 450 610 444 604 q 462 623 454 614 q 458 633 467 629 q 248 696 288 696 q 208 673 222 696 q 197 629 197 655 q 233 522 197 579 l 268 467 q 367 507 294 486 q 435 524 394 515 q 451 517 443 524 q 514 460 477 494 q 515 452 519 455 q 508 446 509 447 q 499 425 505 438 q 501 410 495 410 q 510 412 505 410 q 542 425 521 416 q 545 427 544 427 q 536 405 551 427 q 526 380 535 396 q 442 345 485 345 q 405 380 406 345 q 422 425 405 403 q 357 401 399 420 q 321 382 336 391 l 384 287 q 467 82 467 159 q 429 -9 467 48 q 341 -106 391 -62 q 279 -144 296 -144 q 247 -126 263 -144 q 189 -49 218 -87 q 112 1 149 1 q 44 -41 65 2 q 45 -60 37 -56 q 67 -53 54 -53 q 102 -86 102 -53 q 67 -119 102 -119 q 23 -101 45 -119 q 0 -66 1 -82 q 13 -33 -1 -58 q 161 76 75 76 q 248 33 209 76 q 292 -16 259 22 q 326 -45 302 -30 q 355 20 355 -47 q 284 190 355 86 l 128 418 q 79 557 79 489 q 127 666 79 623 q 228 751 172 705 q 353 855 274 790 l 373 840 q 355 808 366 830 q 374 816 365 816 q 392 807 382 816 q 410 793 406 795 q 554 752 492 752 q 621 768 597 752 q 633 772 627 772 q 645 760 645 772 q 640 749 645 753 z "},"G":{"ha":914,"x_min":0,"x_max":881,"o":"m 877 656 q 807 532 881 574 q 670 498 749 498 q 559 523 618 498 q 431 618 484 555 q 230 482 296 597 q 183 304 183 400 q 309 19 183 143 q 589 -90 426 -96 q 642 -74 627 -88 q 670 4 664 -53 q 675 165 675 45 q 663 287 675 251 q 591 342 645 342 q 525 321 555 342 q 492 267 492 299 q 524 232 492 232 q 543 255 543 232 q 541 270 543 262 q 562 277 549 277 q 606 257 585 277 q 627 206 627 235 q 557 125 627 132 q 568 65 569 90 q 473 -18 568 -18 q 408 8 433 -18 q 385 54 387 29 q 420 46 387 53 q 460 51 444 41 q 467 78 473 60 q 425 134 446 106 q 388 262 388 192 q 450 399 388 347 q 597 447 509 447 q 775 353 697 447 q 847 170 847 264 q 783 7 847 111 q 683 -120 727 -83 q 611 -160 644 -152 q 507 -172 566 -172 q 163 -65 309 -172 q 0 256 0 56 q 227 663 0 507 q 360 734 256 682 q 475 810 442 774 q 504 793 490 805 q 487 750 502 773 q 533 766 526 768 q 564 741 547 764 q 598 696 581 719 q 760 614 670 614 q 810 641 810 614 q 807 650 810 645 q 759 692 759 650 q 773 723 759 710 q 807 736 787 736 q 877 656 873 736 z "},"H":{"ha":716,"x_min":0,"x_max":767,"o":"m 767 429 q 690 394 710 404 q 631 381 664 394 q 604 371 622 378 l 604 170 q 603 78 604 140 l 602 -14 q 605 -90 602 -55 q 614 -124 607 -109 q 633 -150 621 -138 q 652 -161 641 -154 q 654 -180 656 -170 q 612 -171 634 -176 q 542 -161 559 -163 q 476 -159 511 -159 q 406 -160 425 -160 q 391 -144 404 -159 q 416 -129 402 -139 q 439 -105 430 -119 q 459 -15 452 -86 q 461 56 461 1 q 463 123 463 79 q 465 192 465 179 q 463 282 465 266 q 396 251 453 275 q 322 232 357 233 q 322 175 322 212 q 321 118 321 138 q 322 -34 321 6 q 332 -72 323 -63 q 357 -87 342 -81 q 366 -95 363 -90 q 367 -104 369 -100 q 359 -108 365 -109 q 323 -100 347 -104 q 268 -92 305 -96 q 149 -87 247 -90 q 98 -86 132 -87 q 93 -78 94 -86 q 100 -68 92 -72 q 113 -64 104 -67 q 145 -42 134 -54 q 159 -14 157 -30 q 163 74 162 20 q 165 166 165 164 q 164 220 164 203 q 85 257 118 236 q 28 310 52 278 q 0 370 4 342 q 58 389 14 380 q 99 395 80 393 q 110 387 106 393 q 84 371 100 379 q 43 348 58 357 q 79 316 56 330 q 136 286 109 297 q 164 273 145 281 l 161 437 q 159 534 161 456 q 157 633 157 595 q 155 675 157 659 q 150 695 153 687 q 139 708 146 703 q 117 720 133 713 q 111 730 110 724 q 123 737 113 737 q 175 736 140 736 q 231 736 217 736 q 284 738 233 736 q 338 741 302 738 q 349 734 346 741 q 346 722 353 728 q 327 709 340 720 q 318 685 319 701 q 317 624 316 663 l 321 296 q 349 302 333 296 q 406 332 375 312 q 461 371 417 338 q 460 473 461 420 l 459 568 q 457 643 459 582 q 453 730 455 702 q 447 752 452 745 q 431 766 441 760 q 423 779 420 772 q 432 783 425 785 q 548 777 486 774 q 609 780 571 777 q 633 783 610 780 q 642 779 640 784 q 642 772 644 775 q 629 753 637 764 q 608 693 612 723 q 604 617 604 672 l 604 508 q 604 420 604 441 q 680 431 643 431 q 720 432 714 432 q 767 429 736 432 z "},"I":{"ha":393,"x_min":-2,"x_max":366,"o":"m 356 -170 q 321 -162 344 -167 q 267 -155 303 -159 q 151 -150 246 -153 q 100 -149 133 -150 q 95 -141 96 -149 q 102 -132 94 -136 q 115 -127 106 -130 q 146 -106 136 -117 q 159 -79 157 -94 q 164 8 163 -45 q 165 83 165 52 q 165 243 165 216 q 163 378 166 264 l 159 569 q 158 599 159 574 q 157 629 157 622 q 139 668 157 669 q 102 646 118 667 q 87 603 90 630 q 92 578 85 590 q 115 531 102 559 q 109 519 122 517 q 12 539 45 531 q -1 545 1 542 q 0 566 -2 548 q 28 664 8 629 q 92 745 54 711 q 174 800 109 761 q 203 800 189 809 q 258 768 232 781 q 336 743 302 746 q 347 736 343 742 q 343 726 350 730 q 325 712 337 722 q 316 688 317 704 q 311 629 311 632 l 315 377 q 316 51 316 250 q 317 -98 316 -58 q 327 -136 317 -126 q 355 -150 334 -142 q 363 -158 360 -152 q 363 -168 366 -163 q 356 -170 362 -172 z "},"J":{"ha":755,"x_min":-4,"x_max":734,"o":"m 651 659 q 644 643 658 652 q 517 568 557 585 q 483 560 500 560 q 409 597 437 559 q 195 692 335 696 q 152 664 152 691 q 155 652 152 658 q 191 639 176 652 q 205 608 205 627 q 191 578 205 591 q 155 566 176 566 q 91 645 88 566 q 152 741 92 705 q 317 789 226 787 q 532 745 448 791 q 604 667 604 705 q 602 656 604 661 q 623 673 609 662 q 635 676 631 680 q 651 659 640 671 m 732 61 q 702 8 730 35 q 615 -62 685 -9 q 467 -163 526 -132 q 397 -181 435 -181 q 264 -88 339 -181 q 134 -1 191 3 q 81 -28 103 -3 q 60 -73 60 -50 q 64 -89 60 -83 q 97 -78 79 -78 q 132 -92 117 -78 q 147 -125 147 -106 q 130 -160 147 -145 q 86 -175 112 -175 q 0 -98 4 -174 q 62 47 -4 -13 q 229 106 127 106 q 364 47 310 106 l 447 -44 q 476 -68 469 -68 q 494 -62 480 -68 q 582 -5 537 -41 q 590 12 590 1 q 574 58 590 22 l 444 351 q 425 425 424 397 q 570 572 427 500 q 663 627 608 591 q 677 621 673 633 q 701 574 687 604 q 705 562 705 563 q 694 557 705 560 q 616 547 679 553 q 555 491 559 540 q 570 430 554 465 l 706 144 q 732 61 734 87 z "},"K":{"ha":867,"x_min":0,"x_max":850,"o":"m 846 687 q 722 610 791 611 q 686 614 706 610 q 570 434 660 528 q 496 363 534 396 q 530 246 506 300 q 663 83 579 138 q 795 33 712 50 q 817 18 817 28 q 808 0 817 12 q 770 -52 798 -17 q 716 -107 752 -69 q 798 -102 756 -96 q 809 -112 813 -104 q 782 -165 801 -130 q 758 -168 778 -172 q 606 -121 667 -154 q 592 -111 592 -113 q 602 -100 592 -108 q 682 -45 633 -79 q 696 -31 696 -35 q 684 -23 696 -26 q 507 62 578 8 q 410 164 439 114 q 360 270 375 224 q 309 244 347 258 q 309 194 309 225 q 309 144 309 163 q 309 3 309 40 q 319 -33 310 -24 q 342 -47 328 -41 q 350 -54 348 -49 q 351 -63 353 -59 q 344 -66 349 -67 q 311 -58 332 -63 q 258 -51 294 -55 q 148 -47 239 -49 q 100 -46 132 -47 q 96 -38 96 -46 q 102 -29 95 -33 q 114 -25 106 -28 q 145 -5 134 -16 q 157 21 155 6 q 161 104 161 54 q 162 174 162 145 l 162 220 q 104 222 121 218 q 127 149 104 221 q 127 140 130 142 q 117 144 125 140 q 13 195 77 163 q 0 205 0 202 q 13 211 0 208 q 48 218 26 213 q 28 256 41 235 q 21 271 21 268 q 41 275 21 275 q 163 275 85 273 l 160 404 l 156 585 q 156 652 157 602 q 149 732 153 680 q 140 753 149 741 q 124 768 134 762 q 115 788 110 776 q 124 791 117 793 q 157 787 144 788 q 247 785 210 783 q 308 788 270 785 q 332 791 310 788 q 341 787 338 792 q 341 780 342 784 q 328 761 336 772 q 307 702 311 732 q 303 610 304 686 l 307 469 q 309 301 308 396 q 344 319 321 305 q 330 394 334 359 q 343 423 327 420 q 456 460 398 431 q 469 464 464 464 q 475 456 475 464 q 452 402 475 442 q 560 518 506 446 q 621 628 614 591 q 543 663 620 629 q 505 684 519 673 q 495 682 500 688 q 477 657 488 672 q 466 656 471 648 q 439 681 453 667 q 441 691 435 686 q 539 763 456 703 q 587 775 564 781 q 673 734 604 771 q 755 698 714 713 q 801 698 788 686 q 820 721 809 706 q 831 724 825 729 q 846 699 837 712 q 846 687 850 693 z "},"L":{"ha":741,"x_min":-7,"x_max":717,"o":"m 712 -136 q 684 -193 703 -155 q 675 -200 679 -200 q 658 -196 667 -198 q 497 -149 553 -179 q 481 -140 481 -140 q 490 -130 481 -138 q 585 -45 528 -97 q 596 -33 596 -35 q 583 -24 596 -31 q 507 -9 559 -10 q 157 -163 302 -7 q 119 -162 141 -179 q 9 -71 88 -135 q 0 -52 -7 -60 q 19 -50 9 -41 l 26 -56 q 51 -45 36 -64 q 155 45 91 7 q 115 76 125 62 q 106 122 105 90 q 105 357 109 269 q 100 557 103 424 q 106 619 99 589 q 144 691 115 656 q 190 740 167 715 q 236 789 213 764 q 261 840 259 817 q 269 791 281 827 q 295 804 291 805 q 312 785 302 802 q 332 753 328 758 q 425 683 383 683 q 454 705 454 683 q 452 712 454 708 q 422 745 422 712 q 452 778 422 778 q 493 716 491 778 q 463 624 495 661 q 412 582 444 602 q 364 551 371 556 q 333 491 333 525 q 338 465 333 478 q 350 467 345 467 q 377 436 377 467 q 343 406 377 405 q 295 436 312 406 q 281 495 281 461 q 335 593 281 562 q 258 665 280 614 q 248 398 254 605 q 245 85 243 234 q 390 109 319 109 q 690 23 571 106 q 717 -5 717 5 q 711 -19 717 -10 q 670 -73 701 -37 q 618 -135 654 -93 q 700 -126 667 -121 q 712 -136 715 -128 z "},"M":{"ha":1137,"x_min":-9,"x_max":1110,"o":"m 1110 607 q 1098 562 1110 593 q 989 314 1044 438 q 926 57 926 161 q 943 -136 925 -71 q 1027 -90 1019 -90 q 1042 -117 1035 -90 q 1053 -173 1053 -153 q 929 -196 959 -199 q 816 -61 861 -145 q 770 97 771 24 q 855 289 769 234 l 854 291 q 817 277 844 288 q 796 272 801 270 q 799 293 790 275 q 878 420 831 362 q 960 518 912 464 q 957 543 968 528 q 907 608 919 593 q 840 679 863 663 q 813 680 825 689 q 697 576 742 625 l 694 390 q 693 293 694 365 q 692 220 692 221 q 691 150 692 204 q 690 79 690 96 q 691 -35 690 37 q 709 -98 694 -87 q 734 -109 721 -107 q 744 -117 740 -111 q 747 -128 748 -123 q 741 -134 747 -134 q 729 -133 736 -134 q 715 -132 721 -132 q 659 -132 656 -132 q 597 -140 633 -134 q 545 -151 580 -144 q 495 -162 528 -155 q 489 -155 492 -163 q 494 -144 488 -149 q 505 -138 498 -142 q 534 -110 525 -123 q 550 -58 549 -85 q 550 54 550 -12 q 549 231 551 170 q 548 346 547 297 q 547 498 548 359 q 545 608 547 533 q 532 624 545 624 q 522 620 527 624 l 439 560 q 435 338 435 455 q 434 241 435 313 q 433 168 433 170 q 432 116 433 153 q 431 62 431 79 q 425 -71 431 -33 q 311 -264 408 -179 q 127 -342 220 -342 q 45 -309 78 -342 q 0 -262 28 -291 q -9 -251 -8 -253 q 2 -237 -9 -248 q 45 -200 31 -212 q 64 -196 60 -189 q 98 -265 73 -211 q 124 -286 107 -285 q 155 -274 139 -286 q 244 -151 216 -226 q 259 14 256 -117 q 258 157 260 104 q 257 271 256 222 q 256 404 258 296 q 252 522 254 454 q 209 518 231 518 q 83 555 129 518 q 31 657 31 596 q 89 728 31 727 q 130 691 129 729 q 94 654 130 654 q 155 623 97 623 q 290 690 215 623 q 421 837 351 758 q 437 844 429 844 q 452 819 454 844 q 443 659 449 761 q 551 741 523 718 q 604 782 569 754 q 635 777 619 795 q 696 694 663 745 q 810 802 739 732 q 850 815 827 821 q 955 758 893 804 q 1071 663 1034 699 q 1099 637 1085 650 q 1110 607 1110 624 z "},"N":{"ha":705,"x_min":0,"x_max":678,"o":"m 665 562 q 549 355 607 458 q 467 94 468 200 q 480 -15 467 45 q 510 -102 493 -75 q 593 -56 586 -56 q 609 -83 602 -56 q 619 -139 619 -119 q 496 -162 541 -164 q 364 -61 414 -125 q 309 99 311 10 q 340 245 309 168 q 415 380 363 304 q 490 487 453 433 q 505 550 519 530 q 449 610 491 568 q 378 673 402 657 q 359 679 366 681 q 342 666 358 678 q 237 569 258 599 l 234 383 q 233 286 234 358 q 231 213 231 214 q 230 143 231 197 q 229 73 229 90 q 231 -44 230 -7 q 249 -86 232 -87 l 286 -85 q 296 -94 293 -85 q 296 -107 299 -102 q 258 -129 296 -109 q 174 -165 231 -141 q 83 -203 161 -172 q 34 -221 64 -211 q 25 -203 26 -223 q 45 -170 24 -195 q 77 -117 68 -140 q 90 47 87 -85 q 89 224 91 163 q 87 339 86 290 q 87 472 88 363 q 83 602 85 512 q 68 616 83 613 l 18 628 q 0 640 0 632 q 13 659 0 647 q 117 739 47 685 q 203 819 156 771 q 220 840 209 827 q 238 842 225 846 q 250 822 252 836 q 240 692 247 787 q 349 795 280 727 q 390 808 367 814 q 494 754 416 801 q 637 659 608 686 q 666 635 652 647 q 678 608 678 623 q 665 562 678 591 z "},"O":{"ha":838,"x_min":-1,"x_max":804,"o":"m 804 222 q 798 146 804 172 q 762 79 789 118 q 625 -85 726 27 q 448 -161 555 -160 q 108 -25 235 -162 q 0 276 2 89 q 52 467 -1 374 q 142 589 106 562 q 64 692 66 626 q 118 766 62 766 q 159 726 159 766 q 118 686 159 686 q 115 675 115 681 q 151 649 115 650 q 328 736 267 646 q 389 777 355 777 q 434 764 408 777 q 700 547 604 678 q 804 222 804 404 m 709 177 q 665 385 709 285 q 541 538 629 467 q 539 307 541 460 q 540 243 539 269 q 541 204 541 214 q 538 182 541 193 q 518 140 530 154 q 323 -12 481 97 q 431 -53 351 -31 q 521 -63 469 -63 q 566 -45 545 -63 q 644 37 599 -16 q 701 106 667 62 q 709 177 709 119 m 427 238 q 425 433 427 257 q 422 622 422 615 q 252 561 364 559 q 190 570 219 562 q 139 500 153 528 q 109 350 109 436 q 130 215 109 277 q 205 81 154 146 q 291 5 232 44 q 373 73 321 26 q 423 132 414 111 q 426 169 425 135 q 427 238 426 186 z "},"P":{"ha":635,"x_min":-1,"x_max":605,"o":"m 604 629 l 591 414 q 585 359 589 382 q 568 333 582 344 q 534 311 553 321 q 473 286 503 295 q 433 277 446 278 q 404 283 419 275 l 350 311 l 349 48 q 358 -50 351 -32 q 371 -71 359 -56 l 377 -75 q 385 -97 390 -85 q 363 -98 379 -110 l 351 -89 q 282 -174 321 -126 q 258 -199 274 -184 q 222 -210 245 -211 q 183 -193 203 -209 l 111 -139 q 100 -122 96 -128 q 120 -119 107 -113 l 128 -123 q 134 -125 131 -125 q 151 -108 138 -125 q 177 -67 160 -95 q 234 -26 202 -26 q 255 -31 244 -26 q 218 -5 232 -18 q 208 34 208 6 q 208 242 210 64 q 206 391 205 387 q 163 414 186 401 q 123 435 156 417 q 102 449 116 441 q 100 457 97 452 q 106 470 100 460 q 117 488 109 475 q 128 503 121 494 l 136 509 q 149 513 141 514 l 186 510 q 195 506 195 509 q 184 498 194 503 l 160 485 q 153 478 154 481 l 148 467 q 153 456 144 459 q 180 444 154 456 q 207 432 185 441 q 205 581 206 530 q 184 595 204 597 l 172 594 q 159 606 159 593 q 170 620 159 615 q 232 648 187 627 q 294 680 257 661 q 342 709 299 683 q 355 713 351 713 q 361 699 362 713 q 352 608 357 673 q 349 371 352 514 l 408 344 q 439 342 429 334 q 450 357 445 349 q 458 425 458 368 q 458 511 458 425 q 457 562 458 527 q 455 612 455 603 q 450 698 454 656 q 435 766 449 702 q 420 774 432 779 q 304 728 384 760 q 170 679 260 710 q 83 659 143 669 q 25 681 49 657 q 0 742 1 705 q 18 795 -1 773 q 68 817 37 817 q 120 793 102 817 q 128 757 133 776 q 102 738 123 738 q 82 745 91 738 q 82 770 69 755 q 81 777 85 774 q 69 781 76 781 q 41 745 40 780 q 81 708 41 708 q 154 727 108 708 q 280 783 205 750 q 467 867 342 812 q 484 862 479 871 l 594 662 q 604 629 605 642 z "},"Q":{"ha":838,"x_min":-1,"x_max":804,"o":"m 804 222 q 798 146 804 172 q 762 79 789 118 q 625 -85 726 27 q 547 -161 602 -107 q 600 -180 569 -163 q 637 -200 636 -199 q 669 -203 648 -203 q 692 -183 677 -203 q 703 -180 698 -174 q 713 -189 707 -183 q 712 -199 716 -193 q 572 -313 634 -309 q 484 -298 544 -314 q 381 -261 441 -281 q 344 -273 359 -257 q 330 -277 336 -281 q 323 -271 328 -275 q 321 -260 315 -264 q 566 -45 439 -173 q 645 37 623 12 q 701 106 667 62 q 709 177 709 119 q 665 385 709 285 q 541 538 629 467 q 539 307 541 461 q 540 243 539 269 q 541 204 541 214 q 538 174 541 185 q 518 140 532 155 q 323 -12 466 87 q 438 -53 345 -27 q 469 -58 448 -56 q 494 -41 478 -59 q 505 -39 500 -33 q 514 -48 509 -41 q 513 -58 517 -54 q 410 -149 471 -102 q 371 -159 391 -163 q 108 -25 199 -124 q 0 276 2 89 q 52 467 -1 374 q 142 589 106 562 q 64 692 66 626 q 118 766 62 766 q 159 726 159 766 q 118 686 159 686 q 115 675 115 681 q 151 649 115 650 q 242 673 191 648 q 328 737 293 699 q 375 804 363 776 l 401 791 q 387 757 399 779 q 429 768 407 768 q 462 756 442 768 q 664 591 576 691 q 804 222 804 433 m 427 169 q 427 238 427 186 q 425 433 427 257 q 422 622 422 615 q 252 561 364 559 q 190 570 219 562 q 139 500 153 528 q 109 350 109 436 q 130 215 109 277 q 205 81 154 146 q 291 5 232 44 q 373 73 321 26 q 423 132 414 111 q 427 169 427 142 z "},"R":{"ha":727,"x_min":0,"x_max":727,"o":"m 727 -160 l 724 -162 q 379 47 513 -122 q 252 309 292 156 q 387 479 347 420 q 454 654 457 585 q 409 712 453 673 q 353 745 365 751 q 234 599 328 730 q 234 437 234 564 q 233 340 234 412 q 231 267 231 269 q 230 198 231 252 q 229 127 229 144 q 231 10 230 46 q 243 -7 231 0 l 286 -31 q 298 -48 302 -40 q 273 -70 294 -54 q 189 -130 243 -91 q 75 -216 143 -160 q 64 -221 69 -222 q 57 -206 56 -220 q 69 -134 58 -178 q 85 -63 83 -82 q 90 102 87 -45 q 89 279 91 217 q 87 393 86 345 q 87 526 88 418 q 83 680 85 595 q 68 694 83 696 l 14 682 q 0 694 0 679 q 10 707 0 701 q 118 791 39 728 q 213 871 155 820 q 229 890 218 878 q 241 896 235 897 q 248 880 250 895 q 237 691 244 808 q 359 844 281 754 q 399 859 382 863 q 511 798 428 850 q 616 725 584 751 q 647 692 647 700 q 627 641 647 681 q 508 471 591 566 q 355 323 429 380 q 504 365 418 340 q 501 328 501 347 q 571 58 501 208 q 727 -160 641 -92 z "},"S":{"ha":724,"x_min":-1,"x_max":690,"o":"m 690 290 q 532 -3 690 123 q 445 -73 501 -25 q 383 -156 416 -103 q 276 3 330 -77 q 130 114 190 116 q 93 92 115 113 q 62 47 72 70 q 63 16 52 24 q 95 28 77 28 q 131 13 116 28 q 145 -24 145 -2 q 131 -60 145 -45 q 95 -75 116 -75 q 32 -47 63 -76 q 0 7 1 -18 q 18 59 -1 21 q 103 174 52 126 q 228 232 165 232 q 361 167 307 232 q 422 89 376 149 q 471 34 439 68 q 520 193 522 81 q 482 319 518 278 q 429 345 460 345 q 388 332 408 345 q 219 292 326 292 q 42 387 104 291 q 58 404 46 393 q 27 512 27 462 q 188 794 27 640 q 319 910 213 819 l 342 890 q 321 861 336 883 q 342 871 333 871 q 378 844 353 871 q 477 769 420 800 q 581 736 536 736 q 623 768 623 736 q 620 781 623 774 q 585 795 600 781 q 570 829 570 809 q 585 862 570 848 q 620 876 600 876 q 684 789 686 876 q 624 682 682 723 q 459 630 550 632 q 267 683 356 628 q 212 722 236 702 q 203 620 203 676 q 269 431 203 510 q 313 391 284 412 q 259 360 296 369 q 380 409 329 357 q 402 431 388 416 q 535 495 458 495 q 654 433 613 495 q 690 290 690 378 z "},"T":{"ha":674,"x_min":-14,"x_max":648,"o":"m 647 853 q 636 804 645 833 q 608 681 626 756 q 597 638 604 665 q 572 608 590 612 q 546 614 546 604 q 549 631 546 620 q 565 703 562 674 q 531 648 543 648 q 526 650 528 649 q 444 673 487 676 q 412 648 420 671 q 406 610 411 645 q 401 537 402 587 q 401 441 401 474 l 401 313 q 402 170 403 208 q 401 100 402 150 q 399 31 399 54 q 401 -26 399 -3 q 411 -58 403 -43 q 441 -87 419 -73 q 483 -106 456 -96 q 490 -117 490 -109 q 488 -123 490 -122 q 479 -124 486 -124 q 408 -107 456 -118 q 338 -98 372 -100 q 272 -96 307 -96 q 209 -95 218 -97 q 187 -83 195 -92 q 212 -71 198 -79 q 235 -50 226 -62 q 256 30 248 -33 q 260 121 258 50 q 260 216 260 121 q 257 268 260 235 q 258 320 255 292 q 257 410 258 326 l 256 494 q 252 561 254 513 q 242 628 250 610 q 198 652 232 655 q 127 646 162 649 q 62 633 73 641 q 36 583 46 621 q 10 559 30 559 q -9 576 -14 559 q -1 621 -7 585 q 20 730 5 655 q 36 819 25 766 q 47 827 38 825 q 61 823 56 828 q 66 808 66 818 q 62 768 66 785 q 105 806 92 806 q 127 800 94 806 q 231 800 155 794 q 340 808 275 804 q 452 816 391 811 q 589 830 498 819 q 613 855 597 832 q 626 871 616 862 q 640 867 632 874 q 647 853 648 860 z "},"U":{"ha":611,"x_min":0,"x_max":587,"o":"m 587 -13 q 576 -28 587 -28 q 516 9 571 -28 q 370 -83 472 -26 q 353 -87 363 -87 q 296 -58 334 -87 q 92 99 127 62 q 0 328 0 195 q 20 463 0 387 q 39 545 28 490 q 98 532 66 530 l 106 532 q 59 578 59 566 q 68 589 59 583 q 82 597 81 596 q 141 703 119 631 q 161 824 161 766 q 151 880 161 854 q 111 916 137 916 q 100 913 105 916 q 116 872 116 891 q 73 833 116 833 q 26 878 26 833 q 109 945 26 947 q 224 861 182 944 q 258 711 258 793 q 187 412 258 551 q 136 311 140 319 q 111 201 111 250 q 139 112 111 150 q 210 47 159 85 q 255 30 233 30 q 279 38 269 30 q 345 80 302 52 q 401 121 363 94 q 404 245 404 136 q 405 297 404 262 q 406 349 406 332 l 406 528 q 405 638 406 565 q 404 748 404 711 q 382 777 404 771 q 361 789 361 783 q 374 809 361 799 q 458 871 402 829 q 522 932 502 908 q 548 956 542 956 q 570 935 570 956 q 564 872 570 916 q 557 805 557 823 q 552 460 552 721 q 551 348 552 423 q 551 234 551 272 q 550 176 551 214 q 549 117 549 137 q 562 18 549 32 q 587 -13 587 -9 z "},"V":{"ha":930,"x_min":0,"x_max":903,"o":"m 903 735 q 899 718 903 733 q 803 619 869 630 q 761 623 783 616 q 745 488 753 555 q 714 334 732 397 q 641 165 694 267 q 562 0 581 52 l 568 -56 q 469 -176 543 -79 q 410 5 465 -129 q 292 252 359 133 q 202 421 241 342 q 147 541 165 495 q 83 684 115 624 q 14 745 52 741 q 0 761 0 747 q 11 776 0 773 q 58 779 16 777 q 146 783 109 780 q 238 787 180 783 q 281 787 275 793 q 286 772 286 783 q 280 759 287 761 l 255 749 q 239 722 239 743 q 250 677 239 708 q 295 558 265 630 q 368 406 326 482 q 481 193 425 303 q 518 115 503 152 q 543 50 525 97 q 608 197 557 92 q 669 350 654 292 q 713 637 704 484 q 644 676 675 648 q 598 720 623 696 q 581 720 590 724 q 564 712 575 717 q 550 713 553 708 q 541 723 546 717 q 543 733 538 729 q 629 802 594 779 q 669 807 650 816 q 743 765 692 793 q 829 724 772 747 q 869 732 852 722 q 890 750 886 743 q 900 753 895 758 q 903 735 902 750 z "},"W":{"ha":949,"x_min":0,"x_max":921,"o":"m 919 237 q 872 141 921 184 q 728 38 800 90 l 594 -58 q 552 -85 578 -71 q 519 -83 529 -90 q 493 -61 514 -79 q 417 10 485 -54 q 280 -92 411 6 q 227 -98 250 -114 q 201 -76 222 -94 q 125 -5 193 -68 l 79 -35 q 58 -38 63 -47 q 62 -13 50 -24 l 79 5 q 90 29 86 12 q 92 83 93 50 q 87 175 90 117 q 87 318 87 230 q 87 439 85 357 l 90 545 q 92 625 90 553 q 93 699 94 686 q 54 734 83 705 q 28 757 31 757 q 24 755 26 757 l 16 749 q 0 758 0 736 q 24 796 0 774 q 62 827 43 812 q 115 869 94 854 q 140 866 127 878 q 176 829 151 853 q 229 783 210 799 q 241 747 242 770 q 240 676 240 703 q 238 592 240 653 q 235 511 235 530 q 236 361 235 340 q 234 232 234 297 q 239 108 234 186 q 277 65 255 90 q 338 0 315 21 l 374 29 q 384 54 386 39 q 384 98 382 63 q 382 190 385 133 q 382 367 383 262 q 382 481 382 414 q 380 615 381 526 q 377 775 378 725 q 362 802 376 793 l 344 813 q 330 825 330 821 q 340 839 330 838 q 437 852 374 843 q 537 872 509 863 q 562 863 562 880 q 557 851 562 858 q 530 717 530 816 q 528 616 530 688 q 527 526 527 545 q 526 429 527 500 q 525 355 525 357 q 526 301 525 338 q 526 247 526 261 q 532 123 526 201 q 569 80 547 105 q 610 38 577 70 q 633 29 618 29 q 680 47 656 29 l 717 75 q 779 205 781 122 q 706 413 777 278 q 618 709 615 585 q 674 879 620 810 q 781 945 725 944 q 861 881 861 948 q 816 833 861 834 q 773 872 773 832 q 789 913 773 891 q 781 913 785 913 q 723 766 718 913 q 823 548 728 614 q 838 540 830 544 q 846 530 846 536 q 837 515 846 524 q 809 486 831 505 q 865 496 828 487 q 857 460 857 479 q 886 365 857 435 q 919 237 916 292 z "},"X":{"ha":915,"x_min":0,"x_max":895,"o":"m 888 -113 q 836 -116 880 -114 q 737 -119 751 -119 q 646 -119 702 -120 q 589 -117 622 -121 q 583 -100 584 -113 q 595 -85 583 -86 l 610 -85 q 623 -66 623 -84 q 612 -26 623 -50 q 547 98 608 -14 q 431 318 475 233 q 240 157 296 229 q 165 3 176 74 q 180 -22 163 -16 l 255 -43 q 284 -38 273 -49 l 295 -27 q 288 -7 305 -17 l 267 5 q 248 22 249 16 q 254 31 247 26 q 273 35 262 35 l 358 31 q 376 29 363 31 q 393 27 389 27 q 411 18 411 27 q 398 -4 411 10 l 390 -14 q 338 -68 371 -36 q 292 -115 310 -98 l 285 -121 q 252 -126 273 -134 q 146 -93 217 -115 q 39 -56 105 -81 q 26 -41 28 -50 q 35 -3 26 -41 q 119 166 54 83 q 396 380 201 269 q 251 646 349 469 l 249 646 q 251 623 251 635 q 152 546 251 546 q 62 572 99 546 q 0 686 0 616 q 43 739 0 739 q 83 699 85 739 q 66 665 81 673 q 94 644 71 644 q 105 646 98 644 q 138 729 139 659 q 135 772 136 743 q 140 800 135 794 q 153 804 145 804 q 170 798 158 803 q 266 779 211 783 q 289 779 273 778 q 312 781 305 781 q 391 738 366 781 q 455 625 422 687 q 536 475 481 578 q 631 551 577 503 q 699 614 657 572 q 699 654 715 634 q 666 690 684 672 q 644 691 656 700 q 634 688 640 688 q 625 696 625 688 q 631 707 625 702 l 713 776 q 743 776 727 787 q 842 669 804 734 q 836 641 850 654 q 712 534 794 606 q 565 420 667 501 q 697 155 621 307 q 751 56 724 105 q 823 -52 798 -26 q 865 -78 844 -75 q 884 -89 881 -81 q 888 -113 895 -111 z "},"Y":{"ha":827,"x_min":0,"x_max":787,"o":"m 787 390 q 769 208 787 298 q 612 -94 734 41 q 316 -243 477 -241 q 148 -203 232 -244 q 49 -80 48 -153 q 81 23 49 -39 q 92 37 88 36 q 106 32 94 38 q 144 11 119 26 q 167 -9 167 -2 q 159 -23 167 -14 q 102 -80 138 -42 q 176 -154 109 -126 q 283 -176 230 -176 q 576 146 467 -176 q 595 212 578 155 q 608 240 603 240 q 651 210 619 240 q 618 309 621 252 q 622 386 616 332 q 629 452 626 419 q 612 627 634 530 q 602 641 610 636 q 586 641 593 646 q 435 492 529 584 q 374 315 425 369 q 321 277 350 290 q 401 223 359 267 q 471 147 436 185 q 497 130 486 132 q 526 140 507 128 q 538 138 536 146 q 544 125 541 133 q 537 114 545 118 q 392 50 436 52 q 282 115 346 48 q 210 200 254 152 q 188 210 199 210 q 171 205 180 210 q 152 216 157 199 q 157 229 150 224 q 234 301 213 273 q 277 397 264 338 q 292 587 298 494 q 145 523 233 524 q 45 556 84 523 q 0 661 1 594 q 19 718 0 694 q 70 742 38 742 q 104 729 90 742 q 118 699 118 716 q 70 656 118 656 q 84 627 68 637 q 117 620 97 619 q 218 702 162 621 q 250 748 242 739 q 283 772 268 769 q 329 756 290 773 q 312 799 314 779 q 341 817 326 810 q 408 696 380 780 q 436 561 432 626 q 437 547 437 555 q 727 831 575 682 q 735 834 730 834 q 755 815 755 834 q 750 802 755 809 q 724 736 726 772 q 756 565 718 652 q 787 390 785 496 z "},"Z":{"ha":698,"x_min":0,"x_max":661,"o":"m 661 174 q 604 4 661 94 q 509 -111 562 -66 q 378 -245 414 -193 q 275 -153 313 -222 q 210 -49 232 -73 q 130 -14 177 -14 q 79 -39 100 -15 q 62 -84 62 -60 q 66 -102 62 -96 q 99 -92 81 -92 q 135 -105 120 -92 q 150 -138 150 -119 q 132 -174 150 -159 q 89 -189 114 -189 q 1 -104 10 -188 q 0 -83 0 -94 q 47 33 0 -14 q 184 87 104 88 q 326 31 258 87 q 405 -62 341 18 q 439 -90 426 -90 q 456 -85 447 -90 q 484 -12 475 -75 q 489 85 492 41 q 451 199 483 167 q 397 223 428 223 q 332 186 355 223 q 314 175 321 170 q 293 188 306 180 q 288 209 281 195 q 505 591 321 269 q 418 560 467 561 q 344 597 372 559 q 130 692 269 696 q 87 664 87 691 q 90 652 87 658 q 125 639 111 652 q 140 608 140 627 q 125 578 140 591 q 90 566 111 566 q 25 645 22 566 q 86 741 27 705 q 252 789 160 787 q 467 745 383 791 q 540 667 540 705 q 538 656 540 661 q 555 678 544 663 q 568 694 560 684 l 599 673 q 509 515 574 637 q 414 334 423 351 q 505 359 454 359 q 625 302 583 359 q 661 174 661 252 z "},"[":{"ha":323,"x_min":8,"x_max":300,"o":"m 296 876 q 296 873 296 875 q 280 869 292 867 l 257 871 q 237 864 243 873 q 207 808 224 843 q 191 778 200 798 q 150 778 181 775 q 186 759 174 766 q 197 741 197 753 q 198 585 197 637 q 197 414 197 515 q 193 283 198 385 q 184 128 189 185 q 181 116 182 118 q 173 110 180 114 q 136 92 160 102 q 177 92 151 91 q 193 60 178 88 q 224 5 211 26 q 243 -3 229 -5 l 267 0 q 283 -6 279 1 q 273 -18 286 -12 l 189 -53 q 153 -66 159 -66 q 128 -58 136 -65 q 113 -37 127 -56 q 68 30 108 -30 l 28 14 q 16 12 20 12 q 12 16 13 12 q 19 35 8 28 l 35 45 q 47 62 41 49 q 52 84 49 65 q 56 134 53 100 q 63 254 61 193 q 69 401 69 390 q 71 547 69 489 q 71 674 73 571 q 65 785 69 762 q 60 807 64 794 q 49 824 59 812 l 33 834 q 25 852 22 841 q 30 857 26 857 q 42 854 34 857 l 81 839 q 126 906 100 868 q 142 926 132 913 q 167 935 150 934 q 203 922 172 935 l 286 886 q 296 876 300 880 z "},"\\":{"ha":920,"x_min":48,"x_max":823,"o":"m 817 -1 q 764 -4 808 -2 q 666 -7 680 -7 q 574 -7 631 -8 q 518 -5 551 -9 q 512 12 513 -1 q 524 26 511 26 l 539 27 q 552 46 552 28 q 541 86 552 63 q 476 210 536 97 l 325 492 q 226 679 275 585 q 120 844 156 806 q 79 870 99 867 q 58 881 62 873 q 56 904 48 903 q 107 908 64 906 q 205 911 192 911 q 304 911 245 912 q 360 909 328 913 q 367 892 366 904 q 355 878 368 878 l 339 877 q 327 858 327 876 q 337 818 327 841 q 411 678 359 768 q 489 532 466 581 q 626 267 560 385 q 680 168 653 217 q 751 60 726 86 q 793 34 772 37 q 813 23 810 31 q 817 -1 823 1 z "},"]":{"ha":323,"x_min":29,"x_max":321,"o":"m 317 16 q 312 12 316 12 q 300 14 308 12 l 260 30 q 216 -37 241 1 q 200 -58 211 -45 q 176 -66 192 -65 q 140 -53 170 -66 l 56 -18 q 45 -6 43 -12 q 47 -5 46 -5 q 62 0 50 1 l 85 -3 q 105 5 100 -5 q 136 60 117 26 q 152 92 142 71 q 193 92 161 94 q 156 110 169 102 q 145 128 146 115 q 135 283 140 185 q 132 414 131 385 q 130 585 131 489 q 132 741 132 631 q 143 760 132 753 q 179 778 155 766 q 138 778 163 778 q 122 808 137 781 q 92 864 104 843 q 72 871 86 873 l 49 869 q 32 876 37 867 q 43 886 29 880 l 126 922 q 162 935 157 935 q 186 926 178 934 q 202 906 189 925 q 247 839 208 899 l 287 854 q 298 857 294 857 q 303 852 302 857 q 296 834 307 841 l 279 824 q 268 807 273 820 q 263 785 267 804 q 258 674 260 762 q 257 547 256 571 q 260 401 260 489 q 265 254 260 390 q 273 134 268 193 q 277 84 274 115 q 281 62 278 75 q 293 45 283 56 l 310 35 q 317 16 321 28 z "},"^":{"ha":536,"x_min":112,"x_max":413,"o":"m 407 909 q 404 893 413 904 q 369 854 376 862 q 326 830 344 830 q 252 880 295 829 q 193 836 220 852 q 180 830 183 830 q 167 835 175 830 q 112 868 140 850 q 117 878 112 876 q 163 908 134 889 q 216 944 177 918 q 263 981 234 959 q 277 973 271 979 q 259 954 267 964 q 282 951 271 956 q 314 932 293 947 q 359 903 331 921 q 372 899 366 899 q 381 901 370 899 q 395 910 386 905 q 407 909 402 913 z "},"_":{"ha":822,"x_min":-26,"x_max":848,"o":"m 848 -225 l -26 -225 l -26 -122 l 848 -122 l 848 -225 z "},"`":{"ha":426,"x_min":92,"x_max":313,"o":"m 313 884 q 281 865 313 874 q 239 856 252 856 q 162 906 194 856 q 119 956 131 956 q 110 954 116 956 q 100 951 103 951 q 92 968 92 951 q 97 975 92 971 q 170 1007 136 1007 q 241 952 212 1007 q 291 897 269 897 q 299 900 294 897 q 307 903 304 903 q 313 884 313 903 z "},"a":{"ha":361,"x_min":-3,"x_max":355,"o":"m 355 220 q 335 202 345 210 q 278 152 315 186 q 258 130 271 144 q 212 113 243 111 q 193 119 205 114 q 183 137 189 123 q 176 154 180 144 q 151 136 168 148 q 130 120 138 127 q 111 109 116 111 q 92 109 106 108 q 65 117 71 109 q 56 138 60 125 q 32 205 47 161 q 7 281 23 233 q 0 311 2 302 q 0 335 -3 326 q 37 381 5 351 q 85 414 56 399 q 125 431 108 426 q 153 440 132 434 q 175 435 160 440 q 171 424 176 428 q 116 375 126 390 q 117 343 116 353 q 124 301 118 331 q 136 256 127 283 q 160 188 147 224 q 183 203 176 196 q 190 309 186 233 q 191 420 192 351 q 189 525 191 455 q 186 574 189 530 q 174 583 185 588 q 146 570 158 576 l 111 553 q 96 543 100 547 q 87 520 90 536 q 84 489 87 516 q 71 484 83 468 q 54 514 68 489 q 37 545 47 524 q 16 591 37 545 q 16 608 12 603 q 33 621 19 612 q 129 677 43 629 q 151 689 140 684 q 169 682 159 692 q 230 618 189 661 q 283 557 254 592 q 304 520 297 540 q 310 482 309 505 q 311 410 311 454 q 311 323 311 338 q 308 223 310 290 q 330 222 316 222 q 342 221 333 222 q 355 220 352 220 z "},"b":{"ha":450,"x_min":0,"x_max":416,"o":"m 416 404 q 414 326 416 389 q 408 245 414 309 q 399 166 404 194 q 383 136 395 149 q 332 95 366 117 q 290 68 317 84 q 260 66 274 60 q 184 101 216 84 l 175 65 q 156 43 170 45 q 127 54 143 41 l 33 130 q 26 139 25 136 q 37 143 26 142 l 55 146 q 73 168 73 149 l 73 396 q 73 645 74 467 q 71 792 72 694 q 58 804 70 805 l 11 798 q 0 807 0 797 q 9 819 0 812 q 101 887 62 855 q 175 957 144 922 q 199 977 193 978 q 205 964 205 977 q 201 819 204 908 q 194 673 199 793 q 190 577 192 637 q 210 591 199 585 q 244 602 233 605 q 279 593 256 600 q 319 580 292 589 q 368 561 345 571 q 399 534 390 550 q 411 502 406 522 q 416 404 415 486 m 294 382 q 293 458 294 365 q 290 505 293 473 q 281 523 288 516 q 249 541 274 530 q 227 536 243 543 q 204 523 211 529 q 196 506 197 516 q 194 435 195 484 q 194 271 194 371 q 194 169 194 271 q 235 153 206 163 q 263 149 254 147 q 284 174 280 154 q 290 243 288 195 q 294 382 293 286 z "},"c":{"ha":378,"x_min":0,"x_max":354,"o":"m 347 494 q 269 438 313 470 q 253 430 258 429 q 241 446 251 430 q 201 550 224 490 q 181 600 193 570 q 151 645 162 654 q 143 635 146 641 q 134 603 138 626 q 128 544 130 579 q 126 454 127 539 q 125 402 126 437 q 126 313 125 355 q 129 235 126 287 q 135 216 130 225 q 155 194 140 206 q 178 178 166 185 q 192 180 187 172 q 201 201 193 182 q 218 245 207 217 q 239 317 220 254 q 246 325 243 329 q 257 309 250 319 q 281 274 272 290 q 307 231 300 240 q 311 218 314 222 q 283 180 302 206 q 259 154 269 162 q 227 144 249 146 q 184 143 210 144 q 157 142 168 142 q 130 144 142 143 q 101 162 121 146 q 64 192 87 172 q 28 229 52 204 l 8 248 q 3 267 5 252 q 0 305 0 283 q 1 341 0 316 q 3 379 3 366 q 3 437 3 395 q 5 522 2 465 q 7 560 4 527 q 16 579 7 566 q 80 633 38 598 q 135 677 98 648 q 154 686 147 686 q 173 685 168 687 q 224 660 191 676 q 274 634 241 652 q 284 621 281 629 q 307 561 290 606 q 324 517 313 548 q 345 513 330 501 q 347 494 354 501 z "},"d":{"ha":431,"x_min":0,"x_max":414,"o":"m 414 145 q 404 136 414 142 l 271 50 q 241 39 252 38 q 224 50 239 40 q 219 62 218 53 l 222 99 q 144 66 190 83 q 116 70 131 61 q 75 98 110 73 q 24 141 42 122 q 10 172 13 155 q 3 252 6 199 q 0 332 0 315 q 1 410 0 363 q 9 507 2 448 q 23 540 14 524 q 55 568 31 554 q 145 601 63 572 q 180 609 163 607 q 214 595 195 611 q 233 580 224 587 q 234 671 234 667 q 229 772 233 707 q 216 785 229 785 l 165 785 q 159 793 159 785 q 168 804 159 800 q 225 845 191 819 q 284 898 261 874 q 336 957 300 913 q 348 972 340 962 q 357 964 357 983 q 356 819 357 916 q 353 639 356 803 q 346 390 351 558 q 336 170 342 292 q 357 151 335 151 l 401 149 q 414 145 414 149 m 221 439 q 220 518 221 488 q 213 534 219 526 q 196 553 207 543 q 174 560 185 564 q 142 538 158 554 q 131 520 133 531 q 126 467 128 505 q 122 384 124 437 q 121 245 120 288 q 124 175 122 221 q 142 150 124 155 q 171 152 151 146 q 215 168 191 158 l 218 269 q 221 439 221 401 z "},"e":{"ha":378,"x_min":0,"x_max":351,"o":"m 347 376 q 332 366 344 370 q 236 334 283 350 q 176 272 167 305 q 200 274 184 285 q 205 243 217 263 q 164 239 192 220 q 129 304 129 262 q 208 427 129 399 q 161 526 191 467 q 150 527 157 533 q 142 517 145 524 q 132 485 135 505 q 127 447 130 475 q 124 305 125 399 q 125 216 123 258 q 127 157 125 199 q 134 137 128 147 q 150 118 140 127 q 195 98 159 109 q 218 100 214 92 q 246 169 235 130 q 259 218 252 185 q 267 227 262 231 q 278 212 271 222 q 294 191 283 205 q 307 171 300 180 q 311 157 314 161 q 285 121 304 146 l 258 85 q 235 56 256 81 q 218 46 228 47 q 191 46 209 46 q 128 47 164 46 q 61 101 113 50 q 25 138 49 113 q 10 157 22 143 q 3 179 3 164 q 2 193 3 182 q 1 208 1 203 q 1 282 1 257 q 1 340 1 298 q 0 382 0 368 q 12 471 3 419 q 21 490 12 477 q 80 536 41 505 q 134 577 81 537 q 153 587 146 587 q 172 585 166 587 q 223 563 188 580 q 284 531 246 552 q 295 518 292 526 q 347 393 318 463 q 347 376 351 382 z "},"f":{"ha":525,"x_min":0,"x_max":508,"o":"m 505 809 q 506 799 508 806 q 499 789 504 791 q 385 701 455 748 q 374 699 380 699 q 309 722 350 699 q 253 757 281 739 q 255 674 253 751 q 257 564 256 618 q 304 553 286 559 q 403 506 361 535 q 409 498 409 501 q 403 492 408 496 q 360 459 385 479 q 353 433 344 439 q 368 428 357 430 q 409 458 375 464 q 389 397 385 436 q 329 408 357 399 q 280 435 292 418 q 280 453 273 445 q 367 490 308 481 q 254 517 322 514 l 255 472 q 250 280 256 414 q 235 87 245 167 q 248 61 240 79 q 262 41 254 47 q 284 37 270 34 l 300 40 q 312 35 309 43 l 315 29 q 303 16 318 22 l 220 -17 q 184 -30 187 -31 q 159 -22 167 -30 q 143 -2 157 -21 q 125 26 137 8 l 85 11 q 68 13 71 5 l 66 18 q 74 32 64 25 l 88 41 q 104 58 100 50 q 109 81 106 62 q 113 131 110 97 q 125 302 120 213 q 128 434 126 351 q 129 500 130 463 q 70 475 102 492 q 52 479 59 469 q 0 541 34 502 q 128 569 52 564 q 129 812 129 659 q 196 845 154 825 q 258 873 218 855 q 276 880 264 876 q 294 873 283 880 q 361 832 317 858 q 465 800 425 795 q 487 812 473 804 q 505 809 496 816 z "},"g":{"ha":449,"x_min":-60,"x_max":432,"o":"m 432 -61 q 425 -79 432 -73 q 317 -199 386 -119 q 298 -203 309 -209 q 205 -170 252 -178 q 146 -165 178 -165 q 42 -179 94 -165 q 20 -194 20 -185 q 21 -198 20 -196 q 49 -229 28 -208 q 85 -256 60 -239 q 122 -271 109 -271 q 142 -267 129 -271 q 157 -264 155 -264 q 171 -269 171 -267 q 115 -293 172 -277 q 64 -306 98 -297 q 37 -302 54 -309 q 9 -283 24 -298 q -18 -259 2 -277 q -50 -222 -35 -243 q -59 -199 -60 -208 q -50 -182 -58 -189 q 12 -132 -20 -156 q 64 -92 28 -119 q 115 -68 93 -72 q 175 -62 147 -62 q 311 -87 232 -62 q 292 18 308 -40 q 273 75 285 45 q 275 94 269 85 q 293 124 281 104 q 260 100 282 115 q 240 85 254 95 q 205 72 217 72 q 174 76 195 72 q 127 89 153 80 q 82 106 113 94 q 51 128 57 117 q 40 161 46 136 q 33 279 34 185 q 35 357 33 294 q 38 438 36 395 q 43 508 39 460 q 66 541 45 518 q 118 587 86 561 q 160 616 141 606 q 189 618 176 623 q 265 583 233 600 l 267 618 q 286 643 267 640 q 319 635 299 644 l 416 595 q 425 587 426 591 q 413 582 425 583 l 393 579 q 377 551 377 576 l 376 288 q 377 135 376 258 q 415 29 392 98 q 432 -61 432 -37 m 258 413 q 257 463 258 431 q 256 513 256 497 q 214 532 243 519 q 182 543 202 536 q 161 522 163 545 q 155 440 157 487 q 154 302 155 386 q 155 256 154 289 q 157 205 157 217 q 160 165 157 193 q 170 146 161 154 q 200 136 172 142 q 223 140 210 134 q 247 155 237 146 q 254 171 253 161 q 256 229 254 186 q 258 413 256 302 z "},"h":{"ha":498,"x_min":0,"x_max":484,"o":"m 484 1 q 439 -3 481 -3 q 311 -1 336 -3 q 279 4 279 -1 q 298 24 279 12 q 317 47 317 37 q 322 227 322 179 q 313 425 322 310 q 290 450 311 450 q 189 411 243 450 q 170 87 184 209 q 209 35 190 35 q 225 39 214 35 q 241 42 235 42 q 250 26 250 42 q 237 16 250 21 q 118 -30 129 -30 q 83 -10 99 -30 q 59 26 71 8 q 9 9 13 9 q 0 23 0 9 q 18 38 0 26 q 39 58 35 51 q 43 81 40 62 q 47 131 44 97 q 55 251 52 191 q 63 534 63 451 q 62 591 63 553 q 62 648 62 629 q 63 700 62 665 q 64 752 64 734 q 49 788 64 788 q 31 785 43 788 q 12 783 18 783 q 5 791 5 783 q 12 804 5 800 q 107 852 18 809 q 201 895 197 895 q 214 884 214 895 q 200 869 214 882 q 184 834 186 856 q 184 704 184 822 q 188 600 184 669 q 192 494 192 530 q 250 519 208 504 q 309 534 293 534 q 368 500 328 534 q 412 460 398 475 q 444 163 444 427 q 444 52 444 109 q 464 19 445 31 q 484 1 483 7 z "},"i":{"ha":286,"x_min":-7,"x_max":290,"o":"m 216 724 q 209 711 218 716 l 137 674 q 100 659 108 660 q 77 666 83 659 q 60 686 70 673 q 44 708 54 693 q 29 710 40 713 l 12 706 q 0 709 5 704 q 3 724 -7 718 l 16 730 q 73 756 36 739 q 123 779 92 766 q 149 773 139 787 q 161 754 153 767 q 178 732 168 745 q 195 724 186 720 l 206 730 q 216 724 213 732 m 286 52 l 280 42 q 263 42 275 36 l 152 97 q 119 117 129 109 q 103 158 103 133 q 103 193 104 166 q 102 232 102 220 q 101 278 102 240 q 100 333 100 313 q 100 439 100 395 q 98 557 102 468 q 79 576 96 579 l 50 569 q 41 576 41 567 q 45 591 39 588 q 93 610 61 597 q 160 639 118 621 q 227 670 187 652 q 238 668 232 672 q 244 659 244 665 q 241 654 243 656 q 217 608 217 629 q 219 546 217 587 q 222 395 220 494 q 224 328 222 374 q 227 273 227 288 q 225 174 227 201 q 225 129 224 146 q 227 106 226 110 q 243 90 230 98 l 279 66 q 286 52 290 58 z "},"j":{"ha":325,"x_min":-157,"x_max":342,"o":"m 245 804 q 193 731 229 774 q 116 680 158 688 q 100 682 100 677 q 110 693 100 686 q 143 722 123 703 q 143 738 157 738 l 111 738 q 81 753 90 738 q 78 785 73 768 q 106 827 83 802 q 160 869 124 846 q 183 874 176 879 q 184 865 188 871 q 176 855 182 863 q 172 823 161 837 q 203 815 178 815 q 235 816 240 815 q 245 804 250 813 m 342 -48 q 333 -58 342 -51 q 288 -98 309 -77 q 198 -199 231 -156 q 180 -203 191 -209 q 119 -170 149 -186 q 51 -153 83 -153 q -19 -161 19 -153 q -73 -172 -60 -171 q -132 -149 -107 -173 q -157 -86 -156 -125 q -138 -32 -157 -55 q -85 -9 -119 -9 q -34 -34 -52 -9 q -34 -50 -27 -44 q -78 -81 -54 -66 q -76 -68 -81 -79 q -73 -63 -73 -66 q -86 -55 -73 -55 q -101 -73 -101 -55 q -79 -98 -101 -98 q -26 -77 -67 -98 q 56 -55 15 -56 q 194 -92 111 -54 q 173 18 193 -52 q 154 75 166 45 q 156 95 150 85 q 199 129 156 95 q 138 136 152 125 q 135 171 133 149 q 137 229 136 186 q 138 413 138 302 q 139 532 138 456 q 136 546 139 541 q 127 550 132 551 l 92 543 q 81 550 81 540 q 87 562 81 557 q 184 666 149 620 q 252 764 224 718 q 262 774 258 774 q 268 766 268 773 q 267 745 269 757 q 264 728 264 730 q 258 679 263 719 q 253 625 253 643 q 254 493 253 616 l 258 288 q 258 135 257 258 q 296 29 273 98 q 313 -53 304 -1 q 330 -47 323 -48 q 342 -48 342 -45 z "},"k":{"ha":496,"x_min":-2,"x_max":696,"o":"m 696 -108 q 563 -195 633 -149 q 553 -199 557 -199 q 551 -189 546 -199 q 585 -100 572 -147 q 444 -79 522 -102 q 315 -9 354 -53 q 267 92 268 42 q 361 261 267 153 q 302 273 342 267 q 229 279 277 277 q 217 280 219 279 q 212 289 215 281 q 186 345 202 312 q 182 259 184 314 q 172 117 180 212 q 159 77 171 104 q 124 50 153 71 l 125 47 q 175 68 146 56 q 184 69 185 73 q 180 55 183 66 q 170 15 176 41 q 172 -2 165 -2 l 172 -2 q 182 0 176 -2 q 211 14 188 3 q 226 21 216 17 q 235 18 232 24 q 224 -3 237 10 q 174 -48 195 -35 q 95 -75 130 -76 q 58 -37 54 -73 q 66 4 62 -20 q 62 12 68 12 q 47 7 57 13 l 17 -9 q 0 -7 3 -16 q 9 7 -2 -1 l 22 18 q 35 37 29 24 q 40 60 37 41 q 44 110 41 76 q 52 231 50 169 q 58 376 58 366 q 59 428 58 393 q 60 481 60 463 q 61 637 60 534 q 61 757 60 699 q 58 771 61 766 q 50 774 54 776 l 14 767 q 3 774 3 765 q 9 787 3 781 q 174 989 110 882 q 184 998 180 999 q 191 991 190 998 q 189 968 191 981 q 186 954 186 956 q 182 903 186 949 q 179 850 179 868 q 181 764 179 816 q 182 688 182 711 q 184 590 182 670 q 186 503 186 518 q 268 558 214 524 q 336 591 307 583 q 359 587 347 594 q 448 531 389 566 q 456 514 461 525 q 434 456 442 481 q 418 441 431 447 l 322 406 q 312 408 312 401 q 325 424 312 414 q 341 443 337 434 q 357 496 345 452 q 298 461 322 477 q 239 420 274 444 q 230 415 235 418 q 219 418 227 414 q 186 437 202 427 q 186 394 186 424 q 321 382 286 389 q 398 366 349 378 q 414 349 409 361 q 466 226 428 309 q 469 218 469 220 q 462 207 469 214 q 386 76 385 125 q 499 -33 387 7 q 644 -55 562 -54 q 664 -57 664 -56 q 659 -71 663 -60 q 645 -111 655 -81 q 696 -108 678 -114 z "},"l":{"ha":244,"x_min":-3,"x_max":275,"o":"m 271 -6 q 261 -18 275 -12 l 178 -53 q 142 -66 147 -66 q 117 -58 125 -65 q 101 -37 115 -56 q 56 30 96 -30 l 17 14 q 5 12 9 12 q 0 16 1 12 q 7 35 -3 28 l 24 45 q 35 62 30 49 q 40 84 37 65 q 44 134 41 100 q 52 254 50 193 q 58 401 58 390 q 60 547 58 489 q 59 674 60 549 q 60 786 60 718 q 42 805 59 808 l 13 800 q 2 808 3 799 q 8 822 2 817 q 55 845 9 823 q 127 880 73 854 q 195 912 155 895 q 211 901 211 918 q 208 896 211 898 q 190 878 191 880 q 182 852 182 869 q 184 705 183 794 q 186 585 184 695 q 186 414 186 515 q 182 283 186 385 q 172 128 178 185 q 170 116 171 118 q 161 110 169 114 q 133 95 151 104 l 133 94 q 165 92 152 98 q 182 60 172 79 q 212 5 199 26 q 232 -3 218 -5 l 255 0 q 271 -6 267 1 z "},"m":{"ha":681,"x_min":-5,"x_max":673,"o":"m 667 72 q 629 24 659 59 q 582 -31 600 -12 q 540 -71 560 -53 l 521 -87 q 498 -93 513 -94 q 394 -83 463 -90 q 374 -81 378 -82 q 366 -70 367 -77 q 364 -47 365 -62 l 361 -16 q 366 4 361 3 q 384 -1 370 5 q 486 -40 410 -12 q 507 -32 498 -44 l 550 26 q 554 56 559 38 l 425 506 q 410 524 420 524 q 401 505 402 525 l 401 480 q 404 414 401 463 q 407 305 405 378 q 418 157 409 267 q 421 106 419 140 q 429 83 422 87 l 444 73 q 448 59 466 59 l 419 58 q 334 59 405 58 q 281 59 315 58 l 258 60 q 249 67 249 60 q 259 78 249 71 l 279 92 q 288 107 288 98 l 288 203 q 289 333 288 216 l 289 465 q 288 519 288 532 q 266 538 288 538 l 199 538 q 198 494 199 520 l 198 403 q 198 324 197 349 q 200 233 199 318 l 202 128 q 186 87 202 103 q 153 68 173 76 l 23 14 q 6 15 9 9 l 0 24 q 7 39 -5 32 l 48 62 q 64 77 61 69 q 66 100 65 81 q 68 145 67 114 q 71 262 68 151 q 73 359 72 295 q 77 447 75 389 q 77 521 77 475 q 61 543 77 534 l 12 570 q 4 579 4 574 q 11 590 4 586 q 58 618 26 599 q 116 664 94 642 q 176 728 135 682 q 193 748 191 748 q 198 735 198 747 q 198 727 198 732 q 198 718 198 722 l 197 559 q 304 619 238 581 q 383 667 335 643 q 395 642 394 669 l 399 581 q 408 568 400 564 q 451 589 431 581 q 490 605 471 598 q 513 595 503 610 q 526 564 520 585 q 581 380 546 499 l 635 201 q 665 104 646 168 q 667 72 673 80 z "},"n":{"ha":488,"x_min":0,"x_max":479,"o":"m 475 -110 l 465 -130 q 448 -131 462 -136 l 349 -95 q 316 -75 330 -88 q 298 -35 301 -61 q 296 39 296 -12 q 298 99 296 61 q 300 158 300 142 q 300 241 300 227 q 296 380 299 336 q 291 452 294 405 q 272 477 290 472 q 239 469 263 480 q 200 448 214 457 l 200 353 q 203 182 202 222 q 195 56 206 98 l 181 5 q 161 -17 175 -16 q 134 -6 149 -19 l 39 70 q 31 79 32 76 q 43 83 31 81 l 61 85 q 79 108 79 89 l 79 336 q 79 456 79 387 q 74 475 79 470 q 57 475 68 478 l 13 460 q 0 465 0 456 q 9 479 0 473 l 140 568 q 170 585 165 585 q 185 580 177 585 q 191 566 189 577 l 197 525 q 275 560 220 538 q 303 558 289 566 q 340 532 318 551 q 391 487 375 503 q 405 457 401 476 q 415 378 411 422 q 420 298 420 326 q 424 216 422 265 q 421 102 424 165 q 420 -18 418 51 q 423 -71 420 -37 q 427 -85 424 -75 q 446 -98 431 -98 l 471 -99 q 476 -100 475 -99 q 475 -110 479 -102 z "},"o":{"ha":431,"x_min":-2,"x_max":390,"o":"m 390 199 q 381 127 389 159 q 369 94 378 111 q 290 41 358 73 q 215 12 238 16 q 182 22 199 9 q 121 73 150 45 q 82 110 109 84 q 58 138 70 122 q 48 163 53 143 q 47 316 46 230 q 50 395 48 342 q 0 408 18 406 q 9 445 -2 425 q 33 437 12 444 q 53 430 40 435 q 58 458 55 438 q 68 473 60 467 q 146 517 98 490 q 227 557 184 540 q 256 555 240 564 q 298 529 267 550 q 351 485 330 507 q 368 454 365 471 q 380 366 377 406 q 389 277 385 332 q 390 199 390 231 m 245 498 q 244 514 246 507 q 167 460 218 496 q 166 444 166 456 q 167 437 166 442 q 167 429 168 433 q 189 439 178 433 q 216 454 196 441 q 236 475 231 465 q 245 498 244 489 m 266 241 q 262 332 265 288 q 256 401 260 372 q 243 412 256 412 q 212 409 226 414 q 167 392 191 402 l 167 290 q 170 182 168 256 q 174 100 171 154 q 181 83 175 92 q 199 64 188 75 q 215 62 205 59 q 248 76 228 66 q 257 93 254 79 q 263 155 260 117 q 266 241 267 206 z "},"p":{"ha":463,"x_min":-1,"x_max":422,"o":"m 422 219 q 418 122 422 182 q 406 90 414 105 q 374 60 398 75 q 285 24 366 56 q 250 14 268 17 q 216 26 236 12 q 196 41 205 34 q 199 -50 197 8 q 213 -248 203 -116 q 220 -272 214 -268 l 235 -281 q 245 -293 245 -288 q 239 -296 244 -296 l 210 -297 q 125 -296 196 -297 q 73 -296 107 -296 l 50 -296 q 39 -289 39 -295 q 51 -277 39 -285 l 70 -263 q 79 -248 79 -256 l 79 -152 q 80 -22 79 -138 l 80 227 q 79 448 78 385 q 58 466 79 466 l 14 466 q 0 470 -1 466 q 10 479 1 473 l 140 568 q 170 581 161 582 q 187 572 172 581 q 193 559 193 568 l 191 522 q 267 557 222 539 q 296 555 281 564 q 338 528 302 552 q 390 487 372 506 q 405 457 401 474 q 414 378 410 429 q 420 298 417 349 q 422 219 422 234 m 300 241 q 296 380 299 337 q 292 450 294 404 q 273 475 290 469 q 245 471 263 477 q 201 454 224 465 l 201 353 q 203 182 202 221 q 208 104 205 132 q 215 87 208 96 q 232 69 221 79 q 256 64 243 58 q 287 85 271 70 q 296 104 294 94 q 299 158 299 121 q 300 241 300 255 z "},"q":{"ha":427,"x_min":0,"x_max":417,"o":"m 417 -179 q 408 -191 417 -185 q 309 -250 374 -209 q 222 -329 253 -292 q 197 -349 203 -350 q 191 -336 191 -349 q 203 -260 192 -311 q 216 -191 215 -203 q 220 -85 218 -151 q 223 10 220 -55 q 227 100 224 43 q 208 85 217 92 q 173 72 184 72 q 95 83 127 72 q 48 101 68 92 q 18 128 28 111 q 5 161 11 140 q 0 279 1 179 q 2 357 0 294 q 5 438 3 395 q 11 508 5 460 q 33 541 12 518 q 85 587 54 561 q 127 616 108 606 q 157 618 142 623 q 232 583 201 599 l 233 618 q 253 643 234 640 q 286 635 266 644 l 384 595 q 392 587 393 591 q 380 582 391 583 l 361 579 q 344 551 344 576 q 344 288 344 315 q 345 39 343 216 q 345 -62 345 9 q 347 -136 345 -83 q 357 -151 347 -147 l 404 -169 q 417 -179 417 -174 m 224 413 q 224 463 225 431 q 222 513 222 497 q 181 532 211 519 q 149 543 169 536 q 128 522 131 545 q 123 440 125 487 q 121 302 122 386 q 122 256 121 289 q 124 205 123 217 q 127 165 124 193 q 136 146 129 154 q 167 136 140 142 q 190 140 176 134 q 214 155 204 146 q 221 171 220 161 q 223 229 222 186 q 224 413 224 302 z "},"r":{"ha":351,"x_min":-1,"x_max":340,"o":"m 340 550 q 327 532 340 541 l 242 480 q 227 478 231 473 l 221 484 q 222 493 218 489 l 233 503 q 235 524 240 509 l 208 602 q 197 621 202 621 q 194 602 193 621 l 194 577 q 196 511 195 553 q 199 402 197 474 q 210 253 201 363 q 214 203 211 237 q 220 180 215 184 l 236 170 q 245 159 245 164 q 239 156 245 156 l 211 155 q 126 155 197 155 q 73 155 107 155 l 50 157 q 41 164 45 156 q 52 175 41 168 l 71 189 q 79 204 79 195 l 79 300 q 81 430 79 313 l 81 562 q 79 616 80 629 q 58 634 80 634 l 13 634 q 0 638 -1 634 q 9 648 1 641 l 136 735 q 159 747 153 747 q 182 737 165 747 q 187 724 186 734 l 191 678 q 200 665 192 661 q 231 684 216 675 q 257 698 242 690 q 297 661 276 707 q 321 601 303 648 l 332 576 q 340 550 340 555 z "},"s":{"ha":474,"x_min":-1,"x_max":456,"o":"m 456 653 q 444 624 456 640 q 361 530 393 561 q 330 500 351 520 q 311 492 321 492 q 289 506 306 492 q 197 581 251 538 q 170 541 170 569 q 172 470 170 536 q 185 431 172 446 q 220 405 192 423 q 238 398 230 398 q 290 432 250 398 q 330 450 311 450 q 366 437 346 450 q 406 408 375 432 q 418 381 418 399 q 418 317 418 368 q 418 252 419 277 q 411 229 418 237 q 280 83 345 153 q 264 72 270 72 q 243 83 259 72 q 174 130 208 106 q 102 161 126 160 q 40 130 57 161 q 60 104 60 128 q 32 79 60 80 q 8 89 16 79 q 0 115 -1 98 q 45 189 1 144 q 98 237 81 226 q 162 259 128 259 q 200 250 183 259 q 286 193 250 221 q 303 239 303 216 q 303 296 303 288 q 300 343 302 336 q 269 368 294 368 q 219 336 251 368 q 170 304 188 304 q 147 315 160 304 q 87 367 92 361 q 65 441 66 393 q 65 488 65 448 q 68 535 65 526 q 82 554 72 543 q 142 604 92 564 q 219 660 196 645 q 249 667 232 667 q 279 654 260 667 q 363 592 316 626 q 410 646 410 630 q 408 652 410 648 q 406 658 406 656 q 430 681 406 682 q 456 653 454 680 z "},"t":{"ha":313,"x_min":0,"x_max":293,"o":"m 293 583 q 223 581 258 581 q 222 515 223 568 q 218 328 222 436 q 203 66 216 256 q 201 22 201 28 q 217 -18 201 -7 l 254 -44 q 259 -59 264 -52 l 253 -68 q 236 -67 248 -74 l 131 -6 q 99 16 107 7 q 87 40 89 26 q 85 58 85 49 q 87 131 85 62 q 99 339 88 168 q 102 408 100 360 q 102 495 103 452 q 98 581 100 524 q 85 589 98 589 l 6 589 q 0 598 0 589 q 5 609 0 606 q 52 637 20 617 q 130 701 86 660 q 200 777 174 742 q 212 793 204 783 q 221 785 221 803 q 222 774 221 781 q 222 766 222 768 l 223 639 q 289 637 246 639 q 293 583 290 619 z "},"u":{"ha":437,"x_min":0,"x_max":416,"o":"m 416 166 q 411 154 416 157 q 343 123 389 144 q 268 83 309 106 q 237 82 252 74 q 162 117 198 103 q 73 144 97 140 q 46 146 54 146 q 34 142 43 145 q 17 137 19 136 q 22 150 9 142 q 39 159 27 152 q 41 372 43 174 l 38 553 q 23 595 38 592 q 9 593 17 595 q 0 596 0 591 q 9 607 0 602 l 105 666 q 132 673 121 675 q 146 650 144 669 q 156 468 151 618 q 150 211 163 255 q 197 222 172 222 q 245 210 224 221 q 243 309 245 218 q 252 490 241 400 q 273 635 261 550 q 261 657 274 642 q 248 671 258 661 l 236 681 q 231 694 228 688 l 233 699 q 255 699 237 709 q 370 629 298 674 q 389 615 389 615 q 389 596 393 610 q 366 449 380 562 q 366 184 349 316 q 383 166 369 162 l 405 172 q 416 166 416 176 z "},"v":{"ha":515,"x_min":-1,"x_max":492,"o":"m 490 510 q 437 402 437 441 q 434 333 437 381 q 432 278 432 288 q 425 197 433 254 q 410 127 423 182 q 397 94 406 111 q 318 41 387 74 q 261 17 294 31 q 214 0 246 11 q 160 22 197 -5 q 71 113 100 64 q 51 214 50 149 q 73 320 52 266 q 146 414 98 387 l 145 416 q 126 414 136 414 q 22 462 56 414 q 0 526 1 492 q 34 578 -1 576 q 64 553 62 579 q 57 530 64 540 q 36 524 49 521 q 73 515 54 515 q 243 549 119 515 q 287 557 273 557 q 304 551 304 557 q 301 541 304 547 q 232 414 275 496 q 190 287 200 344 q 186 177 182 239 q 196 116 188 144 q 218 75 203 91 q 235 69 227 65 q 293 151 277 92 q 305 241 303 188 q 314 349 306 251 q 329 459 319 411 q 374 541 344 528 q 463 530 410 543 q 492 515 492 524 q 490 510 492 512 z "},"w":{"ha":762,"x_min":-1,"x_max":738,"o":"m 738 543 q 718 532 738 532 q 704 511 707 532 q 699 441 702 501 q 688 271 693 356 q 656 105 679 162 q 631 54 649 87 q 585 23 614 40 q 514 -13 524 -13 q 473 5 511 -13 q 423 26 429 24 q 360 43 394 37 q 330 45 344 45 q 212 -1 231 -1 q 164 22 196 -1 q 52 214 52 101 q 89 347 52 274 q 176 459 125 420 l 175 462 q 90 433 142 433 q 26 458 52 433 q 0 524 -1 484 q 42 581 1 581 q 72 549 72 581 q 43 524 72 518 q 96 512 66 512 q 238 546 140 512 q 298 564 290 564 q 312 554 313 564 q 303 533 312 547 q 236 414 254 453 q 189 217 189 311 q 222 75 189 113 q 233 67 229 67 q 239 69 235 67 q 309 241 302 100 q 318 349 313 303 q 343 478 328 437 q 379 532 358 520 q 446 542 397 542 q 492 533 492 542 q 482 517 492 532 q 448 407 454 469 q 435 278 442 363 q 430 203 435 257 q 425 127 425 155 q 428 91 425 103 q 549 179 530 111 q 564 268 561 222 q 583 500 572 417 q 590 539 585 513 q 629 565 597 565 q 648 564 637 565 l 725 554 q 738 543 738 553 z "},"x":{"ha":515,"x_min":-2,"x_max":487,"o":"m 484 513 q 474 454 477 479 q 463 438 473 445 l 389 388 q 384 386 387 386 q 380 391 380 386 q 382 398 380 396 q 399 426 395 408 q 405 480 401 435 q 259 288 330 408 q 294 207 283 231 q 349 98 330 133 q 374 71 356 86 q 392 60 383 62 q 410 67 400 58 l 419 77 q 430 80 425 84 l 435 76 q 432 59 440 71 l 385 -9 q 365 -37 378 -21 q 343 -42 352 -44 q 323 -33 342 -41 q 298 -18 315 -27 l 276 -50 q 263 -56 268 -61 l 259 -52 q 259 -37 255 -48 l 265 -23 q 262 0 265 -24 q 253 23 262 5 q 186 156 230 65 l 183 150 l 90 -28 q 85 -33 87 -33 q 72 -27 85 -33 q 9 1 54 -18 q 0 16 -2 5 q 10 75 7 49 q 22 90 12 83 l 95 140 q 100 143 98 142 q 104 138 104 143 q 102 131 105 133 q 85 103 89 121 q 79 49 83 94 q 143 176 104 97 q 164 215 154 197 q 81 423 127 313 q 43 463 64 463 q 24 455 34 463 l 13 448 q 5 450 9 445 l 2 456 q 7 470 -2 462 l 62 517 q 94 534 83 535 q 130 529 122 533 q 191 450 164 512 l 237 341 q 412 548 319 469 q 420 553 417 553 q 433 547 422 553 q 475 528 440 543 q 484 513 487 524 z "},"y":{"ha":455,"x_min":-253,"x_max":435,"o":"m 435 488 q 349 316 400 408 q 277 191 327 277 q 216 90 238 124 q 178 33 202 68 q 141 -22 165 13 q 105 -71 120 -54 q 81 -81 96 -81 q -14 -73 36 -81 q -90 -58 -53 -67 q -172 -32 -127 -48 q -247 2 -202 -20 q -250 13 -253 5 q -239 31 -247 19 q -201 73 -223 54 l -191 82 q -173 85 -185 87 l -92 77 q -79 72 -79 76 q -92 66 -80 69 l -157 47 q -163 39 -161 47 l -170 22 q -162 7 -174 11 q -130 0 -154 5 q -68 -9 -110 -4 q 2 -13 -47 -12 q 58 -12 33 -14 q 88 35 68 4 q 149 125 102 56 q 73 385 138 163 q 57 431 66 406 q 39 440 51 439 q 30 445 31 441 q 37 452 28 452 q 127 454 81 452 l 206 457 q 221 453 222 458 q 211 446 221 449 q 198 440 203 443 q 191 433 192 438 q 190 420 189 427 q 205 357 193 404 q 231 266 215 319 q 275 342 247 293 q 311 412 286 360 q 333 471 326 444 q 298 495 321 478 q 367 491 332 492 l 435 488 z "},"z":{"ha":482,"x_min":-1,"x_max":455,"o":"m 455 41 q 397 -35 455 -37 q 355 12 354 -34 q 367 40 355 27 q 395 54 379 54 q 425 34 411 54 q 302 107 418 107 q 159 20 218 107 q 144 -3 144 -3 q 131 7 139 -3 q 52 93 85 62 q 22 83 44 100 q 15 79 18 79 q 4 87 9 79 q 0 102 -1 96 q 9 115 1 107 q 215 297 77 173 q 140 296 170 299 q 130 298 133 295 q 128 309 126 302 q 144 322 132 320 q 243 323 184 328 q 342 467 345 424 q 323 438 331 448 q 310 429 315 429 q 302 437 306 429 q 294 452 296 449 q 149 507 241 507 q 79 487 116 507 q 31 431 35 464 q 62 452 47 452 q 87 438 77 452 q 98 408 98 424 q 59 361 99 362 q 2 433 2 359 q 83 557 2 512 q 237 593 151 593 q 427 527 345 593 q 453 481 453 506 q 412 404 453 452 q 316 313 378 365 q 371 298 354 306 q 382 283 383 293 q 368 273 380 267 q 288 291 343 283 q 132 168 229 246 l 133 166 q 276 200 182 200 q 392 161 339 200 q 455 41 455 115 z "},"{":{"ha":376,"x_min":8,"x_max":347,"o":"m 345 876 q 343 873 344 875 q 328 869 340 867 l 304 871 q 285 864 290 873 q 254 808 273 843 q 238 778 248 798 q 197 778 229 775 q 234 759 221 766 q 245 741 245 753 q 245 679 245 725 q 246 612 246 633 q 136 428 246 475 q 216 346 187 401 q 241 256 241 300 q 231 128 241 176 q 220 110 231 121 q 184 92 208 102 q 224 92 199 91 q 241 60 226 89 q 271 5 259 26 q 291 -3 277 -5 l 314 0 q 331 -6 326 1 q 320 -18 334 -12 l 237 -53 q 201 -66 206 -66 q 176 -58 184 -65 q 161 -37 174 -56 q 115 30 155 -30 l 76 14 q 64 12 68 12 q 59 16 60 12 q 66 35 56 28 l 83 45 q 95 62 90 49 q 100 84 96 65 q 104 134 100 100 q 104 254 104 144 q 78 351 104 300 q 8 428 50 404 q 111 574 97 463 q 117 674 116 613 q 113 785 118 751 q 109 807 112 794 q 97 824 107 812 l 80 834 q 73 852 69 841 q 78 857 74 857 q 90 854 82 857 l 129 839 q 174 906 149 868 q 190 926 179 913 q 214 935 198 934 q 250 922 220 935 l 334 886 q 345 876 347 880 z "},"|":{"ha":378,"x_min":22,"x_max":350,"o":"m 347 560 q 336 547 345 553 q 291 517 307 527 q 243 490 275 507 q 233 489 236 486 q 224 501 231 492 q 236 511 228 506 q 245 528 245 516 q 236 566 244 538 q 222 605 231 578 q 216 610 220 609 q 205 608 212 611 q 199 602 199 606 q 201 208 198 559 q 210 177 201 188 q 239 153 212 176 q 206 154 220 154 q 139 156 130 156 q 105 153 128 156 q 69 150 81 150 q 22 163 45 150 q 43 180 29 168 q 66 201 62 196 q 76 239 75 212 q 79 435 78 319 l 81 630 q 77 631 81 633 q 70 627 73 630 q 60 625 66 623 q 56 635 51 630 q 119 697 66 648 q 175 749 137 714 q 187 755 178 752 q 197 748 196 755 q 198 701 198 720 q 200 654 199 679 q 233 675 210 660 q 265 696 243 682 q 279 700 273 700 q 293 692 289 699 q 346 576 314 654 q 347 560 350 567 z "},"}":{"ha":377,"x_min":24,"x_max":363,"o":"m 363 428 q 294 351 322 404 q 267 254 267 300 q 268 134 267 144 q 272 84 269 115 q 277 62 273 75 q 288 45 278 56 l 305 35 q 312 16 316 28 q 307 12 311 12 q 296 14 303 12 l 256 30 q 211 -37 237 1 q 195 -58 206 -45 q 171 -66 187 -65 q 135 -53 165 -66 l 52 -18 q 41 -6 38 -12 q 42 -5 41 -5 q 58 0 45 1 l 81 -3 q 100 5 95 -5 q 131 60 113 26 q 147 92 137 71 q 188 92 156 94 q 151 110 164 102 q 140 128 143 114 q 130 256 130 176 q 155 346 130 300 q 235 428 184 401 q 125 612 125 475 q 126 679 125 633 q 127 741 127 725 q 139 760 127 753 q 174 778 151 766 q 134 778 159 778 q 117 808 132 781 q 87 864 99 843 q 67 871 81 873 l 44 869 q 27 876 32 867 q 38 886 24 880 l 121 922 q 157 935 152 935 q 182 926 174 934 q 197 906 184 925 q 242 839 203 899 l 282 854 q 294 857 290 857 q 298 852 298 857 q 292 834 302 841 l 275 824 q 263 807 269 820 q 258 785 262 804 q 255 674 254 751 q 260 574 256 613 q 363 428 275 463 z "},"~":{"ha":534,"x_min":53,"x_max":492,"o":"m 492 880 q 487 865 492 874 q 450 797 454 802 q 364 753 416 753 q 247 789 317 753 q 147 825 176 825 q 98 808 121 825 q 72 791 75 791 q 60 799 67 791 q 56 812 53 807 q 111 873 76 845 q 193 907 154 907 q 302 878 239 907 q 389 850 366 850 q 463 886 440 850 q 472 895 469 895 q 492 880 492 895 z "},"¡":{"ha":406,"x_min":83,"x_max":347,"o":"m 340 626 q 336 608 347 615 l 322 600 q 262 564 302 587 q 208 533 241 552 q 180 541 191 524 q 166 567 175 550 q 149 597 160 578 q 131 607 140 612 l 119 600 q 109 608 112 595 q 116 624 106 618 l 193 673 q 233 693 224 693 q 258 685 250 693 q 276 658 265 675 q 293 629 281 648 q 309 625 297 622 l 327 631 q 340 626 334 634 m 338 537 q 332 523 342 530 l 294 498 q 277 460 279 488 q 276 397 275 419 q 275 328 276 380 q 275 256 275 264 q 273 81 275 159 q 271 -71 273 23 q 271 -103 271 -77 q 270 -139 270 -123 q 280 -164 270 -156 q 300 -180 290 -173 q 302 -192 307 -185 q 290 -197 298 -199 q 206 -178 260 -190 q 130 -160 178 -171 q 89 -150 110 -156 q 84 -137 83 -148 q 94 -130 85 -129 l 111 -132 q 130 -113 130 -133 q 132 36 131 -93 q 132 197 132 34 q 133 272 132 217 q 133 338 133 333 q 134 378 133 351 q 135 412 135 404 q 151 452 135 437 q 184 473 157 458 l 315 547 q 332 546 327 553 l 338 537 z "},"¢":{"ha":512,"x_min":51,"x_max":468,"o":"m 460 483 q 368 433 420 461 q 349 425 355 425 q 335 439 347 425 q 287 532 315 478 q 270 565 281 543 l 258 203 l 260 202 q 277 204 271 197 q 287 223 278 207 q 308 262 295 237 q 333 326 311 269 q 341 333 337 336 q 354 319 345 328 q 382 288 371 301 q 413 250 406 258 q 418 238 420 241 q 385 205 407 227 q 356 181 368 189 q 318 173 345 174 q 269 172 298 172 l 258 172 l 255 90 l 222 56 l 225 172 q 203 173 214 172 q 170 189 193 174 q 126 214 154 197 q 84 247 112 226 l 60 264 q 54 281 57 267 q 51 315 51 295 q 52 347 51 324 q 54 380 54 368 q 54 431 54 395 q 56 507 53 456 q 59 541 55 511 q 70 557 60 546 q 145 605 96 574 q 210 644 167 618 q 233 652 224 652 l 240 652 l 242 708 l 275 748 l 272 646 q 315 629 287 640 q 374 606 336 622 q 386 595 382 602 q 413 541 392 582 q 433 503 419 530 q 458 499 440 488 q 460 483 468 489 m 239 617 q 230 616 236 620 q 220 607 223 612 q 209 578 214 599 q 201 526 204 557 q 199 446 201 522 q 199 401 199 431 q 199 322 197 359 q 202 253 199 299 q 227 221 205 237 l 239 617 z "},"£":{"ha":740,"x_min":-7,"x_max":717,"o":"m 712 -62 q 684 -118 703 -81 q 675 -125 679 -125 q 658 -121 667 -123 q 497 -75 553 -104 q 481 -66 481 -66 q 490 -55 481 -64 q 585 29 528 -22 q 596 41 596 40 q 583 51 596 43 q 507 65 559 64 q 157 -88 302 68 q 119 -87 141 -104 q 9 3 88 -60 q 0 23 -7 14 q 19 25 9 34 l 26 19 q 51 30 36 10 q 155 119 91 82 q 98 151 129 132 q 90 197 86 168 q 99 372 96 246 q 63 368 76 370 q 41 374 47 366 q 9 428 21 404 q 4 441 3 439 q 22 446 5 444 q 101 454 50 450 q 100 605 102 505 q 106 667 99 636 q 144 739 115 703 q 190 787 167 763 q 236 836 213 812 q 261 887 259 864 q 269 839 281 874 q 355 857 297 857 q 587 792 488 857 q 648 692 646 754 q 583 613 650 613 q 548 626 562 613 q 533 656 533 638 q 548 687 533 674 q 583 699 562 699 q 584 707 584 703 q 496 747 584 747 q 329 671 386 747 q 298 656 317 656 q 251 682 269 656 q 250 473 251 616 l 250 458 q 296 454 281 456 q 316 445 308 452 q 380 373 343 414 q 382 368 382 371 q 363 363 382 359 q 250 378 322 374 q 237 160 248 235 q 390 183 311 184 q 690 98 571 181 q 717 70 717 79 q 711 56 717 64 q 670 1 701 38 q 618 -60 654 -18 q 700 -52 667 -47 q 712 -62 715 -54 z "},"¤":{"ha":755,"x_min":-103,"x_max":704,"o":"m 701 12 q 656 -63 688 -16 q 543 -75 606 -75 q 224 -1 355 -75 q 60 186 106 64 l 44 184 q 20 189 25 182 q -17 243 -3 220 q -22 257 -24 255 q -3 262 -21 259 q 39 267 14 264 q 35 324 35 294 q 1 321 13 322 q -24 326 -18 319 q -60 380 -47 357 q -66 393 -67 391 q -47 398 -64 396 q 41 406 -16 402 q 47 435 43 420 q -1 425 23 425 q -70 452 -41 425 q -100 519 -98 478 q -39 593 -103 592 q -5 563 -6 594 q -32 533 -5 533 q -44 535 -38 533 q -9 496 -43 496 q 54 526 23 496 q 108 640 96 566 q 174 788 123 735 q 251 852 182 797 q 298 913 294 887 q 328 897 313 908 q 311 853 326 876 q 357 869 349 871 q 387 846 370 867 q 420 804 414 812 q 584 717 510 717 q 633 743 633 717 q 631 753 633 748 q 582 795 582 753 q 631 838 582 838 q 701 759 696 838 q 650 643 704 688 q 489 596 595 597 q 366 629 431 595 q 277 704 300 664 q 281 648 281 665 q 216 519 281 566 q 219 410 213 464 q 267 407 251 409 q 289 397 279 405 q 361 326 319 367 q 364 321 364 323 q 342 316 364 311 q 233 329 307 323 q 250 275 241 301 q 310 271 290 273 q 332 261 323 269 q 406 189 363 230 q 408 184 408 186 q 386 180 408 175 q 291 191 357 186 q 615 7 400 16 q 659 98 639 48 q 701 12 665 82 z "},"¥":{"ha":982,"x_min":93,"x_max":935,"o":"m 935 776 q 930 759 935 774 q 835 660 901 671 q 793 663 815 656 q 677 518 777 631 q 585 345 597 427 l 585 335 q 622 332 609 334 q 644 323 634 330 q 716 251 674 292 q 719 246 719 249 q 697 241 719 237 q 586 254 661 250 l 585 199 q 637 196 621 198 q 660 186 650 194 q 733 115 691 155 q 736 110 735 112 q 713 105 736 100 q 585 119 668 115 q 586 32 585 68 q 597 -6 587 3 q 626 -20 604 -12 q 635 -28 633 -22 q 636 -38 638 -34 q 628 -41 634 -42 q 591 -33 615 -38 q 533 -25 572 -29 q 409 -20 511 -23 q 355 -20 391 -20 q 351 -12 351 -20 q 358 -2 350 -6 q 371 3 363 -1 q 406 24 394 13 q 419 52 417 36 q 424 115 422 81 q 372 110 391 112 q 348 115 354 108 q 311 169 324 146 q 305 182 304 180 q 325 187 307 184 q 425 196 359 192 q 425 252 425 227 q 355 246 383 250 q 331 252 337 244 q 294 306 308 282 q 289 319 288 317 q 308 323 290 321 q 410 333 344 328 q 300 496 382 396 q 175 712 223 590 q 107 786 148 781 q 93 802 93 787 q 104 817 93 814 q 151 819 122 822 q 245 810 238 810 q 351 828 247 810 q 395 827 388 834 q 399 813 399 824 q 393 800 400 802 l 368 790 q 351 760 351 783 q 363 718 351 738 q 458 585 380 688 q 548 427 515 509 q 646 572 577 504 q 745 678 730 655 q 675 717 707 688 q 630 760 655 737 q 612 760 622 764 q 596 753 607 758 q 582 754 585 749 q 572 764 578 758 q 574 774 570 770 q 661 843 626 820 q 701 848 682 857 q 775 806 724 834 q 861 765 804 787 q 901 773 884 762 q 922 791 918 783 q 932 793 927 798 q 935 776 934 791 z "},"¨":{"ha":415,"x_min":54,"x_max":389,"o":"m 388 891 q 383 878 389 884 l 332 840 q 306 824 312 824 q 290 831 295 823 q 278 852 285 838 q 267 875 275 859 q 256 877 264 880 l 244 873 q 236 877 239 871 q 239 891 231 886 l 248 898 q 322 950 272 916 q 340 944 334 958 q 350 924 344 937 q 361 900 354 915 q 373 892 367 888 l 381 898 q 388 891 386 901 m 212 891 q 207 878 213 884 l 156 840 q 130 824 136 824 q 114 831 119 823 q 102 852 109 838 q 91 875 98 859 q 80 877 87 880 l 68 873 q 60 877 63 871 q 62 891 54 886 l 71 898 q 146 950 96 916 q 164 944 157 958 q 174 924 168 937 q 185 900 178 915 q 197 892 191 888 l 205 898 q 212 891 210 901 z "},"©":{"ha":860,"x_min":-1,"x_max":819,"o":"m 819 335 q 811 267 819 294 q 740 165 803 237 q 617 43 650 62 q 466 -5 539 -5 q 106 115 232 -6 q 0 382 2 216 q 52 551 -1 467 q 226 727 103 633 q 446 859 304 787 l 464 840 q 437 817 452 827 q 680 662 585 758 q 819 335 819 522 m 717 295 q 665 499 717 404 q 513 654 623 578 q 346 754 474 681 q 226 661 304 734 q 153 574 173 610 q 117 441 117 507 q 138 321 117 383 q 211 202 158 264 q 418 85 287 113 q 531 79 445 79 q 611 138 554 79 q 673 208 642 174 q 717 295 717 255 m 605 475 q 519 426 568 454 q 501 419 507 418 q 489 433 499 419 q 444 524 470 471 q 422 568 435 541 q 402 605 416 583 q 389 606 398 612 q 381 598 385 603 q 371 570 375 590 q 364 518 367 549 q 362 440 363 514 q 361 395 362 425 q 362 317 361 353 q 365 249 362 294 q 372 232 366 241 q 395 213 378 224 q 419 199 406 205 q 434 201 429 194 q 444 220 436 203 q 463 258 451 233 q 486 320 466 265 q 494 328 490 330 q 507 314 498 323 q 532 283 522 296 q 561 245 554 254 q 566 234 568 237 q 534 201 555 224 q 508 178 519 186 q 473 170 497 171 q 427 169 454 170 q 396 168 408 168 q 366 170 379 169 q 334 185 356 171 q 294 211 320 194 q 255 243 281 222 l 233 260 q 227 277 229 263 q 224 310 224 291 q 225 341 224 319 q 227 374 227 363 q 227 425 227 389 q 229 499 226 450 q 231 533 228 504 q 242 549 232 538 q 312 596 266 566 q 372 634 332 609 q 393 643 385 642 q 414 642 408 643 q 470 619 433 634 q 524 597 489 613 q 536 586 532 593 q 561 534 542 573 q 580 495 567 522 q 603 492 587 481 q 605 475 612 481 z "},"®":{"ha":860,"x_min":-1,"x_max":819,"o":"m 819 335 q 811 267 819 294 q 740 165 803 237 q 617 43 650 62 q 466 -5 539 -5 q 278 21 366 -5 l 263 -76 l 261 -76 l 247 31 q 106 115 162 62 q 0 382 2 216 q 52 551 -1 467 q 226 727 103 633 q 446 859 304 787 l 464 840 q 437 817 452 827 q 680 662 585 758 q 819 335 819 522 m 717 295 q 665 499 717 404 q 513 654 623 578 q 346 754 474 681 q 226 661 304 734 q 153 574 173 610 q 117 441 117 507 q 138 321 117 383 q 227 184 164 247 l 214 290 l 246 263 l 223 452 l 261 425 l 247 537 q 239 545 245 547 l 222 542 q 215 549 215 541 q 220 557 215 553 q 282 604 237 568 q 347 660 334 646 q 357 671 351 664 q 363 674 360 675 q 368 665 368 673 q 361 557 366 624 q 418 635 397 617 q 442 643 432 646 q 566 567 488 630 q 583 548 574 561 q 572 519 583 541 q 416 336 524 420 l 503 353 q 503 324 503 350 q 578 132 503 197 l 576 131 q 365 332 397 127 q 473 526 475 469 q 447 559 472 537 q 416 578 422 582 q 361 514 407 574 l 356 264 l 328 309 l 324 125 l 299 163 l 295 133 q 418 85 353 98 q 531 79 445 79 q 611 138 554 79 q 673 208 642 174 q 717 295 717 255 z "},"±":{"ha":551,"x_min":42,"x_max":494,"o":"m 488 374 q 466 366 488 362 q 358 380 404 378 q 311 381 340 382 l 311 370 q 326 229 315 315 q 326 216 328 219 q 312 215 322 212 q 234 240 279 222 q 222 267 226 246 q 218 379 222 298 q 125 370 183 377 q 96 376 104 368 q 51 438 80 399 q 42 455 42 450 q 64 465 42 462 q 215 477 137 473 q 223 643 216 570 q 225 661 224 659 q 241 662 228 666 q 308 640 269 652 q 315 611 317 637 q 309 516 310 557 q 309 477 309 498 q 410 469 366 474 q 438 458 420 469 q 467 416 448 447 q 488 374 488 381 m 490 62 q 494 56 493 59 q 473 51 494 45 q 347 68 427 63 q 147 55 261 73 q 123 62 130 53 q 81 128 98 100 q 75 143 75 140 q 92 151 75 147 q 282 168 179 166 q 390 162 345 169 q 412 151 402 160 q 490 62 446 113 z "},"²":{"ha":2466,"x_min":302,"x_max":2340,"o":"m 2340 304 q 2290 119 2317 231 q 2247 -67 2268 26 q 2197 -429 2207 -231 q 1829 -527 2087 -481 q 1474 -567 1598 -567 q 1388 -524 1388 -567 q 1417 -457 1388 -498 q 1586 -207 1516 -316 q 1487 -210 1537 -210 q 1430 -165 1430 -210 q 1501 14 1430 -142 q 1437 10 1470 10 q 1246 35 1337 10 l 1325 -44 q 1346 -85 1347 -66 q 1324 -125 1344 -106 q 1281 -144 1304 -144 q 1251 -132 1264 -144 l 1107 13 q 1014 -11 1053 -11 q 924 35 960 -11 q 910 35 916 35 q 876 39 890 35 q 806 92 857 44 q 739 157 772 124 q 527 289 527 163 q 552 353 527 330 q 597 382 574 368 q 592 415 592 399 q 627 496 592 459 l 370 778 q 330 853 355 794 q 302 940 302 916 q 335 980 302 980 q 382 972 347 980 q 659 919 527 940 q 739 893 692 913 q 818 861 805 865 q 1096 798 937 821 q 1272 711 1137 793 q 1454 602 1363 657 q 1653 460 1540 557 q 1721 536 1677 506 q 1816 568 1767 568 q 2082 464 1883 568 q 2340 304 2267 367 m 822 643 q 748 682 772 656 l 747 683 q 560 772 625 703 q 433 801 516 779 l 433 784 l 680 547 q 822 643 727 582 z "},"³":{"ha":2772,"x_min":40,"x_max":2078,"o":"m 2078 939 q 2051 853 2078 915 q 2011 778 2026 794 l 1754 496 q 1788 415 1788 459 q 1784 382 1788 399 q 1828 353 1807 368 q 1854 289 1854 330 q 1642 157 1854 163 q 1575 92 1608 124 q 1505 39 1525 44 q 1471 35 1491 35 q 1457 35 1466 35 q 1367 -11 1421 -11 q 1274 13 1329 -11 l 1130 -132 q 1099 -144 1117 -144 q 1057 -125 1077 -144 q 1035 -85 1036 -106 q 1056 -44 1034 -66 l 1135 35 q 944 10 1044 10 q 879 14 911 10 q 951 -165 951 -142 q 894 -210 951 -210 q 795 -207 844 -210 q 964 -457 865 -316 q 993 -524 993 -498 q 907 -567 993 -567 q 552 -527 783 -567 q 184 -429 294 -481 q 134 -67 174 -231 q 40 304 107 58 q 299 464 114 367 q 565 568 498 568 q 661 536 614 568 q 728 460 704 506 q 927 602 839 555 q 1133 722 981 630 q 1285 796 1246 791 q 1563 860 1440 819 q 1722 919 1615 884 q 1999 971 1865 942 q 2046 979 2033 979 q 2078 939 2078 979 m 1948 801 q 1821 772 1864 779 q 1634 684 1757 705 l 1632 683 q 1559 643 1608 655 q 1701 547 1600 621 l 1948 784 l 1948 801 z "},"´":{"ha":426,"x_min":92,"x_max":313,"o":"m 313 968 q 306 951 313 951 q 296 954 302 951 q 287 956 290 956 q 244 906 275 956 q 167 856 212 856 q 125 865 153 856 q 92 884 92 874 q 99 903 92 903 q 106 900 101 903 q 115 897 112 897 q 165 952 136 897 q 236 1007 193 1007 q 309 975 269 1007 q 313 968 313 971 z "},"·":{"ha":254,"x_min":30,"x_max":220,"o":"m 218 510 q 212 494 220 500 l 151 448 q 120 430 127 430 q 100 438 106 429 q 86 463 94 447 q 73 490 82 472 q 60 493 70 496 l 46 488 q 36 492 40 486 q 39 510 30 503 l 50 517 q 97 551 66 529 q 140 580 114 562 q 161 572 153 589 q 172 548 165 564 q 186 520 178 538 q 201 511 193 506 l 210 517 q 218 510 216 522 z "},"∙":{"ha":254,"x_min":30,"x_max":220,"o":"m 218 510 q 212 494 220 500 l 151 448 q 120 430 127 430 q 100 438 106 429 q 86 463 94 447 q 73 490 82 472 q 60 493 70 496 l 46 488 q 36 492 40 486 q 39 510 30 503 l 50 517 q 97 551 66 529 q 140 580 114 562 q 161 572 153 589 q 172 548 165 564 q 186 520 178 538 q 201 511 193 506 l 210 517 q 218 510 216 522 z "},"¸":{"ha":501,"x_min":104,"x_max":383,"o":"m 383 -92 q 260 -236 383 -179 q 242 -239 252 -239 q 138 -229 207 -236 q 118 -226 122 -227 q 110 -216 111 -223 q 108 -193 109 -208 l 106 -162 q 109 -141 104 -142 q 127 -147 113 -140 q 229 -185 153 -158 q 237 -186 233 -187 q 256 -179 245 -186 q 291 -119 291 -154 q 248 -69 291 -88 q 178 -54 214 -55 q 161 -62 165 -53 q 155 -71 157 -71 q 146 -60 145 -71 q 165 -5 153 -41 q 214 30 178 30 q 316 -1 261 30 q 383 -92 383 -38 z "},"¼":{"ha":979,"x_min":76,"x_max":922,"o":"m 916 855 q 908 832 922 854 q 886 822 903 825 q 840 796 865 818 q 719 654 796 758 q 600 491 659 572 l 396 212 q 311 92 359 161 q 294 52 297 70 q 304 33 292 33 l 321 32 q 330 22 330 31 q 320 3 330 9 q 233 1 315 -1 q 134 3 194 1 q 83 5 114 3 q 90 28 76 6 q 113 39 95 36 q 159 64 134 42 q 322 269 189 90 q 513 533 420 399 q 677 766 565 602 q 696 812 696 795 q 686 825 696 824 l 671 826 q 661 836 661 827 q 671 857 661 851 q 728 859 693 858 q 827 859 755 861 q 916 855 867 858 m 315 395 l 293 395 q 227 395 281 395 q 185 395 212 395 l 168 395 q 160 399 160 395 q 168 406 160 401 l 183 413 q 190 421 190 416 l 190 473 q 191 543 190 480 q 191 678 192 622 q 190 798 189 764 q 174 808 191 808 l 138 808 q 131 808 133 808 q 136 814 124 809 l 234 862 q 257 867 249 869 q 269 864 264 865 q 275 856 274 862 l 277 831 q 279 790 279 811 l 279 686 q 281 587 279 605 q 283 528 281 568 q 292 448 285 508 q 295 421 293 439 q 300 408 296 410 l 312 403 q 315 395 330 395 m 857 119 q 817 76 857 76 q 787 102 787 76 q 815 127 787 127 q 832 123 823 127 q 775 159 817 148 l 775 127 q 776 60 775 81 q 787 36 777 36 l 811 37 q 818 31 816 37 q 818 24 820 26 q 793 15 814 19 q 681 -16 729 2 q 650 -26 669 -20 q 644 -16 645 -27 q 656 3 644 -11 q 677 34 672 20 q 685 113 684 53 q 685 167 685 123 q 551 125 587 163 q 541 119 546 119 q 525 129 534 120 q 484 179 511 147 q 469 168 479 176 q 455 170 461 162 q 456 185 450 180 q 699 450 552 291 q 758 512 741 496 q 768 524 762 516 q 781 525 772 528 q 788 513 789 522 q 782 439 785 489 q 776 250 776 303 q 776 217 776 243 q 857 119 857 178 m 686 383 q 532 217 621 310 q 665 244 595 244 q 684 243 674 244 l 684 249 q 686 383 686 383 z "},"½":{"ha":979,"x_min":76,"x_max":925,"o":"m 916 855 q 908 832 922 854 q 886 822 903 825 q 840 796 865 818 q 719 654 796 758 q 600 491 659 572 l 396 212 q 311 92 359 161 q 294 52 297 70 q 304 33 292 33 l 321 32 q 330 22 330 31 q 320 3 330 9 q 233 1 315 -1 q 134 3 194 1 q 83 5 114 3 q 90 28 76 6 q 113 39 95 36 q 159 64 134 42 q 322 269 189 90 q 513 533 420 399 q 677 766 565 602 q 696 812 696 795 q 686 825 696 824 l 671 826 q 661 836 661 827 q 671 857 661 851 q 728 859 693 858 q 827 859 755 861 q 916 855 867 858 m 317 394 l 295 393 q 229 394 284 393 q 188 394 214 393 l 170 394 q 162 398 162 394 q 170 404 162 400 l 185 412 q 193 420 193 415 l 193 472 q 193 542 193 479 q 193 677 194 621 q 193 796 192 762 q 176 806 193 806 l 140 806 q 133 806 136 806 q 138 813 126 808 l 236 861 q 259 866 251 868 q 273 862 267 864 q 277 854 276 860 l 279 829 q 281 789 281 810 l 282 685 q 283 586 282 604 q 286 527 284 566 q 294 446 288 507 q 297 420 295 437 q 302 407 298 409 l 315 401 q 317 394 332 394 m 918 93 q 863 24 899 72 q 802 1 850 1 q 699 18 744 1 q 630 29 666 29 q 581 23 610 30 q 715 199 676 135 q 765 337 765 282 q 688 404 765 404 q 624 368 654 404 q 613 364 619 362 l 607 366 q 606 375 601 367 q 661 444 626 399 q 686 481 671 460 l 709 477 q 706 467 707 473 q 827 441 766 469 q 902 342 902 406 q 829 217 902 284 q 671 82 750 149 q 747 96 711 96 q 807 88 774 96 q 860 78 852 78 q 901 98 880 78 q 914 103 909 104 q 918 93 925 100 z "},"¾":{"ha":979,"x_min":50,"x_max":922,"o":"m 916 855 q 908 832 922 854 q 886 822 903 825 q 840 796 865 818 q 719 654 796 758 q 600 491 659 572 l 396 212 q 311 92 359 161 q 294 52 297 70 q 304 33 292 33 l 321 32 q 330 22 330 31 q 320 3 330 9 q 233 1 315 -1 q 134 3 194 1 q 83 5 114 3 q 90 28 76 6 q 113 39 95 36 q 159 64 134 42 q 322 269 189 90 q 513 533 420 399 q 677 766 565 602 q 696 812 696 795 q 686 825 696 824 l 671 826 q 661 836 661 827 q 671 857 661 851 q 728 859 693 858 q 827 859 755 861 q 916 855 867 858 m 877 119 q 838 76 877 76 q 808 102 808 76 q 836 127 808 127 q 852 123 844 127 q 795 159 838 148 l 795 127 q 796 60 795 81 q 808 36 797 36 l 831 37 q 838 31 836 37 q 838 24 840 26 q 813 15 835 19 q 701 -16 749 2 q 670 -26 689 -20 q 664 -16 665 -27 q 677 3 664 -11 q 697 34 692 20 q 705 113 704 53 q 705 167 705 123 q 572 125 608 163 q 561 119 566 119 q 545 129 554 120 q 504 179 531 147 q 489 168 500 176 q 475 170 481 162 q 477 185 470 180 q 719 450 572 291 q 778 512 761 496 q 789 524 782 516 q 801 525 793 528 q 808 513 810 522 q 802 439 806 489 q 796 250 796 303 q 796 217 796 243 q 877 119 877 178 m 707 383 q 552 217 642 310 q 686 244 616 244 q 705 243 694 244 l 705 249 q 707 383 707 383 m 405 523 q 330 414 405 474 q 264 369 290 384 q 235 361 251 361 q 196 378 209 361 q 114 442 145 442 q 89 431 100 442 q 77 408 77 419 q 79 403 77 405 q 93 408 85 408 q 116 387 116 408 q 87 363 116 363 q 51 401 51 364 q 77 464 51 439 q 157 497 112 497 q 228 471 201 497 q 265 432 247 453 q 281 421 275 421 q 289 424 284 421 q 317 488 317 441 q 267 563 317 530 q 181 606 245 577 q 160 596 172 602 q 150 594 153 593 q 146 599 149 595 q 147 604 142 602 q 175 622 157 611 q 241 678 206 642 q 286 751 286 724 q 275 781 286 772 q 177 756 243 756 q 92 772 129 756 q 50 823 50 791 q 87 861 50 861 q 114 840 114 861 q 87 820 114 820 q 85 814 85 817 q 109 801 85 802 q 221 846 165 800 q 254 878 230 853 l 275 869 q 264 856 271 863 q 358 823 321 848 q 396 768 396 799 q 267 644 396 707 q 405 523 405 593 z "},"¿":{"ha":437,"x_min":26,"x_max":437,"o":"m 327 821 q 324 804 333 811 l 313 797 q 266 764 297 785 q 223 734 249 751 q 201 742 210 725 q 190 766 197 750 q 176 794 185 777 q 162 803 170 808 l 153 797 q 144 804 146 793 q 151 820 142 813 l 211 866 q 243 884 235 884 q 263 877 256 884 q 277 851 268 867 q 290 823 281 842 q 302 821 293 818 l 317 827 q 327 821 323 829 m 431 235 q 365 79 414 200 q 331 3 349 41 l 301 11 q 307 30 304 16 q 288 29 298 29 q 124 73 195 29 q 26 262 26 135 q 154 552 26 427 q 215 605 162 560 q 236 647 235 623 q 231 678 236 663 q 237 703 226 694 q 319 760 294 745 q 332 752 326 764 q 344 708 344 734 q 307 605 344 670 q 237 479 245 498 q 200 320 200 398 q 243 210 200 247 q 328 180 278 180 q 409 248 371 180 q 422 256 415 258 l 431 252 q 431 235 437 250 z "},"À":{"ha":1057,"x_min":0,"x_max":1023,"o":"m 1023 -105 q 1022 -129 1029 -127 q 970 -132 1014 -130 q 871 -133 885 -134 q 780 -132 836 -134 q 736 -126 762 -132 q 731 -113 732 -123 q 737 -98 730 -101 l 771 -82 q 780 -65 780 -79 q 772 -29 780 -53 q 727 95 758 9 q 686 211 713 134 q 653 154 675 190 q 604 91 635 132 q 549 35 585 66 q 532 32 537 25 q 465 129 512 60 q 332 224 408 215 q 216 17 290 139 q 280 -5 248 9 q 317 -20 298 -12 q 348 -24 327 -24 q 371 -1 357 -24 q 382 3 377 9 q 392 -7 386 0 q 391 -20 395 -12 q 314 -122 345 -94 q 245 -150 282 -150 q 163 -134 218 -150 q 60 -91 121 -115 q 23 -104 38 -85 q 9 -109 15 -114 q 0 -90 -4 -98 q 58 1 31 -23 q 138 28 88 28 q 173 26 153 28 q 279 221 231 122 q 222 194 245 214 q 180 129 200 175 q 168 110 172 110 q 159 116 164 110 q 91 197 134 147 q 105 199 98 199 q 132 190 118 199 q 153 178 151 178 q 289 302 193 276 q 319 305 301 304 q 402 507 361 401 q 343 528 372 511 q 293 581 314 545 q 271 651 271 616 q 294 696 271 685 q 334 676 323 709 q 319 627 347 640 q 334 606 320 610 q 355 608 345 603 q 416 723 395 627 q 431 794 418 754 q 460 792 435 797 q 444 819 448 808 l 461 832 q 553 770 491 804 q 614 739 583 754 q 675 677 654 713 q 705 614 694 648 l 774 398 q 866 132 823 245 q 896 52 881 92 q 942 -37 921 -10 q 991 -79 958 -59 q 1023 -105 1020 -96 m 667 269 q 517 661 589 491 q 477 549 515 594 l 410 394 q 369 302 387 341 q 409 294 392 299 q 540 178 471 273 q 568 214 551 189 q 593 262 578 229 q 608 270 597 270 q 667 269 648 271 m 581 872 q 548 853 581 863 q 506 844 519 844 q 430 894 461 844 q 387 944 398 944 q 377 942 383 944 q 368 940 370 940 q 359 957 359 940 q 364 964 359 960 q 437 996 404 996 q 508 940 479 996 q 558 885 536 885 q 567 888 562 885 q 574 891 572 891 q 581 872 581 891 z "},"Á":{"ha":1057,"x_min":0,"x_max":1023,"o":"m 1023 -105 q 1022 -129 1029 -127 q 970 -132 1014 -130 q 871 -133 885 -134 q 780 -132 836 -134 q 736 -126 762 -132 q 731 -113 732 -123 q 737 -98 730 -101 l 771 -82 q 780 -65 780 -79 q 772 -29 780 -53 q 727 95 758 9 q 686 211 713 134 q 653 154 675 190 q 604 91 635 132 q 549 35 585 66 q 532 32 537 25 q 465 129 512 60 q 332 224 408 215 q 216 17 290 139 q 280 -5 248 9 q 317 -20 298 -12 q 348 -24 327 -24 q 371 -1 357 -24 q 382 3 377 9 q 392 -7 386 0 q 391 -20 395 -12 q 314 -122 345 -94 q 245 -150 282 -150 q 163 -134 218 -150 q 60 -91 121 -115 q 23 -104 38 -85 q 9 -109 15 -114 q 0 -90 -4 -98 q 58 1 31 -23 q 138 28 88 28 q 173 26 153 28 q 279 221 231 122 q 222 194 245 214 q 180 129 200 175 q 168 110 172 110 q 159 116 164 110 q 91 197 134 147 q 105 199 98 199 q 132 190 118 199 q 153 178 151 178 q 289 302 193 276 q 319 305 301 304 q 402 507 361 401 q 343 528 372 511 q 293 581 314 545 q 271 651 271 616 q 294 696 271 685 q 334 676 323 709 q 319 627 347 640 q 334 606 320 610 q 355 608 345 603 q 416 723 395 627 q 431 794 418 754 q 460 792 435 797 q 444 819 448 808 l 461 832 q 553 770 491 804 q 614 739 583 754 q 675 677 654 713 q 705 614 694 648 l 774 398 q 866 132 823 245 q 896 52 881 92 q 942 -37 921 -10 q 991 -79 958 -59 q 1023 -105 1020 -96 m 667 269 q 517 661 589 491 q 477 549 515 594 l 410 394 q 369 302 387 341 q 409 294 392 299 q 540 178 471 273 q 568 214 551 189 q 593 262 578 229 q 608 270 597 270 q 667 269 648 271 m 680 955 q 672 938 680 938 q 663 940 669 938 q 653 942 656 942 q 610 892 642 942 q 533 842 578 842 q 491 851 519 842 q 458 870 458 861 q 465 889 458 889 q 473 886 467 889 q 481 883 478 883 q 531 938 503 883 q 602 994 559 994 q 675 962 635 994 q 680 955 680 958 z "},"Â":{"ha":1057,"x_min":0,"x_max":1023,"o":"m 1023 -105 q 1022 -129 1029 -127 q 970 -132 1014 -130 q 871 -133 885 -134 q 780 -132 836 -134 q 736 -126 762 -132 q 731 -113 732 -123 q 737 -98 730 -101 l 771 -82 q 780 -65 780 -79 q 772 -29 780 -53 q 727 95 758 9 q 686 211 713 134 q 653 154 675 190 q 604 91 635 132 q 549 35 585 66 q 532 32 537 25 q 465 129 512 60 q 332 224 408 215 q 216 17 290 139 q 280 -5 248 9 q 317 -20 298 -12 q 348 -24 327 -24 q 371 -1 357 -24 q 382 3 377 9 q 392 -7 386 0 q 391 -20 395 -12 q 314 -122 345 -94 q 245 -150 282 -150 q 163 -134 218 -150 q 60 -91 121 -115 q 23 -104 38 -85 q 9 -109 15 -114 q 0 -90 -4 -98 q 58 1 31 -23 q 138 28 88 28 q 173 26 153 28 q 279 221 231 122 q 222 194 245 214 q 180 129 200 175 q 168 110 172 110 q 159 116 164 110 q 91 197 134 147 q 105 199 98 199 q 132 190 118 199 q 153 178 151 178 q 289 302 193 276 q 319 305 301 304 q 402 507 361 401 q 343 528 372 511 q 293 581 314 545 q 271 651 271 616 q 294 696 271 685 q 334 676 323 709 q 319 627 347 640 q 334 606 320 610 q 355 608 345 603 q 416 723 395 627 q 431 794 418 754 q 460 792 435 797 q 444 819 448 808 l 461 832 q 553 770 491 804 q 614 739 583 754 q 675 677 654 713 q 705 614 694 648 l 774 398 q 866 132 823 245 q 896 52 881 92 q 942 -37 921 -10 q 991 -79 958 -59 q 1023 -105 1020 -96 m 667 269 q 517 661 589 491 q 477 549 515 594 l 410 394 q 369 302 387 341 q 409 294 392 299 q 540 178 471 273 q 568 214 551 189 q 593 262 578 229 q 608 270 597 270 q 667 269 648 271 m 678 927 q 675 911 684 922 q 640 873 648 880 q 597 848 615 848 q 523 898 566 847 q 464 854 492 870 q 451 848 454 848 q 438 853 446 848 q 383 886 411 868 q 388 897 383 894 q 434 926 405 907 q 487 962 448 936 q 534 1000 505 977 q 548 991 543 997 q 530 972 538 982 q 553 969 543 974 q 585 951 564 965 q 631 921 602 939 q 643 917 637 917 q 652 920 642 917 q 667 928 657 923 q 678 927 673 932 z "},"Ã":{"ha":1062,"x_min":5,"x_max":1028,"o":"m 1028 -105 q 1027 -129 1035 -127 q 975 -132 1019 -130 q 876 -133 890 -134 q 785 -132 841 -134 q 741 -126 767 -132 q 736 -113 737 -123 q 743 -98 736 -101 l 777 -82 q 785 -65 785 -79 q 777 -29 785 -53 q 732 95 764 9 q 692 211 718 134 q 659 154 681 190 q 609 91 641 132 q 555 35 590 66 q 538 32 543 25 q 471 129 517 60 q 337 224 414 215 q 222 17 295 139 q 286 -5 254 9 q 322 -20 304 -12 q 353 -24 332 -24 q 376 -1 362 -24 q 388 3 382 9 q 397 -7 391 0 q 397 -20 401 -12 q 319 -122 351 -94 q 250 -150 288 -150 q 168 -134 223 -150 q 66 -91 126 -115 q 28 -104 43 -85 q 15 -109 20 -114 q 5 -90 1 -98 q 64 1 36 -23 q 143 28 94 28 q 178 26 159 28 q 285 221 236 122 q 228 194 250 214 q 185 129 205 175 q 173 110 177 110 q 164 116 170 110 q 96 197 139 147 q 111 199 104 199 q 138 190 123 199 q 158 178 156 178 q 294 302 199 276 q 324 305 307 304 q 408 507 367 401 q 349 528 378 511 q 298 581 319 545 q 277 651 277 616 q 300 696 277 685 q 340 676 328 709 q 325 627 353 640 q 339 606 326 610 q 361 608 350 603 q 422 723 400 627 q 436 794 423 754 q 466 792 440 797 q 450 819 453 808 l 467 832 q 558 770 496 804 q 619 739 589 754 q 681 677 659 713 q 710 614 699 648 l 780 398 q 871 132 828 245 q 901 52 886 92 q 947 -37 926 -10 q 997 -79 964 -59 q 1028 -105 1025 -96 m 672 269 q 522 661 594 491 q 482 549 521 594 l 416 394 q 374 302 393 341 q 414 294 397 299 q 545 178 477 273 q 573 214 556 189 q 599 262 583 229 q 613 270 603 270 q 672 269 653 271 m 676 913 q 674 905 675 907 q 578 833 637 833 q 507 857 551 833 q 446 880 463 880 q 421 871 429 880 q 412 862 414 862 q 401 868 408 862 q 394 878 394 875 q 419 909 394 887 q 455 937 442 930 q 503 949 479 949 q 574 930 531 949 q 628 911 616 911 q 647 919 638 911 q 659 928 656 928 q 676 913 676 928 z "},"Ä":{"ha":1057,"x_min":0,"x_max":1023,"o":"m 1023 -105 q 1022 -129 1029 -127 q 970 -132 1014 -130 q 871 -133 885 -134 q 780 -132 836 -134 q 736 -126 762 -132 q 731 -113 732 -123 q 737 -98 730 -101 l 771 -82 q 780 -65 780 -79 q 772 -29 780 -53 q 727 95 758 9 q 686 211 713 134 q 653 154 675 190 q 604 91 635 132 q 549 35 585 66 q 532 32 537 25 q 465 129 512 60 q 332 224 408 215 q 216 17 290 139 q 280 -5 248 9 q 317 -20 298 -12 q 348 -24 327 -24 q 371 -1 357 -24 q 382 3 377 9 q 392 -7 386 0 q 391 -20 395 -12 q 314 -122 345 -94 q 245 -150 282 -150 q 163 -134 218 -150 q 60 -91 121 -115 q 23 -104 38 -85 q 9 -109 15 -114 q 0 -90 -4 -98 q 58 1 31 -23 q 138 28 88 28 q 173 26 153 28 q 279 221 231 122 q 222 194 245 214 q 180 129 200 175 q 168 110 172 110 q 159 116 164 110 q 91 197 134 147 q 105 199 98 199 q 132 190 118 199 q 153 178 151 178 q 289 302 193 276 q 319 305 301 304 q 402 507 361 401 q 343 528 372 511 q 293 581 314 545 q 271 651 271 616 q 294 696 271 685 q 334 676 323 709 q 319 627 347 640 q 334 606 320 610 q 355 608 345 603 q 416 723 395 627 q 431 794 418 754 q 460 792 435 797 q 444 819 448 808 l 461 832 q 553 770 491 804 q 614 739 583 754 q 675 677 654 713 q 705 614 694 648 l 774 398 q 866 132 823 245 q 896 52 881 92 q 942 -37 921 -10 q 991 -79 958 -59 q 1023 -105 1020 -96 m 667 269 q 517 661 589 491 q 477 549 515 594 l 410 394 q 369 302 387 341 q 409 294 392 299 q 540 178 471 273 q 568 214 551 189 q 593 262 578 229 q 608 270 597 270 q 667 269 648 271 m 697 918 q 692 905 699 911 l 642 867 q 615 851 621 851 q 599 858 604 850 q 587 879 594 865 q 576 902 584 886 q 566 904 573 907 l 553 900 q 545 904 549 898 q 548 918 540 913 l 557 925 q 631 977 581 943 q 650 971 643 985 q 659 951 653 964 q 671 927 663 942 q 682 920 676 915 l 690 925 q 697 918 695 928 m 521 918 q 516 905 522 911 l 465 867 q 439 851 445 851 q 423 858 428 850 q 411 879 418 865 q 400 902 408 886 q 389 904 397 907 l 377 900 q 369 904 372 898 q 372 918 363 913 l 380 925 q 455 977 405 943 q 473 971 467 985 q 483 951 477 964 q 494 927 487 942 q 506 920 500 915 l 514 925 q 521 918 519 928 z "},"Å":{"ha":1057,"x_min":0,"x_max":1023,"o":"m 1023 -105 q 1022 -129 1029 -127 q 970 -132 1014 -130 q 871 -133 885 -134 q 780 -132 836 -134 q 736 -126 762 -132 q 731 -113 732 -123 q 737 -98 730 -101 l 771 -82 q 780 -65 780 -79 q 772 -29 780 -53 q 727 95 758 9 q 686 211 713 134 q 653 154 675 190 q 604 91 635 132 q 549 35 585 66 q 532 32 537 25 q 465 129 512 60 q 332 224 408 215 q 216 17 290 139 q 280 -5 248 9 q 317 -20 298 -12 q 348 -24 327 -24 q 371 -1 357 -24 q 382 3 377 9 q 392 -7 386 0 q 391 -20 395 -12 q 314 -122 345 -94 q 245 -150 282 -150 q 163 -134 218 -150 q 60 -91 121 -115 q 23 -104 38 -85 q 9 -109 15 -114 q 0 -90 -4 -98 q 58 1 31 -23 q 138 28 88 28 q 173 26 153 28 q 279 221 231 122 q 222 194 245 214 q 180 129 200 175 q 168 110 172 110 q 159 116 164 110 q 91 197 134 147 q 105 199 98 199 q 132 190 118 199 q 153 178 151 178 q 289 302 193 276 q 319 305 301 304 q 402 507 361 401 q 343 528 372 511 q 293 581 314 545 q 271 651 271 616 q 294 696 271 685 q 334 676 323 709 q 319 627 347 640 q 334 606 320 610 q 355 608 345 603 q 416 723 395 627 q 431 794 418 754 q 460 792 435 797 q 444 819 448 808 l 461 832 q 553 770 491 804 q 614 739 583 754 q 675 677 654 713 q 705 614 694 648 l 774 398 q 866 132 823 245 q 896 52 881 92 q 942 -37 921 -10 q 991 -79 958 -59 q 1023 -105 1020 -96 m 667 269 q 517 661 589 491 q 477 549 515 594 l 410 394 q 369 302 387 341 q 409 294 392 299 q 540 178 471 273 q 568 214 551 189 q 593 262 578 229 q 608 270 597 270 q 667 269 648 271 m 625 888 q 616 864 625 874 q 591 836 607 853 q 555 825 576 825 q 486 847 511 824 q 466 897 467 866 q 476 927 466 912 q 552 984 495 956 l 555 981 q 551 977 553 978 q 597 948 579 966 q 625 888 625 922 m 581 881 q 568 919 581 903 q 541 949 542 947 q 511 906 511 926 q 551 864 511 873 q 564 865 555 863 q 581 881 573 867 z "},"Æ":{"ha":1304,"x_min":-3,"x_max":1272,"o":"m 1270 708 q 1222 606 1272 647 q 1076 566 1173 566 q 865 650 930 566 l 863 601 q 860 475 862 557 q 858 346 858 407 q 972 394 893 371 q 1054 410 1018 408 q 1074 402 1064 410 q 1157 328 1109 370 q 1161 321 1161 323 q 1147 312 1161 311 q 1048 304 1109 315 q 901 251 982 292 q 881 253 889 245 q 859 279 873 261 q 859 235 859 260 q 858 205 858 216 q 861 62 858 159 q 982 84 908 84 q 1239 11 1134 84 q 1262 -12 1261 -4 q 1257 -25 1262 -17 q 1222 -72 1248 -40 q 1178 -125 1208 -89 q 1247 -117 1219 -113 q 1257 -129 1261 -119 q 1234 -173 1243 -159 q 1206 -176 1229 -180 q 1076 -138 1121 -162 q 1072 -115 1059 -129 q 1147 -50 1101 -91 q 1158 -39 1158 -41 q 1147 -29 1158 -35 q 1082 -17 1126 -16 q 883 -75 989 -18 q 782 -149 838 -100 q 749 -148 767 -161 q 654 -70 723 -125 q 648 -53 642 -60 q 664 -52 655 -43 l 669 -56 q 691 -46 677 -63 q 728 -5 703 -32 q 777 33 743 12 q 726 57 742 40 q 718 96 717 66 q 717 207 717 140 q 589 92 695 182 q 516 37 562 67 q 498 35 500 26 q 466 132 488 63 q 391 222 444 201 q 365 229 379 227 q 307 154 353 216 q 204 25 278 113 q 260 3 233 17 q 291 -14 276 -5 q 321 -18 300 -17 q 352 5 330 -18 q 365 8 362 15 q 371 -2 368 5 q 366 -14 372 -7 q 271 -110 301 -86 q 212 -134 240 -134 q 165 -123 198 -134 q 62 -79 122 -104 q 20 -91 42 -73 q 5 -96 9 -101 q 0 -90 3 -94 q 3 -76 -3 -84 q 56 -5 30 -41 q 145 37 97 37 q 164 35 155 37 q 318 228 234 118 q 246 203 272 219 q 180 138 216 183 q 161 119 165 119 q 154 125 157 119 q 115 208 140 157 q 129 210 123 210 q 154 200 143 210 q 170 187 168 187 q 350 308 245 284 q 381 311 363 311 q 535 510 457 405 q 484 532 507 515 q 448 615 448 559 q 455 656 448 637 q 494 700 467 690 q 528 680 528 713 q 495 631 528 644 q 494 623 494 627 q 524 612 494 600 q 625 725 570 629 q 665 795 638 755 q 694 793 670 798 q 688 820 687 808 l 709 833 q 779 770 728 804 q 826 739 794 761 q 897 824 857 771 l 921 810 q 906 770 917 786 q 947 784 932 787 q 1009 734 962 781 q 1147 671 1074 671 q 1183 680 1165 671 q 1207 703 1206 689 q 1171 741 1171 703 q 1211 778 1171 778 q 1270 708 1270 778 m 715 267 q 704 661 716 490 q 625 551 680 595 q 680 469 680 540 q 663 397 680 431 q 612 347 644 360 q 596 344 604 344 q 575 366 576 344 q 618 413 575 411 q 623 444 623 429 q 583 498 623 488 q 503 397 564 473 q 430 307 462 345 q 467 297 452 303 q 557 180 522 275 q 597 214 571 189 q 640 262 613 229 q 657 270 647 270 q 715 267 675 270 z "},"Ç":{"ha":555,"x_min":0,"x_max":532,"o":"m 532 462 q 405 370 512 437 q 381 361 390 361 q 359 393 369 361 q 312 533 351 418 q 272 644 295 579 q 243 718 262 673 q 226 721 238 732 q 214 704 219 714 q 200 647 206 688 q 191 546 194 606 q 187 390 190 538 q 186 300 187 360 q 187 146 185 218 q 191 11 187 100 q 201 -22 193 -6 q 233 -61 209 -39 q 267 -89 250 -76 q 288 -85 281 -99 q 302 -48 291 -80 q 329 29 312 -20 q 362 153 333 43 q 369 169 366 169 q 372 167 371 169 q 391 140 377 161 q 426 78 403 122 q 467 3 456 20 q 473 -19 477 -12 q 429 -84 459 -39 q 393 -130 408 -115 q 342 -146 377 -144 q 278 -149 315 -147 q 235 -150 251 -151 q 193 -146 212 -149 q 149 -116 180 -144 q 92 -64 128 -99 q 43 -5 77 -45 q 13 34 35 7 q 4 66 8 39 q 0 132 0 94 q 2 195 0 151 q 3 260 4 237 q 4 360 5 288 q 7 507 3 410 q 11 574 6 517 q 15 597 14 593 q 26 610 16 601 q 117 701 56 641 q 201 776 145 726 q 231 793 220 792 q 260 790 251 793 q 339 747 287 775 q 415 703 366 734 q 431 680 427 694 q 467 576 439 654 q 493 499 475 553 q 505 480 499 480 q 525 493 511 480 q 532 462 539 471 m 512 -228 q 389 -372 512 -315 q 371 -374 380 -375 q 267 -365 336 -372 q 247 -361 251 -363 q 239 -351 239 -359 q 237 -329 238 -344 l 235 -298 q 238 -277 233 -278 q 256 -283 242 -276 q 358 -321 282 -294 q 366 -322 362 -323 q 385 -315 374 -322 q 420 -254 420 -290 q 376 -205 420 -224 q 307 -189 343 -191 q 290 -198 294 -189 q 283 -207 286 -207 q 275 -196 274 -207 q 294 -141 282 -176 q 342 -106 307 -106 q 445 -136 390 -106 q 512 -228 512 -174 z "},"È":{"ha":657,"x_min":0,"x_max":623,"o":"m 623 708 q 575 607 624 647 q 428 566 527 568 q 218 650 286 564 l 215 601 q 213 475 214 557 q 211 346 211 407 q 324 394 245 371 q 406 410 371 408 q 427 402 416 410 q 509 328 462 370 q 513 321 513 323 q 499 312 513 311 q 401 304 461 315 q 254 251 335 292 q 235 253 241 245 q 212 279 225 261 q 211 235 212 260 q 211 205 210 216 q 214 62 210 159 q 334 84 256 82 q 592 11 481 87 q 614 -13 614 -5 q 610 -25 614 -18 q 574 -72 601 -40 q 530 -125 561 -89 q 600 -117 572 -113 q 610 -129 614 -119 q 587 -173 595 -159 q 558 -176 582 -180 q 429 -138 473 -162 q 425 -115 412 -129 q 500 -50 454 -91 q 511 -39 510 -41 q 500 -29 511 -35 q 434 -17 478 -16 q 235 -75 341 -18 q 134 -149 190 -100 q 102 -148 119 -161 q 7 -70 75 -125 q 0 -53 -6 -60 q 16 -52 7 -43 l 22 -56 q 43 -46 30 -63 q 80 -5 55 -32 q 144 33 113 26 q 98 57 117 39 q 91 96 90 66 q 90 204 90 139 q 90 385 92 329 q 87 536 88 435 q 87 565 87 558 q 85 591 86 571 q 73 603 85 606 l 25 593 q 14 604 14 591 q 23 615 14 609 q 115 686 47 632 q 194 755 174 734 q 250 824 217 780 l 274 810 q 259 770 269 786 q 300 784 285 787 q 362 734 314 781 q 500 671 429 670 q 559 703 557 673 q 523 741 523 703 q 564 778 523 778 q 623 708 622 778 m 445 845 q 412 826 445 836 q 370 817 384 817 q 294 867 326 817 q 251 917 262 917 q 241 915 248 917 q 232 913 235 913 q 224 930 224 913 q 229 937 224 932 q 301 968 268 968 q 372 913 344 968 q 422 858 401 858 q 431 861 426 858 q 439 864 436 864 q 445 845 445 864 z "},"É":{"ha":657,"x_min":0,"x_max":623,"o":"m 623 708 q 575 607 624 647 q 428 566 527 568 q 218 650 286 564 l 215 601 q 213 475 214 557 q 211 346 211 407 q 324 394 245 371 q 406 410 371 408 q 427 402 416 410 q 509 328 462 370 q 513 321 513 323 q 499 312 513 311 q 401 304 461 315 q 254 251 335 292 q 235 253 241 245 q 212 279 225 261 q 211 235 212 260 q 211 205 210 216 q 214 62 210 159 q 334 84 256 82 q 592 11 481 87 q 614 -13 614 -5 q 610 -25 614 -18 q 574 -72 601 -40 q 530 -125 561 -89 q 600 -117 572 -113 q 610 -129 614 -119 q 587 -173 595 -159 q 558 -176 582 -180 q 429 -138 473 -162 q 425 -115 412 -129 q 500 -50 454 -91 q 511 -39 510 -41 q 500 -29 511 -35 q 434 -17 478 -16 q 235 -75 341 -18 q 134 -149 190 -100 q 102 -148 119 -161 q 7 -70 75 -125 q 0 -53 -6 -60 q 16 -52 7 -43 l 22 -56 q 43 -46 30 -63 q 80 -5 55 -32 q 144 33 113 26 q 98 57 117 39 q 91 96 90 66 q 90 204 90 139 q 90 385 92 329 q 87 536 88 435 q 87 565 87 558 q 85 591 86 571 q 73 603 85 606 l 25 593 q 14 604 14 591 q 23 615 14 609 q 115 686 47 632 q 194 755 174 734 q 250 824 217 780 l 274 810 q 259 770 269 786 q 300 784 285 787 q 362 734 314 781 q 500 671 429 670 q 559 703 557 673 q 523 741 523 703 q 564 778 523 778 q 623 708 622 778 m 503 928 q 496 911 503 911 q 486 913 492 911 q 477 915 480 915 q 434 865 465 915 q 357 815 402 815 q 315 824 343 815 q 282 843 282 833 q 289 862 282 862 q 296 859 291 862 q 305 856 302 856 q 355 911 326 856 q 426 966 383 966 q 498 935 459 966 q 503 928 503 930 z "},"Ê":{"ha":657,"x_min":0,"x_max":623,"o":"m 623 708 q 575 607 624 647 q 428 566 527 568 q 218 650 286 564 l 215 601 q 213 475 214 557 q 211 346 211 407 q 324 394 245 371 q 406 410 371 408 q 427 402 416 410 q 509 328 462 370 q 513 321 513 323 q 499 312 513 311 q 401 304 461 315 q 254 251 335 292 q 235 253 241 245 q 212 279 225 261 q 211 235 212 260 q 211 205 210 216 q 214 62 210 159 q 334 84 256 82 q 592 11 481 87 q 614 -13 614 -5 q 610 -25 614 -18 q 574 -72 601 -40 q 530 -125 561 -89 q 600 -117 572 -113 q 610 -129 614 -119 q 587 -173 595 -159 q 558 -176 582 -180 q 429 -138 473 -162 q 425 -115 412 -129 q 500 -50 454 -91 q 511 -39 510 -41 q 500 -29 511 -35 q 434 -17 478 -16 q 235 -75 341 -18 q 134 -149 190 -100 q 102 -148 119 -161 q 7 -70 75 -125 q 0 -53 -6 -60 q 16 -52 7 -43 l 22 -56 q 43 -46 30 -63 q 80 -5 55 -32 q 144 33 113 26 q 98 57 117 39 q 91 96 90 66 q 90 204 90 139 q 90 385 92 329 q 87 536 88 435 q 87 565 87 558 q 85 591 86 571 q 73 603 85 606 l 25 593 q 14 604 14 591 q 23 615 14 609 q 115 686 47 632 q 194 755 174 734 q 250 824 217 780 l 274 810 q 259 770 269 786 q 300 784 285 787 q 362 734 314 781 q 500 671 429 670 q 559 703 557 673 q 523 741 523 703 q 564 778 523 778 q 623 708 622 778 m 495 920 q 492 905 501 916 q 457 866 465 873 q 414 842 432 842 q 340 891 383 840 q 281 847 309 863 q 268 842 271 842 q 255 846 263 842 q 200 880 228 861 q 205 890 200 887 q 251 920 222 901 q 304 956 265 929 q 351 993 322 970 q 365 985 359 990 q 347 966 355 975 q 370 963 359 967 q 402 944 381 958 q 448 914 419 932 q 460 910 454 910 q 469 913 458 910 q 484 922 474 916 q 495 920 490 925 z "},"Ë":{"ha":657,"x_min":0,"x_max":623,"o":"m 623 708 q 575 607 624 647 q 428 566 527 568 q 218 650 286 564 l 215 601 q 213 475 214 557 q 211 346 211 407 q 324 394 245 371 q 406 410 371 408 q 427 402 416 410 q 509 328 462 370 q 513 321 513 323 q 499 312 513 311 q 401 304 461 315 q 254 251 335 292 q 235 253 241 245 q 212 279 225 261 q 211 235 212 260 q 211 205 210 216 q 214 62 210 159 q 334 84 256 82 q 592 11 481 87 q 614 -13 614 -5 q 610 -25 614 -18 q 574 -72 601 -40 q 530 -125 561 -89 q 600 -117 572 -113 q 610 -129 614 -119 q 587 -173 595 -159 q 558 -176 582 -180 q 429 -138 473 -162 q 425 -115 412 -129 q 500 -50 454 -91 q 511 -39 510 -41 q 500 -29 511 -35 q 434 -17 478 -16 q 235 -75 341 -18 q 134 -149 190 -100 q 102 -148 119 -161 q 7 -70 75 -125 q 0 -53 -6 -60 q 16 -52 7 -43 l 22 -56 q 43 -46 30 -63 q 80 -5 55 -32 q 144 33 113 26 q 98 57 117 39 q 91 96 90 66 q 90 204 90 139 q 90 385 92 329 q 87 536 88 435 q 87 565 87 558 q 85 591 86 571 q 73 603 85 606 l 25 593 q 14 604 14 591 q 23 615 14 609 q 115 686 47 632 q 194 755 174 734 q 250 824 217 780 l 274 810 q 259 770 269 786 q 300 784 285 787 q 362 734 314 781 q 500 671 429 670 q 559 703 557 673 q 523 741 523 703 q 564 778 523 778 q 623 708 622 778 m 490 905 q 485 892 491 897 l 434 853 q 408 838 414 838 q 392 844 397 837 q 380 865 387 852 q 369 888 376 873 q 358 890 366 894 l 346 886 q 338 890 341 884 q 340 905 332 899 l 349 911 q 424 964 374 929 q 442 958 435 971 q 452 937 446 951 q 463 913 456 928 q 475 906 469 901 l 483 911 q 490 905 488 915 m 313 905 q 309 892 315 897 l 258 853 q 231 838 237 838 q 215 844 220 837 q 203 865 210 852 q 193 888 200 873 q 182 890 189 894 l 170 886 q 161 890 165 884 q 164 905 156 899 l 173 911 q 248 964 197 929 q 266 958 259 971 q 275 937 269 951 q 287 913 279 928 q 298 906 292 901 l 307 911 q 313 905 311 915 z "},"Ì":{"ha":393,"x_min":0,"x_max":356,"o":"m 356 -170 q 321 -162 344 -167 q 267 -155 303 -159 q 151 -150 246 -153 q 100 -149 133 -150 q 95 -141 96 -149 q 102 -132 94 -136 q 115 -127 106 -130 q 146 -106 136 -117 q 159 -79 157 -94 q 164 8 163 -45 q 165 83 165 52 q 165 243 165 216 q 163 378 166 264 l 159 569 q 158 599 159 574 q 157 629 157 622 q 139 668 157 669 q 102 646 118 667 q 87 603 90 630 q 92 578 85 590 q 115 531 102 559 q 109 519 122 517 q 12 539 45 531 q -1 545 1 542 q 0 566 -2 548 q 28 664 8 629 q 92 745 54 711 q 174 800 109 761 q 203 800 189 809 q 258 768 232 781 q 336 743 302 746 q 347 736 343 742 q 343 726 350 730 q 325 712 337 722 q 316 688 317 704 q 311 629 311 632 l 315 377 q 316 51 316 250 q 317 -98 316 -58 q 327 -136 317 -126 q 355 -150 334 -142 q 363 -158 360 -152 q 363 -168 366 -163 q 356 -170 362 -172 m 305 872 q 273 853 305 863 q 231 844 244 844 q 154 894 186 844 q 111 944 123 944 q 101 942 108 944 q 92 940 95 940 q 84 957 84 940 q 89 964 84 960 q 161 996 128 996 q 233 940 204 996 q 283 885 261 885 q 291 888 286 885 q 299 891 296 891 q 305 872 305 891 z "},"Í":{"ha":393,"x_min":0,"x_max":356,"o":"m 356 -170 q 321 -162 344 -167 q 267 -155 303 -159 q 151 -150 246 -153 q 100 -149 133 -150 q 95 -141 96 -149 q 102 -132 94 -136 q 115 -127 106 -130 q 146 -106 136 -117 q 159 -79 157 -94 q 164 8 163 -45 q 165 83 165 52 q 165 243 165 216 q 163 378 166 264 l 159 569 q 158 599 159 574 q 157 629 157 622 q 139 668 157 669 q 102 646 118 667 q 87 603 90 630 q 92 578 85 590 q 115 531 102 559 q 109 519 122 517 q 12 539 45 531 q -1 545 1 542 q 0 566 -2 548 q 28 664 8 629 q 92 745 54 711 q 174 800 109 761 q 203 800 189 809 q 258 768 232 781 q 336 743 302 746 q 347 736 343 742 q 343 726 350 730 q 325 712 337 722 q 316 688 317 704 q 311 629 311 632 l 315 377 q 316 51 316 250 q 317 -98 316 -58 q 327 -136 317 -126 q 355 -150 334 -142 q 363 -158 360 -152 q 363 -168 366 -163 q 356 -170 362 -172 m 347 955 q 340 938 347 938 q 330 940 336 938 q 321 942 324 942 q 278 892 309 942 q 201 842 246 842 q 159 851 187 842 q 126 870 126 861 q 133 889 126 889 q 140 886 135 889 q 149 883 146 883 q 199 938 170 883 q 270 994 227 994 q 342 962 303 994 q 347 955 347 958 z "},"Î":{"ha":418,"x_min":0,"x_max":380,"o":"m 356 -170 q 321 -162 344 -167 q 267 -155 303 -159 q 151 -150 246 -153 q 100 -149 133 -150 q 95 -141 96 -149 q 102 -132 94 -136 q 115 -127 106 -130 q 146 -106 136 -117 q 159 -79 157 -94 q 164 8 163 -45 q 165 83 165 52 q 165 243 165 216 q 163 378 166 264 l 159 569 q 158 599 159 574 q 157 629 157 622 q 139 668 157 669 q 102 646 118 667 q 87 603 90 630 q 92 578 85 590 q 115 531 102 559 q 109 519 122 517 q 12 539 45 531 q -1 545 1 542 q 0 566 -2 548 q 28 664 8 629 q 92 745 54 711 q 174 800 109 761 q 203 800 189 809 q 258 768 232 781 q 336 743 302 746 q 347 736 343 742 q 343 726 350 730 q 325 712 337 722 q 316 688 317 704 q 311 629 311 632 l 315 377 q 316 51 316 250 q 317 -98 316 -58 q 327 -136 317 -126 q 355 -150 334 -142 q 363 -158 360 -152 q 363 -168 366 -163 q 356 -170 362 -172 m 380 934 q 376 918 386 929 q 342 880 349 887 q 299 855 317 855 q 224 905 268 854 q 165 861 193 877 q 153 855 156 855 q 140 860 148 855 q 85 893 113 875 q 90 903 85 901 q 136 933 106 914 q 189 969 150 943 q 236 1006 207 984 q 250 998 244 1004 q 232 979 240 989 q 255 976 244 981 q 287 958 266 972 q 332 928 304 946 q 345 924 339 924 q 354 926 343 924 q 368 935 359 930 q 380 934 375 939 z "},"Ï":{"ha":418,"x_min":0,"x_max":381,"o":"m 356 -170 q 321 -162 344 -167 q 267 -155 303 -159 q 151 -150 246 -153 q 100 -149 133 -150 q 95 -141 96 -149 q 102 -132 94 -136 q 115 -127 106 -130 q 146 -106 136 -117 q 159 -79 157 -94 q 164 8 163 -45 q 165 83 165 52 q 165 243 165 216 q 163 378 166 264 l 159 569 q 158 599 159 574 q 157 629 157 622 q 139 668 157 669 q 102 646 118 667 q 87 603 90 630 q 92 578 85 590 q 115 531 102 559 q 109 519 122 517 q 12 539 45 531 q -1 545 1 542 q 0 566 -2 548 q 28 664 8 629 q 92 745 54 711 q 174 800 109 761 q 203 800 189 809 q 258 768 232 781 q 336 743 302 746 q 347 736 343 742 q 343 726 350 730 q 325 712 337 722 q 316 688 317 704 q 311 629 311 632 l 315 377 q 316 51 316 250 q 317 -98 316 -58 q 327 -136 317 -126 q 355 -150 334 -142 q 363 -158 360 -152 q 363 -168 366 -163 q 356 -170 362 -172 m 381 905 q 376 892 382 897 l 326 853 q 299 838 305 838 q 283 844 288 837 q 271 865 278 852 q 260 888 268 873 q 250 890 257 894 l 237 886 q 229 890 233 884 q 232 905 224 899 l 241 911 q 315 964 265 929 q 334 958 327 971 q 343 937 337 951 q 355 913 347 928 q 366 906 360 901 l 374 911 q 381 905 379 915 m 205 905 q 200 892 206 897 l 149 853 q 123 838 129 838 q 107 844 112 837 q 95 865 102 852 q 84 888 92 873 q 73 890 81 894 l 61 886 q 53 890 56 884 q 56 905 47 899 l 64 911 q 139 964 89 929 q 157 958 151 971 q 167 937 161 951 q 178 913 171 928 q 190 906 184 901 l 198 911 q 205 905 203 915 z "},"Ð":{"ha":926,"x_min":6,"x_max":899,"o":"m 899 316 q 789 43 899 171 q 568 -115 683 -81 q 537 -111 553 -119 q 374 -27 456 -69 q 183 26 254 27 q 135 14 159 26 q 74 -58 83 -11 q 87 -83 69 -80 q 184 -48 127 -67 q 200 -50 198 -45 q 202 -62 200 -50 q 211 -124 205 -87 q 212 -140 213 -139 q 199 -147 212 -146 q 22 -134 73 -161 q 7 -106 7 -126 q 14 -60 6 -90 q 55 28 28 -11 q 219 141 118 118 q 275 147 246 147 q 430 108 343 146 q 616 22 490 77 q 659 22 640 13 q 747 97 698 41 q 791 157 769 121 q 816 226 820 205 q 684 454 790 348 q 633 500 677 460 q 612 520 612 519 q 659 549 612 532 q 556 562 608 541 q 465 612 547 566 q 360 650 427 633 q 250 667 294 667 q 140 589 140 667 q 152 560 140 563 q 220 553 178 557 q 223 540 228 553 q 192 455 212 507 q 185 447 188 446 q 174 454 179 450 q 88 577 90 496 q 186 747 86 694 q 380 786 261 786 q 719 667 564 786 q 899 316 899 530 m 535 296 q 536 292 536 294 q 515 287 536 281 q 397 302 471 298 l 394 302 q 393 273 394 283 q 366 233 393 254 q 325 203 352 223 q 280 168 289 171 q 261 180 258 160 q 277 300 267 218 q 197 294 235 298 q 176 299 179 292 q 156 353 163 330 q 157 369 153 366 q 174 372 158 370 q 286 381 214 377 q 298 504 298 478 q 276 546 298 534 l 260 554 q 249 566 249 560 q 256 577 249 574 q 286 585 264 579 q 327 595 297 587 q 365 607 339 600 q 399 620 378 612 q 409 620 405 621 q 411 612 413 618 q 408 606 410 610 q 399 578 400 593 q 395 383 399 560 q 468 378 444 382 q 486 369 480 376 q 535 296 507 337 z "},"Ñ":{"ha":705,"x_min":0,"x_max":678,"o":"m 665 562 q 549 355 607 458 q 467 94 468 200 q 480 -15 467 45 q 510 -102 493 -75 q 593 -56 586 -56 q 609 -83 602 -56 q 619 -139 619 -119 q 496 -162 541 -164 q 364 -61 414 -125 q 309 99 311 10 q 340 245 309 168 q 415 380 363 304 q 490 487 453 433 q 505 550 519 530 q 449 610 491 568 q 378 673 402 657 q 359 679 366 681 q 342 666 358 678 q 237 569 258 599 l 234 383 q 233 286 234 358 q 231 213 231 214 q 230 143 231 197 q 229 73 229 90 q 231 -44 230 -7 q 249 -86 232 -87 l 286 -85 q 296 -94 293 -85 q 296 -107 299 -102 q 258 -129 296 -109 q 174 -165 231 -141 q 83 -203 161 -172 q 34 -221 64 -211 q 25 -203 26 -223 q 45 -170 24 -195 q 77 -117 68 -140 q 90 47 87 -85 q 89 224 91 163 q 87 339 86 290 q 87 472 88 363 q 83 602 85 512 q 68 616 83 613 l 18 628 q 0 640 0 632 q 13 659 0 647 q 117 739 47 685 q 203 819 156 771 q 220 840 209 827 q 238 842 225 846 q 250 822 252 836 q 240 692 247 787 q 349 795 280 727 q 390 808 367 814 q 494 754 416 801 q 637 659 608 686 q 666 635 652 647 q 678 608 678 623 q 665 562 678 591 m 515 934 q 513 925 514 927 q 417 854 475 854 q 345 877 389 854 q 284 901 301 901 q 260 891 268 901 q 250 882 252 882 q 240 889 247 882 q 233 899 233 895 q 258 930 233 907 q 294 957 281 950 q 341 969 318 969 q 412 950 370 969 q 467 931 455 931 q 486 940 477 931 q 497 948 494 948 q 515 934 515 948 z "},"Ò":{"ha":838,"x_min":0,"x_max":804,"o":"m 804 222 q 798 146 804 172 q 762 79 789 118 q 625 -85 726 27 q 448 -161 555 -160 q 108 -25 235 -162 q 0 276 2 89 q 52 467 -1 374 q 142 589 106 562 q 64 692 66 626 q 118 766 62 766 q 159 726 159 766 q 118 686 159 686 q 115 675 115 681 q 151 649 115 650 q 328 736 267 646 q 389 777 355 777 q 434 764 408 777 q 700 547 604 678 q 804 222 804 404 m 709 177 q 665 385 709 285 q 541 538 629 467 q 539 307 541 460 q 540 243 539 269 q 541 204 541 214 q 538 182 541 193 q 518 140 530 154 q 323 -12 481 97 q 431 -53 351 -31 q 521 -63 469 -63 q 566 -45 545 -63 q 644 37 599 -16 q 701 106 667 62 q 709 177 709 119 m 427 238 q 425 433 427 257 q 422 622 422 615 q 252 561 364 559 q 190 570 219 562 q 139 500 153 528 q 109 350 109 436 q 130 215 109 277 q 205 81 154 146 q 291 5 232 44 q 373 73 321 26 q 423 132 414 111 q 426 169 425 135 q 427 238 426 186 m 479 852 q 446 833 479 842 q 404 824 418 824 q 328 874 359 824 q 285 924 296 924 q 275 922 281 924 q 266 920 269 920 q 258 937 258 920 q 262 943 258 939 q 335 975 302 975 q 406 920 378 975 q 456 865 435 865 q 465 868 460 865 q 473 871 470 871 q 479 852 479 871 z "},"Ó":{"ha":838,"x_min":0,"x_max":804,"o":"m 804 222 q 798 146 804 172 q 762 79 789 118 q 625 -85 726 27 q 448 -161 555 -160 q 108 -25 235 -162 q 0 276 2 89 q 52 467 -1 374 q 142 589 106 562 q 64 692 66 626 q 118 766 62 766 q 159 726 159 766 q 118 686 159 686 q 115 675 115 681 q 151 649 115 650 q 328 736 267 646 q 389 777 355 777 q 434 764 408 777 q 700 547 604 678 q 804 222 804 404 m 709 177 q 665 385 709 285 q 541 538 629 467 q 539 307 541 460 q 540 243 539 269 q 541 204 541 214 q 538 182 541 193 q 518 140 530 154 q 323 -12 481 97 q 431 -53 351 -31 q 521 -63 469 -63 q 566 -45 545 -63 q 644 37 599 -16 q 701 106 667 62 q 709 177 709 119 m 427 238 q 425 433 427 257 q 422 622 422 615 q 252 561 364 559 q 190 570 219 562 q 139 500 153 528 q 109 350 109 436 q 130 215 109 277 q 205 81 154 146 q 291 5 232 44 q 373 73 321 26 q 423 132 414 111 q 426 169 425 135 q 427 238 426 186 m 557 928 q 550 911 557 911 q 541 913 547 911 q 531 915 534 915 q 488 865 519 915 q 411 815 456 815 q 369 824 397 815 q 336 843 336 833 q 343 862 336 862 q 351 859 345 862 q 359 856 356 856 q 409 911 380 856 q 480 966 437 966 q 553 935 513 966 q 557 928 557 930 z "},"Ô":{"ha":838,"x_min":0,"x_max":804,"o":"m 804 222 q 798 146 804 172 q 762 79 789 118 q 625 -85 726 27 q 448 -161 555 -160 q 108 -25 235 -162 q 0 276 2 89 q 52 467 -1 374 q 142 589 106 562 q 64 692 66 626 q 118 766 62 766 q 159 726 159 766 q 118 686 159 686 q 115 675 115 681 q 151 649 115 650 q 328 736 267 646 q 389 777 355 777 q 434 764 408 777 q 700 547 604 678 q 804 222 804 404 m 709 177 q 665 385 709 285 q 541 538 629 467 q 539 307 541 460 q 540 243 539 269 q 541 204 541 214 q 538 182 541 193 q 518 140 530 154 q 323 -12 481 97 q 431 -53 351 -31 q 521 -63 469 -63 q 566 -45 545 -63 q 644 37 599 -16 q 701 106 667 62 q 709 177 709 119 m 427 238 q 425 433 427 257 q 422 622 422 615 q 252 561 364 559 q 190 570 219 562 q 139 500 153 528 q 109 350 109 436 q 130 215 109 277 q 205 81 154 146 q 291 5 232 44 q 373 73 321 26 q 423 132 414 111 q 426 169 425 135 q 427 238 426 186 m 563 886 q 559 871 569 882 q 525 832 532 840 q 482 808 500 808 q 408 857 451 806 q 349 813 376 829 q 336 808 339 808 q 323 812 331 808 q 268 846 296 827 q 273 856 268 853 q 319 886 290 867 q 372 922 333 895 q 419 959 390 937 q 433 951 427 956 q 415 932 423 941 q 438 929 427 933 q 470 910 449 924 q 515 880 487 899 q 528 876 522 876 q 537 879 526 876 q 551 888 542 882 q 563 886 558 891 z "},"Õ":{"ha":838,"x_min":0,"x_max":804,"o":"m 804 222 q 798 146 804 172 q 762 79 789 118 q 625 -85 726 27 q 448 -161 555 -160 q 108 -25 235 -162 q 0 276 2 89 q 52 467 -1 374 q 142 589 106 562 q 64 692 66 626 q 118 766 62 766 q 159 726 159 766 q 118 686 159 686 q 115 675 115 681 q 151 649 115 650 q 328 736 267 646 q 389 777 355 777 q 434 764 408 777 q 700 547 604 678 q 804 222 804 404 m 709 177 q 665 385 709 285 q 541 538 629 467 q 539 307 541 460 q 540 243 539 269 q 541 204 541 214 q 538 182 541 193 q 518 140 530 154 q 323 -12 481 97 q 431 -53 351 -31 q 521 -63 469 -63 q 566 -45 545 -63 q 644 37 599 -16 q 701 106 667 62 q 709 177 709 119 m 427 238 q 425 433 427 257 q 422 622 422 615 q 252 561 364 559 q 190 570 219 562 q 139 500 153 528 q 109 350 109 436 q 130 215 109 277 q 205 81 154 146 q 291 5 232 44 q 373 73 321 26 q 423 132 414 111 q 426 169 425 135 q 427 238 426 186 m 555 886 q 553 878 555 880 q 458 806 516 806 q 386 830 430 806 q 325 853 342 853 q 301 844 309 853 q 291 835 293 835 q 280 841 288 835 q 273 851 273 848 q 298 882 273 860 q 334 909 321 903 q 382 922 359 922 q 453 903 410 922 q 507 884 496 884 q 526 892 517 884 q 538 901 535 901 q 555 886 555 901 z "},"Ö":{"ha":838,"x_min":0,"x_max":804,"o":"m 804 222 q 798 146 804 172 q 762 79 789 118 q 625 -85 726 27 q 448 -161 555 -160 q 108 -25 235 -162 q 0 276 2 89 q 52 467 -1 374 q 142 589 106 562 q 64 692 66 626 q 118 766 62 766 q 159 726 159 766 q 118 686 159 686 q 115 675 115 681 q 151 649 115 650 q 328 736 267 646 q 389 777 355 777 q 434 764 408 777 q 700 547 604 678 q 804 222 804 404 m 709 177 q 665 385 709 285 q 541 538 629 467 q 539 307 541 460 q 540 243 539 269 q 541 204 541 214 q 538 182 541 193 q 518 140 530 154 q 323 -12 481 97 q 431 -53 351 -31 q 521 -63 469 -63 q 566 -45 545 -63 q 644 37 599 -16 q 701 106 667 62 q 709 177 709 119 m 427 238 q 425 433 427 257 q 422 622 422 615 q 252 561 364 559 q 190 570 219 562 q 139 500 153 528 q 109 350 109 436 q 130 215 109 277 q 205 81 154 146 q 291 5 232 44 q 373 73 321 26 q 423 132 414 111 q 426 169 425 135 q 427 238 426 186 m 578 871 q 573 858 579 863 l 522 819 q 496 804 502 804 q 480 810 485 803 q 468 831 475 818 q 457 854 465 839 q 446 857 454 860 l 434 852 q 426 857 429 850 q 429 871 420 865 l 437 878 q 512 930 462 895 q 530 924 524 937 q 540 903 534 917 q 551 880 544 895 q 563 872 557 867 l 571 878 q 578 871 576 881 m 401 871 q 397 858 403 863 l 346 819 q 319 804 326 804 q 303 810 309 803 q 292 831 298 818 q 281 854 288 839 q 270 857 277 860 l 258 852 q 250 857 253 850 q 252 871 244 865 l 261 878 q 336 930 286 895 q 354 924 347 937 q 363 903 357 917 q 375 880 368 895 q 387 872 380 867 l 395 878 q 401 871 399 881 z "},"×":{"ha":495,"x_min":25,"x_max":474,"o":"m 461 609 q 333 483 414 572 q 297 440 319 467 q 363 339 342 377 q 372 300 377 313 q 327 218 352 257 q 319 212 323 212 q 302 231 313 212 q 229 353 280 273 q 163 260 195 308 q 136 239 149 239 q 45 239 82 237 q 25 244 25 240 q 37 266 25 248 q 161 441 77 332 l 146 460 q 87 529 123 489 q 73 559 70 547 q 104 633 79 589 q 120 653 115 653 q 140 639 126 653 q 232 528 176 602 q 316 620 294 599 q 331 633 329 632 q 346 636 336 635 q 408 636 368 637 q 460 635 458 635 q 474 627 474 635 q 461 609 474 620 z "},"Ø":{"ha":851,"x_min":13,"x_max":715,"o":"m 715 357 q 680 221 715 279 q 563 66 649 172 q 407 -5 505 -4 q 171 63 271 -5 l 134 0 q 137 -16 137 -8 q 95 -62 137 -62 q 53 -16 53 -62 q 90 28 53 23 l 130 97 q 105 123 117 109 q 14 407 16 231 q 58 587 13 496 q 207 773 102 673 q 395 913 275 837 l 411 893 q 389 869 401 880 q 534 770 465 831 l 570 829 q 566 850 566 839 q 608 895 566 895 q 650 850 650 895 q 618 806 650 814 l 572 732 q 715 357 715 578 m 473 668 q 310 802 421 718 q 208 703 274 781 q 146 610 165 654 q 119 476 119 549 q 138 349 119 408 q 201 222 159 282 l 203 219 l 473 668 m 627 314 q 589 509 627 422 q 511 629 564 568 l 240 178 q 404 94 312 115 q 469 87 433 87 q 507 104 490 87 q 573 182 534 131 q 621 246 592 205 q 627 314 627 259 z "},"Ù":{"ha":611,"x_min":0,"x_max":587,"o":"m 587 -13 q 576 -28 587 -28 q 516 9 571 -28 q 370 -83 472 -26 q 353 -87 363 -87 q 296 -58 334 -87 q 92 99 127 62 q 0 328 0 195 q 20 463 0 387 q 39 545 28 490 q 98 532 66 530 l 106 532 q 59 578 59 566 q 68 589 59 583 q 82 597 81 596 q 141 703 119 631 q 161 824 161 766 q 151 880 161 854 q 111 916 137 916 q 100 913 105 916 q 116 872 116 891 q 73 833 116 833 q 26 878 26 833 q 109 945 26 947 q 224 861 182 944 q 258 711 258 793 q 187 412 258 551 q 136 311 140 319 q 111 201 111 250 q 139 112 111 150 q 210 47 159 85 q 255 30 233 30 q 279 38 269 30 q 345 80 302 52 q 401 121 363 94 q 404 245 404 136 q 405 297 404 262 q 406 349 406 332 l 406 528 q 405 638 406 565 q 404 748 404 711 q 382 777 404 771 q 361 789 361 783 q 374 809 361 799 q 458 871 402 829 q 522 932 502 908 q 548 956 542 956 q 570 935 570 956 q 564 872 570 916 q 557 805 557 823 q 552 460 552 721 q 551 348 552 423 q 551 234 551 272 q 550 176 551 214 q 549 117 549 137 q 562 18 549 32 q 587 -13 587 -9 m 445 926 q 412 907 445 917 q 370 899 384 899 q 294 948 326 899 q 251 998 262 998 q 241 996 248 998 q 232 994 235 994 q 224 1011 224 994 q 229 1018 224 1014 q 301 1050 268 1050 q 372 995 344 1050 q 422 939 401 939 q 431 942 426 939 q 439 945 436 945 q 445 926 445 945 z "},"Ú":{"ha":611,"x_min":0,"x_max":587,"o":"m 587 -13 q 576 -28 587 -28 q 516 9 571 -28 q 370 -83 472 -26 q 353 -87 363 -87 q 296 -58 334 -87 q 92 99 127 62 q 0 328 0 195 q 20 463 0 387 q 39 545 28 490 q 98 532 66 530 l 106 532 q 59 578 59 566 q 68 589 59 583 q 82 597 81 596 q 141 703 119 631 q 161 824 161 766 q 151 880 161 854 q 111 916 137 916 q 100 913 105 916 q 116 872 116 891 q 73 833 116 833 q 26 878 26 833 q 109 945 26 947 q 224 861 182 944 q 258 711 258 793 q 187 412 258 551 q 136 311 140 319 q 111 201 111 250 q 139 112 111 150 q 210 47 159 85 q 255 30 233 30 q 279 38 269 30 q 345 80 302 52 q 401 121 363 94 q 404 245 404 136 q 405 297 404 262 q 406 349 406 332 l 406 528 q 405 638 406 565 q 404 748 404 711 q 382 777 404 771 q 361 789 361 783 q 374 809 361 799 q 458 871 402 829 q 522 932 502 908 q 548 956 542 956 q 570 935 570 956 q 564 872 570 916 q 557 805 557 823 q 552 460 552 721 q 551 348 552 423 q 551 234 551 272 q 550 176 551 214 q 549 117 549 137 q 562 18 549 32 q 587 -13 587 -9 m 496 1016 q 489 999 496 999 q 479 1001 486 999 q 470 1003 473 1003 q 427 953 458 1003 q 350 903 395 903 q 308 912 336 903 q 275 931 275 922 q 282 950 275 950 q 290 947 284 950 q 298 944 295 944 q 348 999 319 944 q 419 1055 376 1055 q 492 1023 452 1055 q 496 1016 496 1019 z "},"Û":{"ha":611,"x_min":0,"x_max":587,"o":"m 587 -13 q 576 -28 587 -28 q 516 9 571 -28 q 370 -83 472 -26 q 353 -87 363 -87 q 296 -58 334 -87 q 92 99 127 62 q 0 328 0 195 q 20 463 0 387 q 39 545 28 490 q 98 532 66 530 l 106 532 q 59 578 59 566 q 68 589 59 583 q 82 597 81 596 q 141 703 119 631 q 161 824 161 766 q 151 880 161 854 q 111 916 137 916 q 100 913 105 916 q 116 872 116 891 q 73 833 116 833 q 26 878 26 833 q 109 945 26 947 q 224 861 182 944 q 258 711 258 793 q 187 412 258 551 q 136 311 140 319 q 111 201 111 250 q 139 112 111 150 q 210 47 159 85 q 255 30 233 30 q 279 38 269 30 q 345 80 302 52 q 401 121 363 94 q 404 245 404 136 q 405 297 404 262 q 406 349 406 332 l 406 528 q 405 638 406 565 q 404 748 404 711 q 382 777 404 771 q 361 789 361 783 q 374 809 361 799 q 458 871 402 829 q 522 932 502 908 q 548 956 542 956 q 570 935 570 956 q 564 872 570 916 q 557 805 557 823 q 552 460 552 721 q 551 348 552 423 q 551 234 551 272 q 550 176 551 214 q 549 117 549 137 q 562 18 549 32 q 587 -13 587 -9 m 490 976 q 486 960 494 971 q 457 923 463 930 q 420 898 435 899 q 355 947 393 897 q 304 904 328 920 q 293 898 296 899 q 281 903 289 898 q 234 936 258 918 q 238 945 234 943 q 278 975 253 956 q 324 1010 291 984 q 365 1047 340 1025 q 377 1039 372 1044 q 361 1021 369 1029 q 382 1017 372 1021 q 448 970 405 1000 q 458 966 454 966 q 467 968 458 966 q 479 977 471 972 q 490 976 486 980 z "},"Ü":{"ha":611,"x_min":0,"x_max":587,"o":"m 587 -13 q 576 -28 587 -28 q 516 9 571 -28 q 370 -83 472 -26 q 353 -87 363 -87 q 296 -58 334 -87 q 92 99 127 62 q 0 328 0 195 q 20 463 0 387 q 39 545 28 490 q 98 532 66 530 l 106 532 q 59 578 59 566 q 68 589 59 583 q 82 597 81 596 q 141 703 119 631 q 161 824 161 766 q 151 880 161 854 q 111 916 137 916 q 100 913 105 916 q 116 872 116 891 q 73 833 116 833 q 26 878 26 833 q 109 945 26 947 q 224 861 182 944 q 258 711 258 793 q 187 412 258 551 q 136 311 140 319 q 111 201 111 250 q 139 112 111 150 q 210 47 159 85 q 255 30 233 30 q 279 38 269 30 q 345 80 302 52 q 401 121 363 94 q 404 245 404 136 q 405 297 404 262 q 406 349 406 332 l 406 528 q 405 638 406 565 q 404 748 404 711 q 382 777 404 771 q 361 789 361 783 q 374 809 361 799 q 458 871 402 829 q 522 932 502 908 q 548 956 542 956 q 570 935 570 956 q 564 872 570 916 q 557 805 557 823 q 552 460 552 721 q 551 348 552 423 q 551 234 551 272 q 550 176 551 214 q 549 117 549 137 q 562 18 549 32 q 587 -13 587 -9 m 520 1000 q 515 987 522 993 l 465 949 q 438 933 444 933 q 422 940 427 932 q 410 961 417 947 q 399 984 407 968 q 389 986 396 989 l 376 982 q 368 986 372 980 q 371 1000 363 995 l 380 1007 q 454 1059 404 1025 q 473 1053 466 1067 q 482 1033 476 1046 q 494 1009 486 1024 q 505 1002 499 997 l 513 1007 q 520 1000 518 1010 m 344 1000 q 339 987 345 993 l 288 949 q 262 933 268 933 q 246 940 251 932 q 234 961 241 947 q 223 984 231 968 q 212 986 220 989 l 200 982 q 192 986 195 980 q 195 1000 186 995 l 203 1007 q 278 1059 228 1025 q 296 1053 290 1067 q 306 1033 300 1046 q 317 1009 310 1024 q 329 1002 323 997 l 337 1007 q 344 1000 342 1010 z "},"Ý":{"ha":827,"x_min":0,"x_max":787,"o":"m 787 390 q 769 208 787 298 q 612 -94 734 41 q 316 -243 477 -241 q 148 -203 232 -244 q 49 -80 48 -153 q 81 23 49 -39 q 92 37 88 36 q 106 32 94 38 q 144 11 119 26 q 167 -9 167 -2 q 159 -23 167 -14 q 102 -80 138 -42 q 176 -154 109 -126 q 283 -176 230 -176 q 576 146 467 -176 q 595 212 578 155 q 608 240 603 240 q 651 210 619 240 q 618 309 621 252 q 622 386 616 332 q 629 452 626 419 q 612 627 634 530 q 602 641 610 636 q 586 641 593 646 q 435 492 529 584 q 374 315 425 369 q 321 277 350 290 q 401 223 359 267 q 471 147 436 185 q 497 130 486 132 q 526 140 507 128 q 538 138 536 146 q 544 125 541 133 q 537 114 545 118 q 392 50 436 52 q 282 115 346 48 q 210 200 254 152 q 188 210 199 210 q 171 205 180 210 q 152 216 157 199 q 157 229 150 224 q 234 301 213 273 q 277 397 264 338 q 292 587 298 494 q 145 523 233 524 q 45 556 84 523 q 0 661 1 594 q 19 718 0 694 q 70 742 38 742 q 104 729 90 742 q 118 699 118 716 q 70 656 118 656 q 84 627 68 637 q 117 620 97 619 q 218 702 162 621 q 250 748 242 739 q 283 772 268 769 q 329 756 290 773 q 312 799 314 779 q 341 817 326 810 q 408 696 380 780 q 436 561 432 626 q 437 547 437 555 q 727 831 575 682 q 735 834 730 834 q 755 815 755 834 q 750 802 755 809 q 724 736 726 772 q 756 565 718 652 q 787 390 785 496 m 653 899 q 646 882 653 882 q 636 884 642 882 q 627 886 630 886 q 584 837 615 886 q 507 787 552 787 q 465 795 493 787 q 432 814 432 805 q 439 833 432 833 q 446 830 441 833 q 455 827 452 827 q 505 883 476 827 q 576 938 533 938 q 648 906 609 938 q 653 899 653 902 z "},"à":{"ha":361,"x_min":-3,"x_max":355,"o":"m 355 220 q 335 202 345 210 q 278 152 315 186 q 258 130 271 144 q 212 113 243 111 q 193 119 205 114 q 183 137 189 123 q 176 154 180 144 q 151 136 168 148 q 130 120 138 127 q 111 109 116 111 q 92 109 106 108 q 65 117 71 109 q 56 138 60 125 q 32 205 47 161 q 7 281 23 233 q 0 311 2 302 q 0 335 -3 326 q 37 381 5 351 q 85 414 56 399 q 125 431 108 426 q 153 440 132 434 q 175 435 160 440 q 171 424 176 428 q 116 375 126 390 q 117 343 116 353 q 124 301 118 331 q 136 256 127 283 q 160 188 147 224 q 183 203 176 196 q 190 309 186 233 q 191 420 192 351 q 189 525 191 455 q 186 574 189 530 q 174 583 185 588 q 146 570 158 576 l 111 553 q 96 543 100 547 q 87 520 90 536 q 84 489 87 516 q 71 484 83 468 q 54 514 68 489 q 37 545 47 524 q 16 591 37 545 q 16 608 12 603 q 33 621 19 612 q 129 677 43 629 q 151 689 140 684 q 169 682 159 692 q 230 618 189 661 q 283 557 254 592 q 304 520 297 540 q 310 482 309 505 q 311 410 311 454 q 311 323 311 338 q 308 223 310 290 q 330 222 316 222 q 342 221 333 222 q 355 220 352 220 m 231 735 q 199 720 231 728 q 159 712 172 712 q 85 753 115 712 q 44 795 55 795 q 35 793 41 795 q 26 791 28 791 q 18 806 18 791 q 22 811 18 808 q 92 838 60 838 q 161 792 134 838 q 208 746 188 746 q 217 749 212 746 q 224 751 222 751 q 231 735 231 751 z "},"á":{"ha":361,"x_min":-3,"x_max":355,"o":"m 355 220 q 335 202 345 210 q 278 152 315 186 q 258 130 271 144 q 212 113 243 111 q 193 119 205 114 q 183 137 189 123 q 176 154 180 144 q 151 136 168 148 q 130 120 138 127 q 111 109 116 111 q 92 109 106 108 q 65 117 71 109 q 56 138 60 125 q 32 205 47 161 q 7 281 23 233 q 0 311 2 302 q 0 335 -3 326 q 37 381 5 351 q 85 414 56 399 q 125 431 108 426 q 153 440 132 434 q 175 435 160 440 q 171 424 176 428 q 116 375 126 390 q 117 343 116 353 q 124 301 118 331 q 136 256 127 283 q 160 188 147 224 q 183 203 176 196 q 190 309 186 233 q 191 420 192 351 q 189 525 191 455 q 186 574 189 530 q 174 583 185 588 q 146 570 158 576 l 111 553 q 96 543 100 547 q 87 520 90 536 q 84 489 87 516 q 71 484 83 468 q 54 514 68 489 q 37 545 47 524 q 16 591 37 545 q 16 608 12 603 q 33 621 19 612 q 129 677 43 629 q 151 689 140 684 q 169 682 159 692 q 230 618 189 661 q 283 557 254 592 q 304 520 297 540 q 310 482 309 505 q 311 410 311 454 q 311 323 311 338 q 308 223 310 290 q 330 222 316 222 q 342 221 333 222 q 355 220 352 220 m 275 812 q 267 798 275 798 q 258 800 264 798 q 248 802 252 802 q 205 760 237 802 q 128 719 174 719 q 86 726 115 719 q 53 742 53 734 q 60 758 53 758 q 67 755 62 758 q 76 753 73 753 q 126 799 98 753 q 197 844 155 844 q 271 818 231 844 q 275 812 275 814 z "},"â":{"ha":361,"x_min":-3,"x_max":355,"o":"m 355 220 q 335 202 345 210 q 278 152 315 186 q 258 130 271 144 q 212 113 243 111 q 193 119 205 114 q 183 137 189 123 q 176 154 180 144 q 151 136 168 148 q 130 120 138 127 q 111 109 116 111 q 92 109 106 108 q 65 117 71 109 q 56 138 60 125 q 32 205 47 161 q 7 281 23 233 q 0 311 2 302 q 0 335 -3 326 q 37 381 5 351 q 85 414 56 399 q 125 431 108 426 q 153 440 132 434 q 175 435 160 440 q 171 424 176 428 q 116 375 126 390 q 117 343 116 353 q 124 301 118 331 q 136 256 127 283 q 160 188 147 224 q 183 203 176 196 q 190 309 186 233 q 191 420 192 351 q 189 525 191 455 q 186 574 189 530 q 174 583 185 588 q 146 570 158 576 l 111 553 q 96 543 100 547 q 87 520 90 536 q 84 489 87 516 q 71 484 83 468 q 54 514 68 489 q 37 545 47 524 q 16 591 37 545 q 16 608 12 603 q 33 621 19 612 q 129 677 43 629 q 151 689 140 684 q 169 682 159 692 q 230 618 189 661 q 283 557 254 592 q 304 520 297 540 q 310 482 309 505 q 311 410 311 454 q 311 323 311 338 q 308 223 310 290 q 330 222 316 222 q 342 221 333 222 q 355 220 352 220 m 289 788 q 286 773 294 783 q 257 738 263 744 q 221 715 236 715 q 159 760 195 713 q 110 720 133 734 q 99 715 102 715 q 88 720 95 715 q 43 750 66 733 q 47 760 42 757 q 85 787 60 770 q 129 820 97 795 q 168 854 144 833 q 180 847 176 852 q 165 829 172 838 q 185 826 176 831 q 249 782 207 810 q 259 778 254 778 q 267 781 258 778 q 279 789 271 783 q 289 788 285 791 z "},"ã":{"ha":361,"x_min":0,"x_max":355,"o":"m 355 220 q 335 202 345 210 q 278 152 315 186 q 258 130 271 144 q 212 113 243 111 q 193 119 205 114 q 183 137 189 123 q 176 154 180 144 q 151 136 168 148 q 130 120 138 127 q 111 109 116 111 q 92 109 106 108 q 65 117 71 109 q 56 138 60 125 q 32 205 47 161 q 7 281 23 233 q 0 311 2 302 q 0 335 -3 326 q 37 381 5 351 q 85 414 56 399 q 125 431 108 426 q 153 440 132 434 q 175 435 160 440 q 171 424 176 428 q 116 375 126 390 q 117 343 116 353 q 124 301 118 331 q 136 256 127 283 q 160 188 147 224 q 183 203 176 196 q 190 309 186 233 q 191 420 192 351 q 189 525 191 455 q 186 574 189 530 q 174 583 185 588 q 146 570 158 576 l 111 553 q 96 543 100 547 q 87 520 90 536 q 84 489 87 516 q 71 484 83 468 q 54 514 68 489 q 37 545 47 524 q 16 591 37 545 q 16 608 12 603 q 33 621 19 612 q 129 677 43 629 q 151 689 140 684 q 169 682 159 692 q 230 618 189 661 q 283 557 254 592 q 304 520 297 540 q 310 482 309 505 q 311 410 311 454 q 311 323 311 338 q 308 223 310 290 q 330 222 316 222 q 342 221 333 222 q 355 220 352 220 m 311 789 q 309 780 311 782 q 214 709 272 709 q 142 732 186 709 q 81 755 98 755 q 57 746 64 755 q 47 737 49 737 q 36 744 43 737 q 29 753 29 750 q 54 785 29 762 q 90 812 77 805 q 138 824 115 824 q 209 805 166 824 q 263 786 252 786 q 282 794 273 786 q 294 803 291 803 q 311 789 311 803 z "},"ä":{"ha":361,"x_min":-3,"x_max":355,"o":"m 355 220 q 335 202 345 210 q 278 152 315 186 q 258 130 271 144 q 212 113 243 111 q 193 119 205 114 q 183 137 189 123 q 176 154 180 144 q 151 136 168 148 q 130 120 138 127 q 111 109 116 111 q 92 109 106 108 q 65 117 71 109 q 56 138 60 125 q 32 205 47 161 q 7 281 23 233 q 0 311 2 302 q 0 335 -3 326 q 37 381 5 351 q 85 414 56 399 q 125 431 108 426 q 153 440 132 434 q 175 435 160 440 q 171 424 176 428 q 116 375 126 390 q 117 343 116 353 q 124 301 118 331 q 136 256 127 283 q 160 188 147 224 q 183 203 176 196 q 190 309 186 233 q 191 420 192 351 q 189 525 191 455 q 186 574 189 530 q 174 583 185 588 q 146 570 158 576 l 111 553 q 96 543 100 547 q 87 520 90 536 q 84 489 87 516 q 71 484 83 468 q 54 514 68 489 q 37 545 47 524 q 16 591 37 545 q 16 608 12 603 q 33 621 19 612 q 129 677 43 629 q 151 689 140 684 q 169 682 159 692 q 230 618 189 661 q 283 557 254 592 q 304 520 297 540 q 310 482 309 505 q 311 410 311 454 q 311 323 311 338 q 308 223 310 290 q 330 222 316 222 q 342 221 333 222 q 355 220 352 220 m 312 782 q 307 770 313 774 l 261 732 q 237 716 243 716 q 222 723 227 716 q 212 743 218 730 q 201 766 208 751 q 192 768 199 771 l 181 764 q 173 768 176 762 q 176 782 168 777 l 184 789 q 252 840 206 806 q 269 834 262 848 q 277 814 272 827 q 288 791 281 805 q 298 783 293 779 l 306 789 q 312 782 310 792 m 151 782 q 146 770 152 774 l 100 732 q 76 716 81 716 q 61 723 66 716 q 50 743 57 730 q 40 766 47 751 q 31 768 38 771 l 20 764 q 12 768 15 762 q 14 782 7 777 l 22 789 q 91 840 45 806 q 108 834 102 848 q 116 814 111 827 q 126 791 120 805 q 138 783 132 779 l 144 789 q 151 782 149 792 z "},"å":{"ha":361,"x_min":0,"x_max":355,"o":"m 238 778 q 229 754 238 764 q 205 726 220 743 q 168 715 190 715 q 100 737 125 714 q 79 787 80 756 q 90 817 79 802 q 165 874 109 846 l 169 871 q 164 867 167 868 q 211 838 193 856 q 238 778 238 812 m 195 771 q 181 809 195 793 q 155 839 155 838 q 125 796 125 816 q 164 754 125 763 q 177 755 168 753 q 195 771 186 757 m 355 220 q 335 202 345 210 q 278 152 315 186 q 258 130 271 144 q 212 113 243 111 q 193 119 205 114 q 183 137 189 123 q 176 154 180 144 q 151 136 168 148 q 130 120 138 127 q 111 109 116 111 q 92 109 106 108 q 65 117 71 109 q 56 138 60 125 q 32 205 47 161 q 7 281 23 233 q 0 311 2 302 q 0 335 -3 326 q 37 381 5 351 q 85 414 56 399 q 125 431 108 426 q 153 440 132 434 q 175 435 160 440 q 171 424 176 428 q 116 375 126 390 q 117 343 116 353 q 124 301 118 331 q 136 256 127 283 q 160 188 147 224 q 183 203 176 196 q 190 309 186 233 q 191 420 192 351 q 189 525 191 455 q 186 574 189 530 q 174 583 185 588 q 146 570 158 576 l 111 553 q 96 543 100 547 q 87 520 90 536 q 84 489 87 516 q 71 484 83 468 q 54 514 68 489 q 37 545 47 524 q 16 591 37 545 q 16 608 12 603 q 33 621 19 612 q 129 677 43 629 q 151 689 140 684 q 169 682 159 692 q 230 618 189 661 q 283 557 254 592 q 304 520 297 540 q 310 482 309 505 q 311 410 311 454 q 311 323 311 338 q 308 223 310 290 q 330 222 316 222 q 342 221 333 222 q 355 220 352 220 z "},"æ":{"ha":567,"x_min":-3,"x_max":540,"o":"m 536 444 q 520 434 533 438 q 425 402 473 418 q 365 340 356 373 q 389 342 374 353 q 395 311 406 331 q 353 307 381 288 q 318 372 318 330 q 397 494 318 467 q 350 593 380 534 q 339 595 346 601 q 331 585 334 591 q 321 553 324 573 q 316 515 319 543 q 313 373 315 467 q 313 284 313 326 q 317 225 314 267 q 323 205 317 215 q 338 185 329 195 q 383 166 348 176 q 407 168 403 160 q 435 237 424 197 q 448 286 440 253 q 456 294 451 298 q 467 279 460 290 q 483 258 473 273 q 497 237 490 248 q 500 225 503 229 q 474 189 493 214 l 448 153 q 425 124 445 149 q 407 114 417 115 q 379 114 398 114 q 317 115 353 114 q 289 133 309 117 q 273 145 283 137 q 241 115 262 132 q 212 113 228 112 q 193 119 205 114 q 183 137 189 123 q 176 154 180 144 q 151 136 168 148 q 130 120 138 127 q 111 109 116 111 q 92 109 106 108 q 65 117 71 109 q 56 138 60 125 q 32 205 47 161 q 7 281 23 233 q 0 311 2 302 q 0 335 -3 326 q 37 381 5 351 q 85 414 56 399 q 125 431 108 426 q 153 440 132 434 q 175 435 160 440 q 171 424 176 428 q 116 375 126 390 q 117 343 116 353 q 124 301 118 332 q 136 256 127 283 q 160 188 147 224 q 183 203 176 196 q 190 309 186 233 q 191 420 192 351 q 189 525 191 455 q 186 574 189 530 q 174 583 185 588 q 146 570 158 576 l 111 553 q 96 543 100 547 q 87 520 90 536 q 84 489 87 516 q 71 484 83 468 q 54 514 68 489 q 37 545 47 524 q 16 591 37 545 q 16 608 12 603 q 33 621 19 612 q 129 677 43 629 q 151 689 140 684 q 169 682 159 692 q 230 618 189 661 q 255 592 239 610 q 269 604 260 596 q 323 645 271 605 q 342 654 335 654 q 361 653 355 655 q 412 631 377 648 q 473 599 435 620 q 484 586 481 594 q 536 460 507 530 q 536 444 540 450 z "},"ç":{"ha":378,"x_min":0,"x_max":354,"o":"m 347 494 q 269 438 313 470 q 253 430 258 429 q 241 446 251 430 q 201 550 224 490 q 181 600 193 570 q 151 645 162 654 q 143 635 146 641 q 134 603 138 626 q 128 544 130 579 q 126 454 127 539 q 125 402 126 437 q 126 313 125 355 q 129 235 126 287 q 135 216 130 225 q 155 194 140 206 q 178 178 166 185 q 192 180 187 172 q 201 201 193 182 q 218 245 207 217 q 239 317 220 254 q 246 325 243 329 q 257 309 250 319 q 281 274 272 290 q 307 231 300 240 q 311 218 314 222 q 283 180 302 206 q 259 154 269 162 q 227 144 249 146 q 184 143 210 144 q 157 142 168 142 q 130 144 142 143 q 101 162 121 146 q 64 192 87 172 q 28 229 52 204 l 8 248 q 3 267 5 252 q 0 305 0 283 q 1 341 0 316 q 3 379 3 366 q 3 437 3 395 q 5 522 2 465 q 7 560 4 527 q 16 579 7 566 q 80 633 38 598 q 135 677 98 648 q 154 686 147 686 q 173 685 168 687 q 224 660 191 676 q 274 634 241 652 q 284 621 281 629 q 307 561 290 606 q 324 517 313 548 q 345 513 330 501 q 347 494 354 501 m 266 81 q 197 -7 266 27 q 186 -9 193 -10 q 129 -3 168 -7 q 113 5 121 -3 q 112 19 113 9 l 111 38 q 113 51 110 50 q 123 47 115 52 q 180 24 137 41 q 184 22 182 22 q 195 28 189 23 q 214 65 214 43 q 151 106 214 103 q 142 100 144 106 q 138 95 140 95 q 134 105 132 95 q 144 137 138 117 q 171 157 151 157 q 228 139 197 157 q 266 81 266 115 z "},"è":{"ha":378,"x_min":0,"x_max":351,"o":"m 347 376 q 332 366 344 370 q 236 334 283 350 q 176 272 167 305 q 200 274 184 285 q 205 243 217 263 q 164 239 192 220 q 129 304 129 262 q 208 427 129 399 q 161 526 191 467 q 150 527 157 533 q 142 517 145 524 q 132 485 135 505 q 127 447 130 475 q 124 305 125 399 q 125 216 123 258 q 127 157 125 199 q 134 137 128 147 q 150 118 140 127 q 195 98 159 109 q 218 100 214 92 q 246 169 235 130 q 259 218 252 185 q 267 227 262 231 q 278 212 271 222 q 294 191 283 205 q 307 171 300 180 q 311 157 314 161 q 285 121 304 146 l 258 85 q 235 56 256 81 q 218 46 228 47 q 191 46 209 46 q 128 47 164 46 q 61 101 113 50 q 25 138 49 113 q 10 157 22 143 q 3 179 3 164 q 2 193 3 182 q 1 208 1 203 q 1 282 1 257 q 1 340 1 298 q 0 382 0 368 q 12 471 3 419 q 21 490 12 477 q 80 536 41 505 q 134 577 81 537 q 153 587 146 587 q 172 585 166 587 q 223 563 188 580 q 284 531 246 552 q 295 518 292 526 q 347 393 318 463 q 347 376 351 382 m 274 640 q 243 623 274 632 q 202 616 215 616 q 129 658 159 616 q 87 699 98 699 q 78 697 84 699 q 69 695 73 695 q 62 709 62 695 q 66 715 62 711 q 136 741 104 741 q 204 695 177 741 q 252 650 231 650 q 260 652 255 650 q 268 655 266 655 q 274 640 274 655 z "},"é":{"ha":378,"x_min":0,"x_max":351,"o":"m 347 376 q 332 366 344 370 q 236 334 283 350 q 176 272 167 305 q 200 274 184 285 q 205 243 217 263 q 164 239 192 220 q 129 304 129 262 q 208 427 129 399 q 161 526 191 467 q 150 527 157 533 q 142 517 145 524 q 132 485 135 505 q 127 447 130 475 q 124 305 125 399 q 125 216 123 258 q 127 157 125 199 q 134 137 128 147 q 150 118 140 127 q 195 98 159 109 q 218 100 214 92 q 246 169 235 130 q 259 218 252 185 q 267 227 262 231 q 278 212 271 222 q 294 191 283 205 q 307 171 300 180 q 311 157 314 161 q 285 121 304 146 l 258 85 q 235 56 256 81 q 218 46 228 47 q 191 46 209 46 q 128 47 164 46 q 61 101 113 50 q 25 138 49 113 q 10 157 22 143 q 3 179 3 164 q 2 193 3 182 q 1 208 1 203 q 1 282 1 257 q 1 340 1 298 q 0 382 0 368 q 12 471 3 419 q 21 490 12 477 q 80 536 41 505 q 134 577 81 537 q 153 587 146 587 q 172 585 166 587 q 223 563 188 580 q 284 531 246 552 q 295 518 292 526 q 347 393 318 463 q 347 376 351 382 m 311 708 q 302 694 311 694 q 293 695 300 694 q 283 697 287 697 q 240 656 272 697 q 163 614 209 614 q 121 622 150 614 q 89 637 89 630 q 95 653 89 653 q 102 651 97 653 q 111 648 108 648 q 161 694 133 648 q 233 740 190 740 q 306 713 266 740 q 311 708 311 710 z "},"ê":{"ha":378,"x_min":0,"x_max":351,"o":"m 347 376 q 332 366 344 370 q 236 334 283 350 q 176 272 167 305 q 200 274 184 285 q 205 243 217 263 q 164 239 192 220 q 129 304 129 262 q 208 427 129 399 q 161 526 191 467 q 150 527 157 533 q 142 517 145 524 q 132 485 135 505 q 127 447 130 475 q 124 305 125 399 q 125 216 123 258 q 127 157 125 199 q 134 137 128 147 q 150 118 140 127 q 195 98 159 109 q 218 100 214 92 q 246 169 235 130 q 259 218 252 185 q 267 227 262 231 q 278 212 271 222 q 294 191 283 205 q 307 171 300 180 q 311 157 314 161 q 285 121 304 146 l 258 85 q 235 56 256 81 q 218 46 228 47 q 191 46 209 46 q 128 47 164 46 q 61 101 113 50 q 25 138 49 113 q 10 157 22 143 q 3 179 3 164 q 2 193 3 182 q 1 208 1 203 q 1 282 1 257 q 1 340 1 298 q 0 382 0 368 q 12 471 3 419 q 21 490 12 477 q 80 536 41 505 q 134 577 81 537 q 153 587 146 587 q 172 585 166 587 q 223 563 188 580 q 284 531 246 552 q 295 518 292 526 q 347 393 318 463 q 347 376 351 382 m 296 691 q 292 676 300 687 q 264 641 271 648 q 229 618 243 618 q 166 664 203 617 q 117 624 140 638 q 106 618 109 618 q 95 623 102 618 q 50 654 73 637 q 54 663 50 661 q 92 690 67 673 q 136 724 104 699 q 176 758 152 737 q 187 751 182 755 q 172 733 179 742 q 193 730 182 734 q 256 685 214 714 q 266 682 262 682 q 274 684 265 682 q 286 692 278 687 q 296 691 292 695 z "},"ë":{"ha":378,"x_min":0,"x_max":351,"o":"m 347 376 q 332 366 344 370 q 236 334 283 350 q 176 272 167 305 q 200 274 184 285 q 205 243 217 263 q 164 239 192 220 q 129 304 129 262 q 208 427 129 399 q 161 526 191 467 q 150 527 157 533 q 142 517 145 524 q 132 485 135 505 q 127 447 130 475 q 124 305 125 399 q 125 216 123 258 q 127 157 125 199 q 134 137 128 147 q 150 118 140 127 q 195 98 159 109 q 218 100 214 92 q 246 169 235 130 q 259 218 252 185 q 267 227 262 231 q 278 212 271 222 q 294 191 283 205 q 307 171 300 180 q 311 157 314 161 q 285 121 304 146 l 258 85 q 235 56 256 81 q 218 46 228 47 q 191 46 209 46 q 128 47 164 46 q 61 101 113 50 q 25 138 49 113 q 10 157 22 143 q 3 179 3 164 q 2 193 3 182 q 1 208 1 203 q 1 282 1 257 q 1 340 1 298 q 0 382 0 368 q 12 471 3 419 q 21 490 12 477 q 80 536 41 505 q 134 577 81 537 q 153 587 146 587 q 172 585 166 587 q 223 563 188 580 q 284 531 246 552 q 295 518 292 526 q 347 393 318 463 q 347 376 351 382 m 326 676 q 321 664 327 669 l 275 625 q 251 610 256 610 q 236 617 241 610 q 225 637 232 625 q 215 661 222 645 q 205 663 213 665 l 195 658 q 187 662 190 656 q 189 676 182 671 l 197 683 q 266 734 220 701 q 283 728 277 742 q 291 708 286 722 q 301 686 295 699 q 313 677 307 673 l 319 683 q 326 676 324 686 m 165 676 q 160 664 166 669 l 114 625 q 90 610 96 610 q 75 617 79 610 q 64 637 71 625 q 54 661 61 645 q 45 663 52 665 l 33 658 q 26 662 29 656 q 28 676 21 671 l 37 683 q 104 734 59 701 q 121 728 115 742 q 130 708 125 722 q 140 685 134 699 q 151 677 145 673 l 159 683 q 165 676 163 686 z "},"ì":{"ha":275,"x_min":0,"x_max":279,"o":"m 275 52 l 269 42 q 252 42 264 36 l 140 97 q 108 117 117 109 q 92 158 92 133 q 91 193 92 166 q 90 232 90 220 q 90 278 90 240 q 89 333 89 313 q 88 439 89 395 q 86 557 90 468 q 67 576 84 579 l 39 569 q 29 576 30 567 q 33 591 28 588 q 81 610 50 597 q 148 639 106 621 q 215 670 176 652 q 227 668 220 672 q 233 659 233 665 q 230 654 232 656 q 205 608 205 629 q 208 546 205 587 q 210 395 208 494 q 213 328 211 374 q 214 273 214 288 q 214 174 214 201 q 214 129 213 146 q 216 106 214 110 q 231 90 218 98 l 268 66 q 275 52 279 58 m 212 707 q 181 691 212 700 q 140 684 153 684 q 67 726 97 684 q 26 767 37 767 q 17 765 22 767 q 7 763 11 763 q 0 777 0 763 q 5 783 0 779 q 75 809 43 809 q 142 763 115 809 q 191 718 170 718 q 199 720 193 718 q 206 723 204 723 q 212 707 212 723 z "},"í":{"ha":286,"x_min":39,"x_max":290,"o":"m 286 52 l 280 42 q 263 42 275 36 l 152 97 q 119 117 129 109 q 103 158 103 133 q 103 193 104 166 q 102 232 102 220 q 101 278 102 240 q 100 333 100 313 q 100 439 100 395 q 98 557 102 468 q 79 576 96 579 l 50 569 q 41 576 41 567 q 45 591 39 588 q 93 610 61 597 q 159 639 118 621 q 227 670 187 652 q 238 668 232 672 q 244 659 244 665 q 241 654 243 656 q 217 608 217 629 q 219 546 217 587 q 222 395 220 494 q 224 328 222 374 q 226 273 226 288 q 225 174 226 201 q 225 129 224 146 q 227 106 226 110 q 243 90 230 98 l 279 66 q 286 52 290 58 m 274 780 q 266 766 274 766 q 257 767 263 766 q 247 769 250 769 q 204 728 235 769 q 127 686 172 686 q 85 694 113 686 q 52 709 52 702 q 58 725 52 725 q 66 723 60 725 q 75 720 71 720 q 125 766 96 720 q 196 812 153 812 q 269 785 229 812 q 274 780 274 782 z "},"î":{"ha":300,"x_min":41,"x_max":292,"o":"m 287 52 l 281 42 q 264 42 277 36 l 153 97 q 120 117 130 109 q 104 158 104 133 q 103 193 104 166 q 102 232 102 220 q 102 278 102 240 q 101 333 101 313 q 100 439 101 395 q 99 557 102 468 q 80 576 97 579 l 52 569 q 41 576 43 567 q 45 591 41 588 q 94 610 62 597 q 161 639 119 621 q 227 670 188 652 q 239 668 233 672 q 245 659 245 665 q 243 654 245 656 q 218 608 218 629 q 220 546 218 587 q 222 395 220 494 q 225 328 223 374 q 227 273 227 288 q 226 174 227 201 q 226 129 225 146 q 229 106 227 110 q 243 90 231 98 l 281 66 q 287 52 292 58 m 287 763 q 283 748 292 759 q 255 713 261 720 q 220 690 234 690 q 157 736 193 689 q 108 696 131 710 q 97 690 100 690 q 86 694 93 690 q 41 726 64 709 q 45 734 41 732 q 83 762 58 745 q 127 795 95 771 q 167 830 142 809 q 178 823 174 827 q 163 805 170 814 q 183 802 174 806 q 247 757 205 786 q 257 753 253 753 q 265 755 256 753 q 277 764 269 759 q 287 763 283 767 z "},"ï":{"ha":318,"x_min":37,"x_max":308,"o":"m 304 52 l 298 42 q 281 42 293 36 l 170 97 q 137 117 146 109 q 121 158 121 133 q 120 193 121 166 q 119 232 119 220 q 119 278 119 240 q 118 333 118 313 q 117 439 118 395 q 115 557 119 468 q 96 576 113 579 l 68 569 q 58 576 59 567 q 62 591 57 588 q 111 610 79 597 q 178 639 136 621 q 244 670 205 652 q 256 668 250 672 q 262 659 262 665 q 259 654 261 656 q 235 608 235 629 q 237 546 235 587 q 239 395 237 494 q 242 328 240 374 q 244 273 244 288 q 243 174 244 201 q 243 129 242 146 q 245 106 243 110 q 260 90 248 98 l 297 66 q 304 52 308 58 m 304 758 q 300 746 306 751 l 260 708 q 239 693 243 693 q 226 700 230 693 q 216 720 222 707 q 208 743 214 728 q 199 745 205 747 l 189 741 q 182 745 185 739 q 184 758 178 753 l 192 765 q 252 816 212 782 q 267 809 261 823 q 274 789 269 803 q 282 768 277 781 q 293 760 288 755 l 299 765 q 304 758 303 768 m 163 758 q 159 746 164 751 l 118 708 q 97 693 102 693 q 84 700 88 693 q 75 720 80 707 q 66 743 72 728 q 57 745 63 747 l 47 741 q 41 745 43 739 q 43 758 37 753 l 50 765 q 110 816 70 782 q 125 809 119 823 q 132 789 127 803 q 141 768 136 781 q 151 760 146 755 l 157 765 q 163 758 161 768 z "},"ñ":{"ha":488,"x_min":0,"x_max":475,"o":"m 475 -110 l 465 -130 q 448 -131 462 -136 l 349 -95 q 316 -75 330 -88 q 298 -35 301 -61 q 296 39 296 -12 q 298 99 296 61 q 300 158 300 142 q 300 241 300 227 q 296 380 299 336 q 291 452 294 405 q 272 477 290 472 q 239 469 263 480 q 200 448 214 457 l 200 353 q 203 182 202 222 q 195 56 206 98 l 181 5 q 161 -17 175 -16 q 134 -6 149 -19 l 39 70 q 31 79 32 76 q 43 83 31 81 l 61 85 q 79 108 79 89 l 79 336 q 79 456 79 387 q 74 475 79 470 q 57 475 68 478 l 13 460 q 0 465 0 456 q 9 479 0 473 l 140 568 q 170 585 165 585 q 185 580 177 585 q 191 566 189 577 l 197 525 q 275 560 220 538 q 303 558 289 566 q 340 532 318 551 q 391 487 375 503 q 405 457 401 476 q 415 378 411 422 q 420 298 420 326 q 424 216 422 265 q 421 102 424 165 q 420 -18 418 51 q 423 -71 420 -37 q 427 -85 424 -75 q 446 -98 431 -98 l 471 -99 q 476 -100 475 -99 q 475 -110 479 -102 m 393 682 q 391 673 392 675 q 295 602 353 602 q 223 625 267 602 q 162 648 179 648 q 138 639 146 648 q 128 630 130 630 q 118 636 125 630 q 111 646 111 643 q 136 677 111 655 q 172 705 159 698 q 219 717 196 717 q 290 698 248 717 q 345 679 333 679 q 363 687 355 679 q 375 696 372 696 q 393 682 393 696 z "},"ò":{"ha":431,"x_min":-2,"x_max":390,"o":"m 390 199 q 381 127 389 159 q 369 94 378 111 q 290 41 358 73 q 215 12 238 16 q 182 22 199 9 q 121 73 150 45 q 82 110 109 84 q 58 138 70 122 q 48 163 53 143 q 47 316 46 230 q 50 395 48 342 q 0 408 18 406 q 9 445 -2 425 q 33 437 12 444 q 53 430 40 435 q 58 458 55 438 q 68 473 60 467 q 146 517 98 490 q 227 557 184 540 q 256 555 240 564 q 298 529 267 550 q 351 485 330 507 q 368 454 365 471 q 380 366 377 406 q 389 277 385 332 q 390 199 390 231 m 245 498 q 244 514 246 507 q 167 460 218 496 q 166 444 166 456 q 167 437 166 442 q 167 429 168 433 q 189 439 178 433 q 216 454 196 441 q 236 475 231 465 q 245 498 244 489 m 266 241 q 262 332 265 288 q 256 401 260 372 q 243 412 256 412 q 212 409 226 414 q 167 392 191 402 l 167 290 q 170 182 168 256 q 174 100 171 154 q 181 83 175 92 q 199 64 188 75 q 215 62 205 59 q 248 76 228 66 q 257 93 254 79 q 263 155 260 117 q 266 241 267 206 m 282 620 q 251 604 282 612 q 211 597 223 597 q 137 638 167 597 q 96 680 106 680 q 86 678 92 680 q 77 676 81 676 q 70 690 70 676 q 75 696 70 692 q 144 722 113 722 q 213 676 185 722 q 260 631 240 631 q 269 633 263 631 q 276 636 274 636 q 282 620 282 636 z "},"ó":{"ha":431,"x_min":-2,"x_max":390,"o":"m 390 199 q 381 127 389 159 q 369 94 378 111 q 290 41 358 73 q 215 12 238 16 q 182 22 199 9 q 121 73 150 45 q 82 110 109 84 q 58 138 70 122 q 48 163 53 143 q 47 316 46 230 q 50 395 48 342 q 0 408 18 406 q 9 445 -2 425 q 33 437 12 444 q 53 430 40 435 q 58 458 55 438 q 68 473 60 467 q 146 517 98 490 q 227 557 184 540 q 256 555 240 564 q 298 529 267 550 q 351 485 330 507 q 368 454 365 471 q 380 366 377 406 q 389 277 385 332 q 390 199 390 231 m 245 498 q 244 514 246 507 q 167 460 218 496 q 166 444 166 456 q 167 437 166 442 q 167 429 168 433 q 189 439 178 433 q 216 454 196 441 q 236 475 231 465 q 245 498 244 489 m 266 241 q 262 332 265 288 q 256 401 260 372 q 243 412 256 412 q 212 409 226 414 q 167 392 191 402 l 167 290 q 170 182 168 256 q 174 100 171 154 q 181 83 175 92 q 199 64 188 75 q 215 62 205 59 q 248 76 228 66 q 257 93 254 79 q 263 155 260 117 q 266 241 267 206 m 365 685 q 357 671 365 671 q 348 672 354 671 q 338 674 341 674 q 295 633 326 674 q 218 591 263 591 q 176 599 204 591 q 143 614 143 607 q 149 630 143 630 q 157 628 151 630 q 165 625 162 625 q 216 671 187 625 q 287 717 244 717 q 360 690 320 717 q 365 685 365 687 z "},"ô":{"ha":431,"x_min":-2,"x_max":390,"o":"m 390 199 q 381 127 389 159 q 369 94 378 111 q 290 41 358 73 q 215 12 238 16 q 182 22 199 9 q 121 73 150 45 q 82 110 109 84 q 58 138 70 122 q 48 163 53 143 q 47 316 46 230 q 50 395 48 342 q 0 408 18 406 q 9 445 -2 425 q 33 437 12 444 q 53 430 40 435 q 58 458 55 438 q 68 473 60 467 q 146 517 98 490 q 227 557 184 540 q 256 555 240 564 q 298 529 267 550 q 351 485 330 507 q 368 454 365 471 q 380 366 377 406 q 389 277 385 332 q 390 199 390 231 m 245 498 q 244 514 246 507 q 167 460 218 496 q 166 444 166 456 q 167 437 166 442 q 167 429 168 433 q 189 439 178 433 q 216 454 196 441 q 236 475 231 465 q 245 498 244 489 m 266 241 q 262 332 265 288 q 256 401 260 372 q 243 412 256 412 q 212 409 226 414 q 167 392 191 402 l 167 290 q 170 182 168 256 q 174 100 171 154 q 181 83 175 92 q 199 64 188 75 q 215 62 205 59 q 248 76 228 66 q 257 93 254 79 q 263 155 260 117 q 266 241 267 206 m 350 664 q 347 649 355 660 q 318 614 324 621 q 283 591 297 591 q 220 637 256 590 q 171 597 194 611 q 160 591 163 591 q 149 595 156 591 q 104 627 127 610 q 108 635 104 633 q 146 663 121 646 q 190 696 158 672 q 230 731 205 710 q 241 724 237 728 q 227 706 233 715 q 246 703 237 707 q 310 658 268 687 q 320 654 316 654 q 328 656 319 654 q 340 665 332 660 q 350 664 346 668 z "},"õ":{"ha":431,"x_min":0,"x_max":390,"o":"m 390 199 q 381 127 389 159 q 369 94 378 111 q 290 41 358 73 q 215 12 238 16 q 182 22 199 9 q 121 73 150 45 q 82 110 109 84 q 58 138 70 122 q 48 163 53 143 q 47 316 46 230 q 50 395 48 342 q 0 408 18 406 q 9 445 -2 425 q 33 437 12 444 q 53 430 40 435 q 58 458 55 438 q 68 473 60 467 q 146 517 98 490 q 227 557 184 540 q 256 555 240 564 q 298 529 267 550 q 351 485 330 507 q 368 454 365 471 q 380 366 377 406 q 389 277 385 332 q 390 199 390 231 m 245 498 q 244 514 246 507 q 167 460 218 496 q 166 444 166 456 q 167 437 166 442 q 167 429 168 433 q 189 439 178 433 q 216 454 196 441 q 236 475 231 465 q 245 498 244 489 m 266 241 q 262 332 265 288 q 256 401 260 372 q 243 412 256 412 q 212 409 226 414 q 167 392 191 402 l 167 290 q 170 182 168 256 q 174 100 171 154 q 181 83 175 92 q 199 64 188 75 q 215 62 205 59 q 248 76 228 66 q 257 93 254 79 q 263 155 260 117 q 266 241 267 206 m 360 669 q 358 661 359 663 q 262 589 321 589 q 191 613 235 589 q 130 636 146 636 q 105 627 113 636 q 96 618 98 618 q 85 624 92 618 q 78 634 78 631 q 103 665 78 643 q 139 692 126 686 q 186 705 163 705 q 258 686 215 705 q 312 667 300 667 q 331 675 322 667 q 342 684 340 684 q 360 669 360 684 z "},"ö":{"ha":431,"x_min":-2,"x_max":390,"o":"m 390 199 q 381 127 389 159 q 369 94 378 111 q 290 41 358 73 q 215 12 238 16 q 182 22 199 9 q 121 73 150 45 q 82 110 109 84 q 58 138 70 122 q 48 163 53 143 q 47 316 46 230 q 50 395 48 342 q 0 408 18 406 q 9 445 -2 425 q 33 437 12 444 q 53 430 40 435 q 58 458 55 438 q 68 473 60 467 q 146 517 98 490 q 227 557 184 540 q 256 555 240 564 q 298 529 267 550 q 351 485 330 507 q 368 454 365 471 q 380 366 377 406 q 389 277 385 332 q 390 199 390 231 m 245 498 q 244 514 246 507 q 167 460 218 496 q 166 444 166 456 q 167 437 166 442 q 167 429 168 433 q 189 439 178 433 q 216 454 196 441 q 236 475 231 465 q 245 498 244 489 m 266 241 q 262 332 265 288 q 256 401 260 372 q 243 412 256 412 q 212 409 226 414 q 167 392 191 402 l 167 290 q 170 182 168 256 q 174 100 171 154 q 181 83 175 92 q 199 64 188 75 q 215 62 205 59 q 248 76 228 66 q 257 93 254 79 q 263 155 260 117 q 266 241 267 206 m 372 650 q 367 638 373 643 l 321 600 q 297 585 302 585 q 282 591 287 584 q 271 612 277 599 q 261 635 268 619 q 252 637 258 640 l 241 632 q 233 636 236 630 q 235 650 229 645 l 243 657 q 312 709 266 675 q 328 702 322 716 q 337 682 332 696 q 347 660 341 673 q 358 652 353 647 l 366 657 q 372 650 370 661 m 210 650 q 206 638 212 643 l 160 600 q 136 585 141 585 q 121 591 125 584 q 110 612 117 599 q 100 635 107 619 q 90 637 98 640 l 79 632 q 72 636 75 630 q 74 650 67 645 l 82 657 q 151 709 105 675 q 168 702 161 716 q 176 682 171 696 q 186 659 180 673 q 197 652 191 647 l 204 657 q 210 650 209 661 z "},"÷":{"ha":522,"x_min":24,"x_max":479,"o":"m 314 566 q 309 551 316 557 l 248 505 q 216 486 223 486 q 196 494 202 486 q 182 519 191 504 q 169 547 178 529 q 157 550 165 553 l 142 545 q 132 549 136 542 q 135 566 125 560 l 146 574 q 193 607 162 586 q 235 637 210 619 q 258 629 250 646 q 269 604 262 621 q 281 578 274 594 q 296 568 289 562 l 306 574 q 314 566 312 578 m 476 343 q 479 337 479 340 q 457 331 479 325 q 320 349 407 344 q 103 336 227 354 q 77 342 84 333 q 31 412 49 382 q 24 428 24 426 q 43 436 24 433 q 250 455 138 453 q 366 448 317 456 q 391 437 380 446 q 476 343 427 396 m 341 241 q 336 226 343 232 l 275 180 q 243 161 250 161 q 223 168 229 161 q 210 194 218 178 q 196 222 205 203 q 184 224 193 228 l 169 219 q 159 224 163 216 q 162 241 153 235 l 173 248 q 220 281 189 260 q 262 311 237 294 q 285 303 277 320 q 296 279 289 295 q 309 253 301 269 q 323 242 316 237 l 333 249 q 341 241 339 252 z "},"ø":{"ha":376,"x_min":12,"x_max":356,"o":"m 356 199 q 348 127 355 159 q 335 94 344 111 q 256 41 325 73 q 181 12 204 16 q 148 22 165 9 q 110 52 128 37 l 90 1 q 94 -16 94 -7 q 64 -50 94 -50 q 33 -16 33 -50 q 58 16 33 12 l 82 78 q 49 110 71 88 q 24 138 36 122 q 14 163 19 143 q 14 316 12 230 q 16 395 14 366 q 24 458 18 421 q 34 473 26 467 q 113 517 64 490 q 193 557 151 540 q 222 555 206 564 q 258 533 233 550 l 269 563 q 263 583 263 572 q 294 616 263 616 q 324 583 324 616 q 302 551 324 558 l 288 511 q 317 485 307 496 q 334 454 332 471 q 347 366 343 406 q 355 277 351 332 q 356 199 356 230 m 219 432 q 212 498 211 493 q 210 514 212 507 q 133 460 184 496 q 133 392 133 437 q 133 290 133 358 q 135 216 134 260 l 219 432 m 232 241 q 229 332 231 291 l 227 355 l 138 127 q 140 100 140 112 q 148 83 141 92 q 165 64 154 75 q 181 62 172 59 q 214 76 194 66 q 223 93 221 79 q 229 155 227 117 q 232 241 233 206 z "},"ù":{"ha":437,"x_min":0,"x_max":416,"o":"m 416 166 q 411 154 416 157 q 343 123 389 144 q 268 83 309 106 q 237 82 252 74 q 162 117 198 103 q 73 144 97 140 q 46 146 54 146 q 34 142 43 145 q 17 137 19 136 q 22 150 9 142 q 39 159 27 152 q 41 372 43 174 l 38 553 q 23 595 38 592 q 9 593 17 595 q 0 596 0 591 q 9 607 0 602 l 105 666 q 132 673 121 675 q 146 650 144 669 q 156 468 151 618 q 150 211 163 255 q 197 222 172 222 q 245 210 224 221 q 243 309 245 218 q 252 490 241 400 q 273 635 261 550 q 261 657 274 642 q 248 671 258 661 l 236 681 q 231 694 228 688 l 233 699 q 255 699 237 709 q 370 629 298 674 q 389 615 389 615 q 389 596 393 610 q 366 449 380 562 q 366 184 349 316 q 383 166 369 162 l 405 172 q 416 166 416 176 m 264 745 q 233 729 264 737 q 193 722 205 722 q 119 763 149 722 q 78 804 89 804 q 68 803 75 804 q 60 801 62 801 q 52 814 52 801 q 56 821 52 817 q 126 847 94 847 q 195 801 168 847 q 242 755 222 755 q 251 758 245 755 q 258 761 256 761 q 264 745 264 761 z "},"ú":{"ha":437,"x_min":0,"x_max":416,"o":"m 416 166 q 411 154 416 157 q 343 123 389 144 q 268 83 309 106 q 237 82 252 74 q 162 117 198 103 q 73 144 97 140 q 46 146 54 146 q 34 142 43 145 q 17 137 19 136 q 22 150 9 142 q 39 159 27 152 q 41 372 43 174 l 38 553 q 23 595 38 592 q 9 593 17 595 q 0 596 0 591 q 9 607 0 602 l 105 666 q 132 673 121 675 q 146 650 144 669 q 156 468 151 618 q 150 211 163 255 q 197 222 172 222 q 245 210 224 221 q 243 309 245 218 q 252 490 241 400 q 273 635 261 550 q 261 657 274 642 q 248 671 258 661 l 236 681 q 231 694 228 688 l 233 699 q 255 699 237 709 q 370 629 298 674 q 389 615 389 615 q 389 596 393 610 q 366 449 380 562 q 366 184 349 316 q 383 166 369 162 l 405 172 q 416 166 416 176 m 317 813 q 309 800 317 800 q 300 801 307 800 q 290 803 294 803 q 247 762 279 803 q 170 720 216 720 q 128 727 157 720 q 96 743 96 736 q 102 759 96 759 q 110 756 104 759 q 118 754 115 754 q 168 800 140 754 q 239 846 197 846 q 313 819 273 846 q 317 813 317 816 z "},"û":{"ha":437,"x_min":0,"x_max":416,"o":"m 416 166 q 411 154 416 157 q 343 123 389 144 q 268 83 309 106 q 237 82 252 74 q 162 117 198 103 q 73 144 97 140 q 46 146 54 146 q 34 142 43 145 q 17 137 19 136 q 22 150 9 142 q 39 159 27 152 q 41 372 43 174 l 38 553 q 23 595 38 592 q 9 593 17 595 q 0 596 0 591 q 9 607 0 602 l 105 666 q 132 673 121 675 q 146 650 144 669 q 156 468 151 618 q 150 211 163 255 q 197 222 172 222 q 245 210 224 221 q 243 309 245 218 q 252 490 241 400 q 273 635 261 550 q 261 657 274 642 q 248 671 258 661 l 236 681 q 231 694 228 688 l 233 699 q 255 699 237 709 q 370 629 298 674 q 389 615 389 615 q 389 596 393 610 q 366 449 380 562 q 366 184 349 316 q 383 166 369 162 l 405 172 q 416 166 416 176 m 334 795 q 331 780 339 790 q 302 745 309 751 q 267 722 281 722 q 204 767 241 720 q 155 727 178 741 q 144 722 147 722 q 134 726 140 722 q 88 757 111 740 q 92 766 87 764 q 130 793 106 777 q 174 827 142 802 q 214 861 190 840 q 226 854 221 859 q 211 836 218 845 q 231 833 221 838 q 294 789 252 817 q 304 785 300 785 q 313 787 304 785 q 324 795 317 790 q 334 795 330 798 z "},"ü":{"ha":437,"x_min":0,"x_max":416,"o":"m 416 166 q 411 154 416 157 q 343 123 389 144 q 268 83 309 106 q 237 82 252 74 q 162 117 198 103 q 73 144 97 140 q 46 146 54 146 q 34 142 43 145 q 17 137 19 136 q 22 150 9 142 q 39 159 27 152 q 41 372 43 174 l 38 553 q 23 595 38 592 q 9 593 17 595 q 0 596 0 591 q 9 607 0 602 l 105 666 q 132 673 121 675 q 146 650 144 669 q 156 468 151 618 q 150 211 163 255 q 197 222 172 222 q 245 210 224 221 q 243 309 245 218 q 252 490 241 400 q 273 635 261 550 q 261 657 274 642 q 248 671 258 661 l 236 681 q 231 694 228 688 l 233 699 q 255 699 237 709 q 370 629 298 674 q 389 615 389 615 q 389 596 393 610 q 366 449 380 562 q 366 184 349 316 q 383 166 369 162 l 405 172 q 416 166 416 176 m 352 793 q 347 781 353 785 l 301 742 q 277 727 282 727 q 262 734 267 726 q 252 754 258 741 q 241 777 248 762 q 232 779 239 782 l 220 774 q 213 779 216 772 q 215 793 208 787 l 223 800 q 292 851 246 817 q 309 844 302 859 q 317 825 312 838 q 328 802 321 816 q 338 794 332 789 l 345 800 q 352 793 350 803 m 191 793 q 186 781 192 785 l 140 742 q 116 727 121 727 q 101 734 105 726 q 90 754 96 741 q 80 777 87 762 q 71 779 77 782 l 60 774 q 52 779 55 772 q 54 793 47 787 l 62 800 q 131 851 85 817 q 147 844 141 859 q 156 825 151 838 q 166 803 160 816 q 177 794 172 789 l 184 800 q 191 793 189 803 z "},"ý":{"ha":455,"x_min":-253,"x_max":435,"o":"m 435 488 q 349 316 400 408 q 277 191 327 277 q 216 90 238 124 q 178 33 202 68 q 141 -22 165 13 q 105 -71 120 -54 q 81 -81 96 -81 q -14 -73 36 -81 q -90 -58 -53 -67 q -172 -32 -127 -48 q -247 2 -202 -20 q -250 13 -253 5 q -239 31 -247 19 q -201 73 -223 54 l -191 82 q -173 85 -185 87 l -92 77 q -79 72 -79 76 q -92 66 -80 69 l -157 47 q -163 39 -161 47 l -170 22 q -162 7 -174 11 q -130 0 -154 5 q -68 -9 -110 -4 q 2 -13 -47 -12 q 58 -12 33 -14 q 88 35 68 4 q 149 125 102 56 q 73 385 138 163 q 57 431 66 406 q 39 440 51 439 q 30 445 31 441 q 37 452 28 452 q 127 454 81 452 l 206 457 q 221 453 222 458 q 211 446 221 449 q 198 440 203 443 q 191 433 192 438 q 190 420 189 427 q 205 357 193 404 q 231 266 215 319 q 275 342 247 293 q 311 412 286 360 q 333 471 326 444 q 298 495 321 478 q 367 491 332 492 l 435 488 m 355 602 q 347 588 355 588 q 337 590 344 588 q 328 591 331 591 q 284 550 316 591 q 208 509 253 509 q 165 516 194 509 q 133 532 133 524 q 139 547 133 547 q 146 545 141 547 q 155 543 152 543 q 205 588 177 543 q 277 634 234 634 q 350 608 310 634 q 355 602 355 604 z "},"ÿ":{"ha":455,"x_min":-253,"x_max":435,"o":"m 435 488 q 349 316 400 408 q 277 191 327 277 q 216 90 238 124 q 178 33 202 68 q 141 -22 165 13 q 105 -71 120 -54 q 81 -81 96 -81 q -14 -73 36 -81 q -90 -58 -53 -67 q -172 -32 -127 -48 q -247 2 -202 -20 q -250 13 -253 5 q -239 31 -247 19 q -201 73 -223 54 l -191 82 q -173 85 -185 87 l -92 77 q -79 72 -79 76 q -92 66 -80 69 l -157 47 q -163 39 -161 47 l -170 22 q -162 7 -174 11 q -130 0 -154 5 q -68 -9 -110 -4 q 2 -13 -47 -12 q 58 -12 33 -14 q 88 35 68 4 q 149 125 102 56 q 73 385 138 163 q 57 431 66 406 q 39 440 51 439 q 30 445 31 441 q 37 452 28 452 q 127 454 81 452 l 206 457 q 221 453 222 458 q 211 446 221 449 q 198 440 203 443 q 191 433 192 438 q 190 420 189 427 q 205 357 193 404 q 231 266 215 319 q 275 342 247 293 q 311 412 286 360 q 333 471 326 444 q 298 495 321 478 q 367 491 332 492 l 435 488 m 392 596 q 387 584 393 589 l 341 545 q 317 530 322 530 q 302 537 307 530 q 292 557 298 545 q 281 581 288 565 q 272 583 279 585 l 260 578 q 253 582 256 576 q 255 596 248 591 l 263 603 q 332 654 286 621 q 349 648 342 662 q 357 628 352 642 q 368 605 361 619 q 378 597 372 593 l 385 603 q 392 596 390 606 m 231 596 q 226 584 232 589 l 180 545 q 156 530 161 530 q 141 537 145 530 q 130 557 136 545 q 120 581 127 565 q 111 583 117 585 l 100 578 q 92 582 95 576 q 94 596 87 591 l 102 603 q 171 654 125 621 q 187 648 181 662 q 196 628 191 642 q 206 606 200 619 q 217 597 212 593 l 224 603 q 231 596 229 606 z "}}}
